<?xml version="1.0" encoding="UTF-8" standalone="no"?>
<svg
   version="1.2"
   width="800"
   height="842"
   viewBox="0 0 800 842"
   stroke-linecap="round"
   stroke-linejoin="round"
   id="svg9"
   sodipodi:docname="2022 House of Representatives Election in New Jersey's 10th Congressional District.svg"
   inkscape:version="1.1 (c68e22c387, 2021-05-23)"
   xmlns:inkscape="http://www.inkscape.org/namespaces/inkscape"
   xmlns:sodipodi="http://sodipodi.sourceforge.net/DTD/sodipodi-0.dtd"
   xmlns="http://www.w3.org/2000/svg"
   xmlns:svg="http://www.w3.org/2000/svg">
  <defs
     id="defs13" />
  <sodipodi:namedview
     id="namedview11"
     pagecolor="#505050"
     bordercolor="#ffffff"
     borderopacity="1"
     inkscape:pageshadow="0"
     inkscape:pageopacity="0"
     inkscape:pagecheckerboard="1"
     showgrid="false"
     inkscape:zoom="1.0356295"
     inkscape:cx="400.23968"
     inkscape:cy="421.4828"
     inkscape:window-width="1920"
     inkscape:window-height="1057"
     inkscape:window-x="1912"
     inkscape:window-y="-8"
     inkscape:window-maximized="1"
     inkscape:current-layer="svg9" />
  <g
     id="CD10 - 2022"
     style="fill:#848484;fill-opacity:1;stroke:#ffffff;stroke-opacity:1">
    <path
       d="M 620 520.79 621.21 523.78 622.08 525.94 624.16 531.88 625.89 538.31 627.28 542.96 627.82 546.72 627.92 551.67 627.73 555.62 627.6 556.4 627.56 556.66 627.56 556.66 626.62 556.18 618.95 568.45 613.55 576.7 613.45 576.85 613.31 577.07 609.06 583.74 603.02 593.27 602.95 593.38 586.69 619.45 585.1 621.99 578.88 631.96 578.64 632.34 577.5 634.19 575.32 637.72 573.12 641.23 572.5 642.23 568.08 649.43 566.65 652.13 566.48 652.03 566.49 652.03 566.28 651.91 562.36 649.54 556.84 646.22 550.43 641.89 545.46 638.52 545.39 638.47 537.61 633.21 536.78 632.65 528.68 627.17 525.22 624.34 524.53 623.77 524.53 623.77 523.57 622.63 522.59 621.49 520.3 618.36 518.16 616.02 518.14 616 514.75 613.44 514.71 613.43 514.71 613.43 514.29 613.32 512.71 612.87 511.27 612.76 510.54 612.7 508.71 612.73 507.47 612.83 506.13 612.94 503.3 613.35 502.1 613.12 501.92 613.09 500.88 612.42 500.64 612.23 499.87 611.59 499.01 610.71 498.95 610.66 498.55 610.11 498.12 609.54 496.94 607.49 496.82 607.25 496.73 607.04 496.55 606.62 496.38 606.24 495.42 604.05 495.36 603.91 495.12 603.57 495 603.39 494.23 602.29 494.22 602.29 494.22 602.29 492.28 600.68 492.13 600.55 492.04 600.48 491.81 600.37 491.59 600.27 490.57 599.79 490.54 599.78 490.35 599.69 490.32 599.68 489.65 599.5 489.51 599.46 489.38 599.43 489.18 599.38 488.29 599.14 487.07 598.81 486.09 598.55 484.45 598.1 484.19 598.04 483.67 597.91 482.72 597.65 478.71 597.72 477.5 597.97 475.35 598.43 475.05 598.67 473.77 599.75 473.48 599.99 472.8 600.55 472.8 600.56 472.63 600.84 472.49 601.08 471.98 601.95 471.5 602.79 470.69 603.49 470.3 603.54 468.83 603.75 463.31 604.2 442.42 605.9 438.94 606.19 413.47 608.26 413.26 608.28 411.64 608.41 411.49 608.43 411.21 608.45 411.02 608.46 409.41 608.59 406.38 608.84 406.26 608.85 404.62 608.99 403.89 609.05 403.62 609.06 403.46 609.08 403.19 609.1 403.17 609.1 403.06 609.11 402.78 609.14 402.75 609.14 401.71 609.22 391.06 610.09 390.64 610.13 388.97 610.26 388.11 610.33 382.06 610.82 381.39 610.88 380.81 610.92 380.45 610.95 379.79 611.01 378.88 611.08 378.74 611.09 378.62 611.1 378.54 611.05 377.88 610.59 373.43 607.57 371.78 606.44 370.65 605.68 370.43 605.53 369.96 605.21 369 604.55 367.98 603.86 367.47 603.51 365.24 601.99 363.23 600.61 362.45 600.07 361.66 599.53 361.62 599.5 359.89 598.32 359.49 598.04 357.97 597 356.59 596.05 347.23 563.13 346.91 561.99 345.94 558.58 345.73 557.87 345.63 557.77 341.87 554.23 341.42 553.81 335.95 548.67 330.3 543.36 329.85 542.93 326.81 540.05 326.43 539.69 324.51 537.98 324.51 537.98 322.99 536.54 322.99 536.54 322.61 536.18 322.61 536.18 321.08 534.73 320.7 534.37 320.15 533.85 318.81 533.54 318.81 533.54 318.27 533.42 318.27 533.42 316.15 532.92 315.63 532.78 313.04 532.21 313.04 532.21 312.49 532.09 312.48 532.09 309.19 531.35 309.19 531.35 307.58 530.98 306.44 530.72 305.89 530.59 305.88 530.59 303.94 530.15 303.68 530.09 303.13 529.96 300.6 529.39 289.9 526.91 282.52 525.18 279.51 524.57 273.06 523 264.3 521.03 255.85 519.19 232.57 513.81 229.93 513.18 225.12 512.02 224.87 511.96 224.81 511.93 224.25 511.72 223.47 511.42 223.25 511.34 223.35 511.34 223.63 511.35 223.73 511.29 223.89 511.2 224.03 511.07 224.23 510.9 224.43 510.71 224.6 510.55 224.78 510.41 225.01 510.22 225.41 509.9 225.69 509.69 226.14 509.25 226.36 509.09 226.58 508.94 226.67 508.89 226.91 508.79 227.03 508.72 227.2 508.6 227.38 508.43 227.48 508.32 227.79 508.02 227.99 507.82 228.41 507.34 228.58 507.16 228.7 507.03 228.8 506.93 228.95 506.81 229.07 506.73 229.18 506.68 229.32 506.63 229.46 506.54 229.65 506.4 229.91 506.21 230.16 505.98 230.36 505.84 230.62 505.62 230.81 505.45 231 505.28 231.24 505.05 231.45 504.88 231.64 504.73 231.84 504.58 232.01 504.45 232.25 504.24 231.88 503.81 231.53 503.41 231.82 503.15 232.43 502.62 231.9 502.05 233.65 500.55 233.9 500.25 233.37 499.7 233.8 498.23 234.6 495.49 236.01 490.69 237.2 486.61 239.47 478.88 239.39 478.37 239.35 478.1 239.32 477.86 239.95 476.95 239.08 476.46 239.54 475.58 240.11 475.96 240.37 475.43 240.52 475.48 240.99 474.12 241.03 473.58 241.1 473.05 244.99 464.49 245.58 464.76 246.03 463.74 246.17 463.44 246.23 463.29 247.83 459.19 248.28 459.31 248.85 459.46 249.33 457.69 250.76 458.01 251.39 455.36 251.74 455.48 252 454.63 252.62 454.04 253.08 453.23 255.27 449.35 256.7 446.82 256.75 446.72 257.88 447.79 257.96 447.87 258.56 446.34 257.77 446.03 257.7 446 257.9 445.49 257.92 445.43 257.54 445.27 257.35 445.19 257.41 445.04 257.43 445 257.53 445 257.52 444.77 258.26 445 259.04 443.04 259.17 442.72 259.46 441.63 258.28 441.25 257.11 440.87 257.82 438.66 256.87 438.37 255.88 438.07 255.87 437.8 255.87 437.65 255.87 437.43 255.89 436.91 255.9 436.76 255.48 436.62 254.35 436.21 253.11 435.78 250.44 434.88 246.52 433.56 245.11 433.12 243.68 432.69 243.58 432.65 242.97 432.37 242.17 432.02 241.62 431.74 241.12 431.42 240.84 431.19 240.67 431.06 240.39 430.77 239.96 430.28 239.48 429.69 239.17 429.31 238.16 428.09 237.56 427.16 237.36 426.84 237.11 426.34 236.94 425.9 236.7 425 236.61 424.55 236.28 422.97 236.02 421.57 235.92 420.98 240.49 416.7 244.43 413.02 245.32 412.13 245.64 411.83 246.49 412.51 250.05 409.37 250.92 408.61 251.45 408.14 253.88 409.71 254.4 409.13 255.77 407.08 256.4 406.22 257.11 405.16 257.88 405.53 266.55 409.55 267.06 408.48 267.24 408.13 271.2 402.54 271.34 402.3 271.69 400.98 270.77 400.57 270.83 400.35 271.04 399.62 271.25 398.87 271.34 398.53 272.64 393.94 274.22 392.94 277.1 391.16 277.17 390.83 276.69 390.84 279.87 378.3 280.33 378.39 280.94 376.08 281.02 375.85 281.11 375.61 281.61 373.6 281.89 373.31 283.36 372.05 282.44 371.52 273.12 366.14 273.42 365.76 273.2 365.59 271.39 364.2 270.22 363.3 270.1 363.2 268.81 365.22 267.7 366.98 259.27 361.54 259.26 361.16 259.26 360.99 258.09 359.73 257.48 360.36 256.37 359.32 256.09 359.16 255.71 359 255.03 358.67 254.78 358.55 253.87 358.11 253.36 357.86 252.93 357.66 251.41 356.92 251.08 356.77 246.87 354.72 245.99 354.3 239.96 351.37 239.68 351.22 239.49 351.14 236.79 349.84 236.67 349.77 234.67 348.81 234.25 348.6 233.97 348.47 233.84 348.4 232.25 347.63 231.96 347.49 231.78 347.41 230.37 346.73 228.98 346.08 228.69 345.93 228.51 345.85 226.11 344.7 225.24 344.28 224.4 343.88 223.48 343.43 222.21 342.82 221.51 342.46 221.22 342.32 221.09 342.26 219.84 341.65 219.6 341.52 213.92 338.74 212.35 337.97 209.72 336.96 206.3 335.64 201.85 333.93 201.7 333.87 201.17 333.64 197.42 332.04 194.94 330.97 189.47 328.63 188.84 328.36 188.71 328.3 188.55 328.35 186.08 329.04 185.54 329.19 184.12 329.59 175.83 331.9 168.18 334.04 163.1 335.46 130.05 345.06 127.47 345.81 124.95 346.54 124.04 346.51 123.24 346.48 122.37 346.46 120.61 346.39 114.84 346.19 109.54 346 105.47 345.87 102.32 345.47 96.77 345.37 90.8 345.27 83.59 345.14 85.47 339.6 87.03 335.01 88.34 331.17 88.55 330.53 96.79 306.92 99.39 299.54 99.82 298.3 101.57 293.53 102.36 291.06 103.39 288.37 106.4 280.58 107.73 277.06 110.56 269.56 112.14 265.42 112.85 263.53 118.58 248.22 128.5 221.84 133.12 209.56 133.5 208.54 133.67 208.1 134.64 205.77 138.63 196.06 139.35 194.26 140.47 191.48 141.16 189.74 142.92 185.32 145.91 177.8 146.87 174.85 147.17 174.01 151.94 161.9 152.62 160.21 152.88 159.56 153.4 158.24 153.51 157.96 154.18 156.3 154.81 154.73 156.12 151.47 156.56 150.35 159.7 142.51 160.3 141.01 161 139.28 161.43 138.2 163.06 134.16 163.71 132.54 163.63 132.48 163.23 132.26 163.17 132.22 162.87 132.1 162.78 132.08 162.63 132.03 162.33 131.97 161.78 131.86 161.31 131.8 160.75 131.62 160.47 131.51 159.56 130.58 159.48 130.5 158.95 129.96 158.61 129.62 158.2 128.65 158.16 128.56 158.05 128.28 157.9 127.98 157.6 127.43 157.43 127.16 157.27 126.93 157.11 126.73 156.82 126.43 156.24 125.84 155.79 125.29 155.76 125.25 155.33 124.72 155.09 124.36 154.92 123.99 154.71 123.38 154.54 122.77 154.28 121.54 154.1 120.79 154.01 120.44 153.93 120.22 153.76 119.92 153.57 119.71 153.29 119.5 153.07 119.37 152.93 119.3 152.77 119.24 152.62 119.2 152.44 119.19 151.66 119.15 151.14 119.17 150.61 119.23 149.89 119.38 148.84 119.72 148.3 119.93 147.8 120.11 147.39 120.25 146.96 120.41 146.85 120.51 146.46 120.45 146.4 120.45 146.07 120.42 145.4 120.4 143.77 120.42 142.91 120.43 140.09 120.29 139.15 120.28 139.21 119.98 139.45 118.87 138.33 118.68 139.4 115.31 136.32 113.89 132.51 112.13 133.19 111.31 130.43 108.82 126.93 105.65 128.85 103.48 129.02 103.26 128.18 102.91 127.63 102.56 126.84 101.79 126.45 101.38 126.1 101.05 121.06 97.92 120.82 97.74 121.96 96.17 124 93.63 123.84 93.42 119.44 88.54 118.5 87.51 117.48 86.82 113.52 84.15 112.03 83.18 110.95 81.97 110.01 80.92 109 79.79 107.56 78.19 102.14 72.14 100.03 69.78 99.12 68.68 98.61 68.05 97.44 66.63 97.22 66.94 95.77 65.56 97.94 63.09 98.7 63.75 99.38 63.32 104.6 62.46 111.79 61.28 112.22 61.29 112.69 61.42 113.32 61.52 113.41 61.53 114.21 61.61 116.19 61.53 120.14 61.4 122.33 61.21 123.09 61.03 124.02 60.68 124.85 60.25 125.56 59.85 126.05 59.45 126.56 59.16 126.83 59.05 127.3 58.99 127.42 58.98 127.87 58.71 127.99 58.69 130.96 58.26 130.78 58.09 127.98 55.6 126.95 54.68 126.51 55.11 126.35 55.25 126.25 55.35 122.52 58.83 118.52 60.1 114.86 59.95 115.36 58.62 118.2 51.03 119.04 48.72 119.33 47.93 118.89 47.52 121.06 42.26 122.95 42.45 124.57 42.61 125.19 42.69 125.47 42.73 125.8 42.76 126.54 42.81 126.8 42.82 127.1 42.81 127.39 42.76 127.73 42.69 128.29 42.52 128.39 42.49 128.99 42.3 129.19 42.23 129.44 42.14 129.64 42.06 129.75 42.02 129.45 41.78 128.54 41.04 127.5 40.21 127.3 40.04 127.46 39.84 128.75 38.29 131.15 35.74 131.22 35.64 126.97 33.04 126.79 33.33 125.35 32.29 123.03 30.67 124.07 29.09 128.22 22.91 132.59 16.24 132.93 15.86 135.3 16.4 138.38 10.98 141.35 10.06 142.25 9.78 147.9 8.04 152.69 6.57 154.42 7.83 156.67 9.51 162.21 13.61 163.43 11.82 165.12 9.23 165.47 8.52 166.22 7.63 166.87 8.08 169.84 10.12 171.68 11.38 171 13.12 170.44 14.6 169.35 17.52 169.16 18.04 168.57 19.61 169.19 19.9 178.57 23.48 178.65 23.58 181.13 26.16 182.37 27.43 183.62 28.74 183.84 28.96 184 28.94 186.88 28.58 188.01 28.44 190.03 31.22 192.42 34.48 193.36 35.76 193.52 35.53 194.6 36.06 194.91 36.22 195.21 36.36 197.82 37.65 197.76 37.84 197.24 39.68 197.59 39.86 197.74 39.93 201.42 41.74 201.53 41.79 201.47 43.14 201.43 44.05 201.42 44.3 201.42 44.57 201.21 52.22 201.21 52.48 201.2 52.75 200.71 53.77 200.68 53.82 200.17 54.9 200 55.25 204.28 55.57 210.84 56.32 210.97 54.08 211.38 52.84 211.69 52.25 211.89 51.97 212.76 50.99 213.84 50.28 215.18 49.16 216.17 48.31 216.58 47.86 216.85 47.47 217.13 46.88 217.48 45.89 217.8 45.02 218.13 43.87 218.19 43.31 218.17 42.8 218.05 42.03 217.94 41.01 217.91 40.5 217.93 40.18 218.13 39.23 218.48 38.14 219.22 36.06 219.16 35.27 219.24 35.15 219.31 35.05 219.39 34.95 219.47 34.86 220.59 33.64 220.84 33.32 223.83 26.61 224.5 25.11 225.35 23.22 226.15 21.42 228.49 15.49 228.56 15.31 230.11 11.38 231.38 8.14 233.66 1.99 234.04 1 240.62 3.35 240.88 3.44 244.82 4.84 247.19 5.69 251.74 7.31 256.25 8.94 264.28 11.84 264.93 12.19 277.02 16.54 277.48 16.73 277.57 16.53 280.56 17.94 285.92 20.46 285.34 21.94 286.67 22.46 285.01 27.21 283.57 31.37 283 32.97 281.26 37.97 277.8 48.1 277.65 48.57 276.92 50.7 276.45 52.09 278.29 52.76 286.41 55.74 293.36 58.28 295.97 59.23 300.46 60.88 303.18 61.88 303.22 61.81 303.53 60.09 303.68 59.58 304.2 57.77 304.35 54.94 304.04 51.12 314.18 54.17 322.96 58.58 323.5 58.87 323.71 59.95 321.38 63.79 321.43 64.8 320.85 65.74 320.64 67.7 319.58 68.42 317.94 70.99 314.93 75.68 313.12 76.8 310.2 79.92 307.24 83.13 306.44 83.67 306.33 83.75 306.3 84.16 306.27 84.52 306.24 84.82 306.18 85.07 305.98 85.82 305.9 86.14 305.82 86.06 304.64 85.02 304.39 84.78 304.2 85.08 304.03 85.28 303.77 85.82 302.2 87.77 300.53 89.45 299.26 90.6 301.28 92.26 301.77 92.88 301.72 93.29 301.66 93.81 301.47 95.36 300.13 99.36 298.95 101.72 298.44 102.79 298.08 103.56 297.04 105.77 298.15 108.21 298.3 108.55 298.4 108.79 298.77 109.97 298.45 111.51 298.36 112.02 297.99 112.95 297.05 115.13 296.24 117.01 294.04 122.78 292.54 125.12 291.78 127.13 291.59 127.76 291.37 128.51 290.14 132.69 289.41 133.08 289.19 136.31 287.95 138.58 283.62 140.84 282.36 146.55 282.21 147.21 280.68 150.66 280.35 152.78 279.93 155.38 279.1 157.5 278.81 158.23 276.9 161.65 276.32 163.13 275.25 165.87 274.64 169.78 274.32 171.87 274.05 173.6 275.07 174.73 275.3 175 276.61 176.43 277.36 177.28 277.73 177.67 280.73 180.78 283.28 183.69 284.15 184.61 284.64 185.12 294.2 195.19 296.16 197.23 297.35 198.47 297.44 198.56 297.62 198.76 301.36 202.75 305.37 207.03 305.63 206.04 305.7 205.89 304.58 205.04 301.59 202.49 302.12 201.8 302.76 200.89 303.36 199.89 303.46 199.73 303.51 199.61 303.89 198.92 304.18 198.11 304.42 197.43 304.48 197.26 305.34 194.77 305.41 194.79 310.21 196.61 310.57 196.23 310.97 195.53 311.69 193.68 306.23 192.15 306.76 190.61 307.15 189.28 312.6 191.35 313.63 188.7 317.19 190.11 322.22 179.3 322.5 178.86 323.32 178.35 324.46 178.27 326.52 178.99 327.62 179.19 327.94 179.12 327.87 178.81 327.66 178.26 327.29 177.54 326.85 176.85 326.72 176.63 326.66 176.48 326.6 176.31 326.56 176.16 326.54 176.02 326.53 175.81 326.55 175.61 326.59 175.36 326.68 175.09 326.83 174.82 326.99 174.62 328.57 172.16 332.55 175.77 337.63 168.95 333.57 164.35 333.98 163.71 336.29 159.97 336.59 159.34 333.31 157.23 333.27 157.2 337.94 150.76 337.97 150.71 341.59 145.37 340.2 143.65 337.59 140.96 340.02 137.21 340.06 137.07 337.83 135.99 336.61 135.53 336.53 135.52 336.82 134.52 336.97 134.3 337.37 133.7 342.41 127.03 345.23 129.21 347.64 126.03 350.15 122.74 348.97 121.77 350.97 118.98 350.72 118.8 347.86 116.73 349.19 114.15 349.22 114.08 348.75 113.93 348.83 113.29 348.88 112.85 348.87 112.5 348.79 112.2 348.69 112 348.52 111.76 348.3 111.52 348.23 111.46 348.08 111.3 347.81 111.09 347.41 110.86 347.05 110.67 346.91 110.61 346.62 110.5 349.38 105.98 349.9 105.12 350.86 103.55 351.76 102.07 353.25 99.55 357.82 91.79 358.06 91.39 358.62 91.11 359.01 91.08 357.22 101.12 355.67 109.78 355.3 109.55 352.91 108.11 351.75 110.03 350.61 111.92 350.43 112.2 353.99 114.33 353.6 116.91 353.06 120.49 353.9 121.29 353.89 121.7 353.92 122.77 354.02 123.94 354.16 125 354.35 126.05 354.4 126.27 354.59 127.09 354.8 127.84 356.62 132.37 358.43 130.01 358.63 129.77 364.82 134.22 361.23 140.02 360.2 141.75 360.33 142.01 361.03 143.26 361.44 144 364.97 149 365.29 149.36 364.38 151.35 363.98 152.22 364.13 154.58 362.88 154.65 362.72 155.02 362.6 155.3 362.39 155.81 362.17 156.32 361.45 157.98 360.98 159.07 360.86 159.35 359.98 161.26 359.13 163.12 358.39 164.77 359.69 163.72 359.73 163.76 359.89 164.43 359.14 164.63 359.21 164.72 358.09 165.6 358.03 165.52 357.83 165.96 357.05 167.75 356.84 168.22 356.63 168.7 356.36 169.31 356.22 169.63 356.07 169.99 354.47 173.62 353.34 176.21 353.07 176.8 350.24 183.11 349.34 185.1 348.33 187.35 343.36 198.69 342.85 199.81 342.5 200.58 340.1 205.82 339.52 207.12 338.5 209.34 335.92 214.99 334.83 217.38 334.34 218.47 331.76 224.18 330.45 227.09 329.49 229.45 328.93 230.81 329.3 230.99 329.68 231.17 332.16 232.4 332.63 232.63 333.79 233.2 334.93 233.77 337.04 234.81 338.05 235.29 339.39 235.95 345.93 239.18 347.98 240.19 349.11 240.74 351.64 241.99 355.39 243.83 358.15 245.19 360.73 246.46 363.03 247.59 365.23 248.68 368.29 250.19 371.24 251.64 374.65 253.32 376.28 254.12 376.68 254.31 377.19 254.57 377.36 254.65 377.49 254.71 377.69 255.01 378.43 256.08 378.96 256.86 380.82 259.57 381.51 260.59 388.99 271.51 389.18 271.78 389.53 272.3 389.96 272.92 390.36 273.51 390.93 274.34 391.18 274.69 392.25 275.94 394.47 279.52 396.05 281.83 398.43 285.28 398.6 285.53 399.17 286.37 399.51 286.87 400.7 288.6 402.57 291.33 404.45 294.08 404.81 294.6 405.72 295.93 406.53 297.11 407.48 298.49 408.34 299.76 410.29 302.61 411.17 303.89 410.18 306.4 409.22 308.85 410.43 309.3 409.85 310.77 408 315.46 410.47 316.42 413.04 317.42 411.85 320.47 414.58 322.27 412.69 327.09 416.8 328.67 413.07 336.91 417.13 338.48 413.75 347.13 409.98 345.63 406.27 344.15 404.5 349.06 404.45 349.24 403.47 352.85 405.91 353.81 407.45 354.42 410.44 355.61 409.74 357.49 411.91 359.44 413.5 360.88 414.01 361.32 415.49 357.61 415.58 357.64 417.83 358.5 417.92 358.54 420.47 359.51 421.33 357.33 423.73 351.19 423.7 350.98 423.65 350.75 423.44 348.42 423.47 346.09 423.75 343.77 424.3 341.34 425.39 341.82 425.44 341.84 426.42 342.25 426.59 342.32 427.32 342.63 428.41 342.98 429.36 343.24 431.1 343.37 431.43 343.39 432.08 343.5 433.19 343.85 434.25 344.21 434.42 344.27 435.36 344.65 435.8 344.83 436.09 345.01 436.16 345.06 436.3 345.14 436.89 345.77 437.19 346.16 437.33 346.34 437.65 346.6 439.52 347.31 442.13 348.33 441.31 350.56 438.82 357.35 441.14 358.2 443.72 359.15 442.65 361.95 440.25 367.91 442.26 368.44 442.88 368.6 444.51 368.98 445.42 369.06 448.74 361.04 448.76 360.99 452.21 352.24 454.65 353.18 451.32 361.92 454.75 363.17 454.61 365.46 457.48 365.55 457.25 368.85 457.23 369.44 459.89 369.52 462.87 369.62 463.04 365.72 465.86 365.8 465.82 369.48 465.86 369.67 465.87 369.72 466.94 371.68 467.87 373.37 467.91 373.45 468.36 372.15 468.39 371.87 469.23 363.62 469.24 363.57 469.49 361.27 470 356.63 472.64 356.82 471.83 363.56 471.82 363.66 471.4 373.25 473.9 371.77 474.07 371.7 476.58 370.66 477.02 370.48 478.42 370.1 479.75 369.79 480.04 369.77 480.66 369.72 480.12 373.08 479.91 374.94 479.25 380.61 479.24 380.7 479.22 380.82 479.2 381.07 478.99 382.85 478.96 383.04 478.94 383.2 478.97 383.82 479.26 391.45 479.35 391.79 479.44 392.11 480.08 394.36 480.5 395.84 481.82 400.49 485.62 413.9 490.49 425.47 490.88 425.85 490.08 426.49 488.24 427.97 487.65 428.46 486.92 429.14 486.2 429.89 484 432.08 482.44 433.71 481 433.29 481.22 432.18 481.58 431.39 484.64 428.56 485.15 428.09 483.22 427.29 479.78 426 479.6 426.66 479.08 428.6 478.05 432.48 477.61 434.1 477.08 435.86 479.54 436.43 479.92 436.52 479.12 437.45 478.17 438.59 477.55 439.34 474.63 443.26 472.45 446.17 472.07 445.86 471.67 445.53 471.25 445.38 469.93 448.59 469.85 448.71 469.02 449.8 466.93 448.96 468.77 444.42 465.01 443.03 463.66 446.24 463.15 447.45 462.31 449.43 457.92 447.71 456.3 447.08 457.59 443.85 455.26 442.94 453.9 446.14 453.82 446.35 452.8 448.67 450.81 453.17 449.17 456.91 448.78 457.62 453.23 459.4 457.58 461.14 457.52 461.29 459.6 462.23 460.11 462.47 460.83 462.79 459.34 464.77 458.87 465.52 465.49 468.05 467.8 469.26 474.48 472.75 474.21 473.64 480.5 476.44 479.49 479.14 479.07 480.27 478.55 481.67 477.56 484.33 476.38 486.84 484.47 490.51 485.44 487.89 486.42 485.25 487.39 482.62 488.37 479.98 489.38 477.27 489.44 477.29 493.98 479.4 495.27 476.03 499.8 477.78 499.77 477.88 498.4 481.41 497.4 484.03 496.38 486.66 495.38 489.27 495.27 489.54 494.36 491.91 492.07 497 499.41 495.65 501.71 495.23 502.21 495.14 502.85 495.02 503.56 494.89 504.82 494.6 506.06 494.25 507.42 493.79 507.69 493.69 507.99 493.58 508.63 493.33 509.88 492.77 510.17 492.62 510.96 492.23 511.63 491.86 511.97 491.68 512.34 491.45 513.07 491 514.14 490.28 520.37 485.59 519.26 483.85 517.63 481.66 516.17 479.69 515.51 478.81 514.03 476.81 512.7 475.02 519.48 470.02 519.94 470.62 526.21 466.01 527.75 468.1 529.33 470.23 530.92 472.39 537.23 467.78 538.31 469.08 538.73 469.66 539.8 471.11 540 471.38 540.22 471.68 540.4 471.93 540.62 472.23 541.89 473.97 543.49 476.26 544.59 477.76 545.1 476.63 545.38 476.02 546.14 474.32 548.21 469.73 548.21 469.41 548.25 469.24 548.23 469.06 548.16 468.9 547.82 468.41 547.05 467.37 546.83 467.08 546.66 466.86 549.09 465 550.46 463.97 552.56 462.4 554.45 460.99 556.04 459.8 556.26 459.63 556.57 459.4 557.42 458.77 557.51 458.84 557.68 458.97 557.99 459.21 558.25 459.41 558.88 460.13 559.12 460.4 559.97 461.99 560.74 463.56 561.01 464.21 561.34 465.42 561.44 466.08 561.48 466.85 561.45 467.37 561.33 468.32 561.61 467.71 561.99 467.05 562.42 466.42 562.91 465.83 563.44 465.28 564.01 464.78 564.63 464.33 565.28 463.93 565.82 463.65 566.38 463.41 566.96 463.21 567.54 463.04 568.14 462.91 568.75 462.83 569.51 462.77 570.27 462.79 570.88 462.84 571.18 462.89 571.63 463 572.37 463.16 572.81 463.3 575.09 463.98 575.46 464.1 575.78 464.19 576.59 464.43 576.66 464.45 577.36 464.67 578.46 465.02 578.65 465.07 579.43 465.31 584.23 466.92 589.14 468.74 589.69 468.98 590.96 469.46 595.55 470.92 599.03 471.9 605.03 473.88 607.93 474.47 606.82 481.6 608.04 489.57 610.04 500.69 610.31 501.31 611.83 504.67 613.34 508.03 614.33 510.21 615.31 512.39 618.97 520.51 619.34 521.34 619.78 520.97 620 520.79 Z"
       id="path2"
       style="fill:#3933e5;fill-opacity:1;stroke:#ffffff;stroke-opacity:1" />
    <path
       d="M 627.56 556.66 627.6 556.4 627.73 555.62 627.92 551.67 627.82 546.72 627.28 542.96 625.89 538.31 624.16 531.88 622.08 525.94 621.21 523.78 620 520.79 644.65 500.31 651.81 494.35 656.89 490.13 657.09 490.02 657.1 489.92 667.63 467.87 670.34 462.21 671.79 458.04 671.88 457.78 671.93 457.64 672 457.48 672.89 455.27 682.7 430.79 684.64 428.28 684.81 428.05 690.31 422.86 698.07 415.99 701.83 417.62 710.19 422.99 710.35 423.09 710.46 423.17 710.54 423.23 710.84 423.43 721.19 430.54 721.56 430.66 721.7 430.7 727.17 432.48 730 433.36 732.65 434.17 733.77 431.54 733.16 431.36 733.69 429.87 728.47 428.12 726.36 427.28 725.06 426.42 725.39 426.02 726.77 424.41 727.8 423.03 727.98 422.74 728.4 422.04 728.85 421.28 729.23 420.72 729.5 420.28 729.73 419.95 729.81 419.87 730.04 419.61 730.29 419.4 730.51 419.26 730.77 419.11 731.16 418.96 731.48 418.88 731.91 418.83 732.3 418.83 732.55 418.87 732.73 418.89 733.1 418.99 734.66 419.58 736.4 420.23 737.14 420.5 737.47 420.59 737.63 420.64 737.91 420.73 738.26 420.74 738.6 420.7 738.76 420.67 739.04 420.6 739.33 420.49 739.76 420.26 740.06 420.03 740.31 419.73 740.51 419.48 741.13 417.89 742.61 418.43 744.98 419.31 746.1 419.72 748.7 420.69 748.2 421.34 747.14 424.24 746.24 426.68 745.3 429.23 749.23 430.86 751.91 431.58 754.74 432.37 757.35 433.1 759.42 428.38 759.47 428.18 761.38 428.73 761.32 428.98 761.06 430.16 760.97 431.39 760.54 432.35 759.91 433.79 757.38 439.58 756.57 441.29 759.42 442.06 759.45 442 759.79 441.67 761.14 440.68 761.23 440.65 761.89 440.44 762.73 440.44 763.61 440.56 768.48 441.38 769.06 441.28 769.47 441.1 769.82 440.85 769.91 441.14 770.01 441.48 769.77 443.58 769.41 443.98 770.06 444.04 772.51 444.71 772.81 444.75 775.58 445.13 778.15 445.5 778.3 445.25 778.39 445.08 778.62 444.75 779.15 443.95 779.81 442.98 780.42 442.27 781.47 440.43 781.61 440.17 782.13 439.31 782.55 438.27 782.83 437.32 783.27 437.7 785.9 435.8 787.13 434.91 787.33 434.77 787.89 435.7 789.1 437.7 791.34 441.25 793.36 438.95 796.36 441 795.34 442.47 793.79 444.97 794.32 445.79 795.1 447.08 795.21 447.34 795.32 447.57 796.28 451.35 796.56 452.43 796.88 453.68 797.11 454.21 799 456.65 798.64 457.95 798.04 459.96 797.81 460.56 797.6 461.11 797.51 461.36 797.48 461.42 797.23 462.08 796.28 463.95 794.99 466.58 794.05 468.57 793.1 470.54 792.91 471 789.84 469.75 786.52 468.31 785.01 467.63 783.65 466.92 782.74 466.12 782.04 464.89 781.63 463.73 781.36 462.75 781.32 462.49 781.18 461.56 781.18 460.74 781.29 460.14 778.65 462.99 781.3 466.3 782.74 466.91 780.12 469 780.18 469.27 780.11 469.58 778.95 471.02 778.84 471.15 782.22 473.67 782.48 473.97 782.57 474.32 782.58 474.63 782.45 474.96 782.23 475.5 782.64 475.66 782.9 475.76 786.04 477 786.27 477.08 789.8 478.47 790.49 478.74 792.23 479.42 794.89 480.46 795.04 480.53 795.28 480.63 795.56 480.75 795.74 480.83 795.04 483.46 794.48 485.44 794.29 486.34 794.58 486.39 794.97 486.46 795.46 486.54 795.21 488.47 795.1 489.21 794.7 491.84 794.47 494.61 794.83 497.44 794.58 497.69 794.44 497.82 794.16 498.09 794.06 498.19 793.79 498.44 793.73 498.5 793.51 498.71 792.99 499.2 791.77 500.36 791.29 500.81 788.26 503.69 784.83 506.87 782.83 508.73 781.4 510.1 777.93 513.42 779.87 515.46 776.51 518.61 774.6 516.6 772.34 518.76 771.67 519.38 768.04 522.7 765.79 524.85 761.65 528.79 755.22 534.94 748.51 541.37 750.73 543.8 751.07 544.17 752.23 545.44 752.43 545.66 752.93 546.22 753.18 546.47 753.35 546.64 752.52 547.17 751.71 547.68 748.71 549.42 746.99 550.42 746.63 550.63 741.58 553.57 738 555.88 736.74 556.64 735.95 557.11 735.25 557.57 735.05 557.72 734.65 558.02 734.05 558.54 733.57 559.02 733.41 559.2 733.07 559.58 731.91 560.79 730.02 562.76 729.67 563.13 728.72 564.07 723.56 569.2 722.85 569.9 721.47 571.28 720.43 572.33 714.26 578.5 705.86 587.31 705.03 588.17 703.66 589.58 701.46 591.84 699.31 594.04 692.34 601.19 688.62 605 687.28 606.4 684.86 608.92 684.71 609.08 684.13 609.68 681.18 607.8 677.61 605.54 674.86 604.28 674.98 604.09 675.13 603.85 675.54 603.2 676.31 601.97 673.2 600.06 672.16 599.42 671.65 599.1 669.53 597.8 667.19 596.36 666.54 595.97 666.26 596.06 666.2 595.76 664.75 595.11 663.68 594.43 663.25 594.16 662.95 593.98 662.87 593.92 662.92 593.85 663.85 592.59 664.03 592.32 664.35 591.83 664.55 591.52 664.81 591.09 665.06 590.36 665.33 589.5 665.31 589.11 665.26 588.77 665.2 588.48 665.07 588.04 664.91 587.62 664.16 586.04 663.91 585.55 663.78 585.22 662.62 582.98 662.22 582.2 661.68 581.13 660.93 579.65 660.37 578.57 660.28 578.3 660.19 577.92 660.16 577.72 660.13 577.44 660.12 577.2 658.02 575.88 653.44 572.98 652.02 572.09 650.22 570.95 649.71 570.63 649.45 570.47 646.63 568.69 646.41 568.55 646.37 568.52 645.57 568.02 645.5 567.97 645.43 567.93 642.83 566.29 639.68 564.3 636.31 562.18 632.9 560.03 629.69 558 627.56 556.66 Z"
       id="path4"
       style="fill:#584cde;fill-opacity:1;stroke:#ffffff;stroke-opacity:1" />
    <path
       d="M 105.34 504.75 105.34 504.75 105.3 504.05 105.27 503.76 105.27 503.75 105.26 503.69 105.25 503.6 105.24 503.53 105.18 503.04 105.15 502.85 105.12 502.62 105.12 502.59 105.34 502.38 105.82 501.81 106.15 501.37 106.28 501.19 106.28 501.19 106.42 500.95 106.57 500.7 106.58 500.69 106.66 500.59 106.76 500.48 106.92 500.35 107.19 500.11 107.45 499.9 108.02 499.52 108.09 499.47 108.52 499.17 108.8 499 108.89 498.95 108.96 498.91 108.97 498.9 109.13 498.8 109.98 499.06 110.45 498.87 110.69 498.77 110.69 498.77 110.69 498.77 111.05 497.67 111.2 497.49 111.43 497.24 111.92 496.92 112.13 496.78 112.47 496.53 112.51 496.49 112.75 496.29 112.86 496.16 112.96 496.05 113.06 495.89 113.14 495.79 113.39 495.48 113.39 495.48 113.39 495.47 113.4 495.39 113.6 493.75 113.6 493.73 113.68 493.63 113.74 493.56 113.78 493.52 113.85 493.48 113.88 493.46 114.91 492.97 115.04 492.83 115.07 492.78 115.11 492.72 115.11 492.72 115.11 492.72 115.15 492.61 115.11 492.55 115.04 492.5 114.47 492.2 114.28 491.92 114.3 491.78 114.37 491.59 114.53 491.3 114.64 491.1 114.7 490.99 114.87 490.68 114.98 490.6 115.05 490.56 115.11 490.53 115.22 490.54 115.23 490.54 115.33 490.62 115.41 490.71 115.55 490.81 115.69 490.85 115.72 490.83 115.78 490.79 115.82 490.73 115.84 490.71 115.9 490.63 115.93 490.51 115.95 490.44 115.98 490.24 116 490.12 116 489.93 116 489.91 115.96 489.73 115.86 489.54 115.72 489.4 115.59 489.33 115.4 489.25 115.24 489.21 115.08 489.17 115.02 489.16 115.01 489.16 114.74 489.05 114.32 488.91 114.19 488.65 114.19 488.54 114.19 488.49 114.2 488.45 114.27 488.24 114.32 488.13 114.43 487.93 114.56 487.75 114.73 487.58 114.79 487.53 114.91 487.43 115.04 487.29 115.15 487.21 115.25 487.13 115.36 487.06 115.42 487.02 115.48 487 115.58 486.95 115.76 486.88 115.76 486.88 116.28 486.83 116.28 486.83 116.99 486.88 117.13 486.79 117.22 486.64 117.28 486.33 117.3 485.85 118.05 484.91 118.05 484.91 118.05 484.91 118.18 484.66 118.19 484.65 118.43 484.28 118.52 483.75 118.6 483.57 118.75 483.44 118.75 483.44 118.9 483.44 119.11 483.44 119.47 483.4 119.48 483.4 119.48 483.4 119.82 483.26 120.24 483.09 120.26 483.09 120.74 482.93 120.82 482.9 121.12 482.76 121.19 482.72 121.35 482.65 121.53 482.58 121.89 482.5 121.91 482.5 122.09 482.49 122.23 482.49 122.61 482.54 122.91 482.66 122.95 482.67 122.96 482.68 123.26 482.82 123.46 482.83 123.49 482.83 123.66 482.81 124.04 482.76 124.32 482.66 124.57 482.58 124.65 482.55 124.89 482.47 125.16 482.38 125.24 482.36 125.37 482.33 125.77 482.23 126.05 482.15 126.13 482.13 126.3 482.09 126.54 482.04 126.89 481.98 127.3 481.92 127.41 481.91 127.53 481.9 127.59 481.9 127.86 481.89 128.18 481.88 128.36 481.86 128.36 481.86 128.36 481.86 128.53 481.81 128.64 481.74 128.67 481.72 128.86 481.57 129.06 481.4 129.31 481.32 129.32 481.31 129.34 481.31 129.79 481.28 130.26 481.2 130.62 481.1 130.65 481.09 130.88 480.99 130.94 480.94 131.03 480.88 131.24 480.63 131.34 480.43 131.46 480.22 131.51 480.12 131.54 480.03 131.61 479.92 131.66 479.83 131.68 479.81 131.77 479.68 131.84 479.58 132.05 479.4 132.16 479.32 132.39 479.14 132.42 479.12 132.62 478.99 132.74 478.92 132.85 478.86 133 478.79 133.21 478.72 133.42 478.71 133.53 478.8 133.64 479.01 133.72 479.37 133.82 479.76 133.95 479.97 134.04 480.04 134.17 480.08 134.62 480.07 134.99 480.05 135.71 480.02 135.89 480.01 136 480 136.38 479.95 136.39 479.95 136.81 479.86 136.91 479.82 137 479.78 137.09 479.74 137.23 479.63 137.62 479.29 137.85 479.09 138.04 478.95 138.44 478.64 139.61 479.1 146.98 481.99 147.51 482.22 148.88 482.79 149.16 482.91 149.75 483.16 151.63 483.98 153.93 484.95 156.08 485.85 158.46 486.88 162.6 488.44 163.94 488.94 165.16 489.39 166.44 489.85 167.23 490.16 168.28 490.57 169.8 491.11 171.65 491.82 172.55 492.15 174.69 492.91 174.95 493.03 177.34 493.93 177.5 493.98 177.7 494.06 180.39 495.06 181.07 495.31 181.16 495.34 182.21 495.73 184.43 496.54 185.94 497.13 186.97 497.51 187.31 497.63 187.38 497.66 187.98 497.88 188.2 497.96 188.8 498.19 189.2 498.33 189.27 498.36 191.83 499.34 193.51 499.98 204.1 504.09 204.93 504.41 205.27 504.54 205.82 504.76 209.2 506.07 211.79 507.06 214.29 508.03 216.86 509.03 217.42 509.25 222.88 511.37 223.11 511.34 223.25 511.34 223.47 511.42 224.25 511.72 224.81 511.93 224.87 511.96 225.12 512.02 229.93 513.18 232.57 513.81 255.85 519.19 264.3 521.03 273.06 523 279.51 524.57 282.52 525.18 289.9 526.91 300.6 529.39 303.13 529.96 303.68 530.09 303.94 530.15 305.88 530.59 305.89 530.59 306.44 530.72 307.58 530.98 309.19 531.35 309.19 531.35 312.48 532.09 312.49 532.09 313.04 532.21 313.04 532.21 315.63 532.78 316.15 532.92 318.27 533.42 318.27 533.42 318.81 533.54 318.81 533.54 320.15 533.85 320.7 534.37 321.08 534.73 322.61 536.18 322.61 536.18 322.99 536.54 322.99 536.54 324.51 537.98 324.51 537.98 326.43 539.69 326.81 540.05 329.85 542.93 330.3 543.36 335.95 548.67 341.42 553.81 341.87 554.23 345.63 557.77 345.73 557.87 345.94 558.58 346.91 561.99 347.23 563.13 356.59 596.05 356.59 596.05 355.6 596.07 347.75 596.25 340.53 602.9 340.56 603.12 340.62 603.98 340.77 605.85 340.79 606.92 340.8 607.17 340.85 608.54 341.07 611.46 340.93 611.73 339.77 614 337.7 618.12 337.27 618.94 335.66 622.16 333.97 625.48 332.87 627.66 332.48 628.4 331.19 630.97 331.11 631.12 331.08 631.18 330.17 632.98 329.28 634.75 329.21 634.89 327.97 637.31 326.36 640.5 324.49 644.17 323.33 646.47 321.58 649.89 320.13 652.79 319.51 654.03 319.47 654.11 319.24 654.56 319.39 654.65 319.46 654.7 319.66 654.85 319.89 655.05 319.72 655.04 319.55 655.02 319.37 655.01 319.1 654.98 318.84 654.96 317.55 654.83 314.9 654.56 314.2 654.44 313.38 654.32 312.75 654.23 312.36 654.18 312.03 654.14 311.66 654.12 311.29 654.14 311.25 654.09 309.76 651.91 309.38 652.21 309.02 652.54 308.71 652.26 307.71 653.11 309.08 654.45 309.85 655.2 310.25 655.59 306.46 658.54 302.97 657.47 301.66 659.56 301.48 659.85 301.34 660.07 300.79 660.96 300.5 660.82 297.85 659.68 297.75 659.81 296.99 660.84 296.46 661.59 296.2 661.98 296.01 662.31 295.25 663.72 295.18 663.97 294.89 665.05 294.8 665.99 294.72 666.97 294.68 667.48 294.67 667.57 294.54 667.43 291.97 664.8 289.27 661.94 288.77 661.51 287.56 660.25 285.76 658.42 285.61 658.26 286.22 657.42 286.32 657.28 285.08 656.34 281.19 653.41 283.77 649.01 283.02 648.49 282.56 648.17 281.63 647.53 278.81 651.56 278.46 651.32 276.51 655.96 274.87 659.73 274.21 661.25 273.67 662.49 272.28 661.89 272.21 661.86 271.95 661.75 271.79 662.11 271.71 662.29 270.97 664.04 270.27 663.6 268.03 662.17 267.47 661.82 267.33 662.02 266.56 663.18 266.45 663.3 265.28 665.02 265.11 664.95 264.13 664.55 261.91 663.67 260.47 663.09 259.4 662.85 259.14 662.79 258.1 662.56 256.45 662.38 256.25 662.36 253.25 662.04 253.09 662.02 251.71 661.87 251.37 661.86 251.25 661.85 250.97 661.92 245.76 664.2 245.44 664.36 244.27 664.98 243.08 665.55 242 666.1 241.46 666.38 240.84 666.69 240.37 666.93 239.94 667.16 239.02 667.67 237.71 668.38 237.67 668.4 236.58 668.98 234.67 670.03 231.52 671.71 228.9 673.09 228.46 673.42 229.14 673.9 232.04 675.83 232.17 675.92 234.41 677.38 236.68 678.85 237.28 679.24 237.57 679.43 238.11 679.79 239.56 680.71 242.18 682.45 243 683.06 243.13 683.18 244.25 684.17 244.7 684.63 245.41 685.41 245.83 686 246.02 686.4 246.69 687.79 247.81 690.14 248.56 691.71 248.71 692.16 248.75 692.29 248.79 692.48 248.83 692.72 249.38 695.93 249.44 696.23 249.48 696.5 249.5 696.81 249.95 699.59 253.95 698.83 255.29 698.57 255.75 698.48 255.99 698.7 258.2 700.63 258.6 700.98 259.39 701.67 259.84 702.06 263.2 705 267.77 709 271.29 712.07 271.35 712.12 273.08 713.63 278.83 718.66 279.66 719.38 279.91 719.6 280.71 720.83 282.29 723.22 285.02 727.38 288.16 732.18 288.29 732.07 289.25 731.32 290.09 730.66 290.61 730.33 290.91 730.61 292.66 732.19 294.73 734.07 296.65 735.8 296.82 735.96 298.74 737.7 301.24 739.96 302.94 741.57 306.54 744.57 309.25 746.99 312.26 749.66 315.59 752.62 316.1 753.08 316.24 753.21 316.58 753.5 316.83 753.73 321.86 758.28 323.17 759.46 326.04 762.07 328.12 763.92 328.42 764.26 328.58 764.44 330.94 766.57 331.84 767.39 333.22 768.6 335.23 770.37 336.3 771.31 337.09 772.01 337.32 772.21 336.85 772.23 335.51 772.32 334.31 772.49 333.49 772.63 332.73 772.81 331.8 773.06 330.92 773.34 329.62 773.82 328.79 774.19 326.83 775.02 326.23 775.3 321.76 777.2 320.78 776.44 320.47 776.32 319.51 776.11 319.26 776.04 316.46 773.49 314.86 775.29 317.95 778.06 315.65 778.51 314.95 778.72 313.79 779.04 312.43 779.16 311.86 778.66 308.51 775.7 307.22 777.1 309.72 779.4 307.3 779.61 305.95 779.73 304.89 779.73 305.4 779.08 305.97 778.46 305.19 777.6 304.8 777.2 304.05 776.59 302.02 775.24 300.58 777.52 298 781.6 294.36 787.26 293.76 788.23 292.84 789.76 292.48 789.66 292.35 789.63 291.98 789.53 291.4 789.38 290.63 789.17 286.15 787.63 281.64 785.9 276.47 783.84 274.8 783.18 270.92 781.65 268.36 784.94 257.02 799.24 255.56 801.06 254.84 800.46 251.56 804.6 249.13 802.66 247.05 800.97 246.17 800.25 245.64 799.86 243.13 797.98 238.22 804.23 235.41 801.99 233.15 800.18 230.92 798.4 229.21 800.52 225.73 798.02 227.55 795.71 225.51 794.09 223.92 792.84 221.18 796.25 219.19 798.74 219.13 798.81 212.74 806.92 212.65 807.03 216.32 809.96 212.71 814.49 211.96 815.43 210.98 816.66 209.23 818.85 207.52 820.99 205.89 823.03 204.22 825.13 202.52 827.25 200.92 829.26 199.91 830.53 199.22 831.41 197.58 833.52 196.01 835.53 195.63 836.01 195.07 835.96 194.73 835.94 193.45 835.86 191.81 835.75 189.87 835.63 189.66 835.62 188.6 835.43 186.92 834.81 183.33 832.78 178.88 830.26 177.68 832.71 176.12 834.81 173.83 837.53 171 840.18 170.39 840.75 170.19 840.94 170.12 841 165.32 835.21 164.32 833.99 163.68 833.26 163.03 832.46 158.11 826.67 155.2 823.41 153.39 821.41 153.17 821.16 151.55 819.37 148.39 815.86 146.85 814.15 142.22 809.02 140.87 807.52 139.95 806.49 140.46 805.99 142.62 803.97 144.36 802.31 144.46 802.2 144.26 801.83 144.04 801.38 143.91 801.14 143.81 800.95 143.7 800.75 142.34 798.21 139.98 793.79 139.56 793.25 139.25 793 138.68 792.53 135.25 790.1 134.71 789.72 134.13 789.25 133.71 788.79 133.29 788.19 133.26 788.13 133.06 787.74 132.69 788.05 132.24 787.82 131.79 787.6 131.33 787.41 130.86 787.24 130.37 787.1 129.84 786.97 128.9 786.8 127.96 786.81 127.89 786.82 127.85 786.82 127.12 786.88 126.71 786.92 126.27 787.02 125.63 787.16 125.39 787.22 125.06 787.29 123.26 788.03 122.29 788.42 121.31 788.82 118.5 790.03 117.69 790.38 116.66 790.67 116.35 790.71 116.03 790.75 115.3 790.77 114.76 790.76 114.15 790.76 113.59 790.82 112.98 790.92 112.39 791.1 111.15 791.63 110.14 792.06 107.6 793.46 106.2 794.58 105.05 795.67 104.23 796.41 99.31 800.87 97.46 802.54 96.38 803.43 93.1 806.11 92.45 806.52 91.65 806.91 90.92 807.2 90.58 807.34 88.92 807.91 88.21 808.23 87.75 808.45 86.41 809.3 85.22 810.17 84.21 811.19 83 810.23 79.46 807.44 68.22 798.58 67.99 798.37 67.37 797.9 67.18 797.77 65.74 796.66 63 794.42 62.35 793.95 61.37 793.19 61.09 792.97 60.96 792.87 59.91 792.06 57.24 790.01 55.43 788.63 54.31 787.77 53.08 786.82 51.5 785.63 48.59 783.4 46.46 781.74 44.26 780.06 42.41 778.69 41.72 778.14 36.66 774.18 32.32 770.8 31.66 770.29 27.97 767.41 26.56 766.34 25.07 765.17 24.75 764.92 22.99 763.54 22.18 762.9 18.99 760.4 18.15 759.74 13.99 758.08 12.43 757.42 9.58 756.23 8.86 755.92 4.31 754.01 3.85 753.81 1 752.61 2 751.32 4.53 748.02 5.61 746.65 5.35 746.43 5.19 745.56 5.12 745.15 5 744.4 5.12 744.14 5.26 743.87 6.8 740.72 8.62 736.94 8.77 736.61 8.46 736.36 10.27 733.5 10.86 732.26 13.04 727.77 15.47 722.76 15.55 722.69 19.02 722.12 19.6 722.03 22.87 721.49 22.22 718.05 22.1 717.44 21.34 713.56 21.02 711.57 20.59 708.91 20.56 708.77 20.47 708.18 20.4 707.77 19.87 704.6 19.54 702.51 19.65 702.18 19.75 702.25 19.8 702.09 23.35 691.73 23.27 691.32 24.48 687.63 25.21 685.49 25.73 683.93 23.2 682.73 23.65 681.54 25.14 677.9 28.01 677.12 28.16 676.67 28.33 676.19 28.61 675.34 29.66 672.19 30.65 669.22 31.23 667.48 31.62 666.32 31.58 665.96 30.19 655.75 30.36 655.72 30.85 655.69 31.35 655.68 31.84 655.71 32.33 655.76 32.82 655.83 33 654.14 33.31 651.2 33.39 650.61 33.45 650.08 33.53 649.38 33.58 648.84 35.48 648.5 37.6 648.12 48.3 646.21 61.55 643.83 64.14 643.37 68.03 642.67 68.03 642.45 68.03 642.35 68.74 639.82 68.41 638.74 68.62 637.93 72.82 636.44 73.59 636.66 74.57 636.93 75.77 636.79 75.95 636.76 76.36 636.53 76.74 636.31 76.87 636.23 77.19 636.05 77.37 635.94 77.77 635.7 78.22 634.83 78.3 634.67 78.22 634.71 78.12 634.74 77.87 635 77.56 635.27 77.28 635.61 76.9 635.81 76.55 635.83 76.26 635.75 76.2 635.65 76.1 635.48 76 635.13 75.87 634.83 75.57 634.6 75.16 634.57 74.58 634.73 74.35 634.66 73.97 634.34 73.74 634.06 73.68 633.8 73.82 633.47 74.15 633.21 74.38 633.06 75.11 632.59 75.26 632.46 75.43 632.29 75.55 632.16 75.93 631.6 76.04 631.45 76.24 631.23 76.44 631.04 76.61 630.87 77.06 630.48 77.97 629.86 78.1 629.75 78.15 629.69 78.17 629.64 78.19 629.51 78.19 629.47 78.17 629.37 78.08 629.15 77.98 629 77.78 628.71 77.65 628.56 77.5 628.38 77.24 628.1 76.96 627.75 76.85 627.6 76.77 627.5 76.7 627.4 76.37 626.96 76.29 626.87 76.17 626.76 76.04 626.68 75.89 626.61 75.54 626.47 74.3 626.05 71.41 624.91 70.4 624.47 69.35 623.91 68.75 623.6 67.99 623.13 67.52 622.82 67.26 622.62 67.12 622.5 66.95 622.34 66.7 622.06 66.63 621.95 66.49 621.79 66.37 621.64 66.15 621.29 66.03 621.13 65.9 620.9 65.82 620.67 65.1 618.32 65.01 618 64.88 617.45 64.75 616.89 64.73 616.78 64.61 616.15 64.55 615.65 64.36 613.67 64.28 613.41 64.22 613.23 64.08 612.96 63.96 612.8 63.84 612.67 63.58 612.44 63.51 612.36 63.45 612.28 63.42 612.22 63.39 612.11 63.37 611.98 63.34 611.65 63.32 611.36 63.33 611.14 63.37 610.86 63.43 610.42 63.5 610.09 63.55 609.94 63.61 609.72 63.73 609.39 63.78 609.23 63.8 609.12 63.83 608.87 63.86 608.07 63.92 607.66 63.94 607.47 63.96 607.31 64.02 606.75 64.01 606.1 63.97 605.68 63.91 605.28 63.82 604.84 63.76 604.64 63.66 604.38 63.46 603.88 63.22 603.34 63.1 603.07 62.93 602.71 62.79 602.33 62.69 602 62.6 601.52 62.56 601.1 62.57 600.86 62.62 600.56 62.66 600.38 62.77 600.13 62.9 599.97 63.13 599.78 63.31 599.65 63.56 599.5 64.07 599.24 64.32 599.19 65.35 598.97 65.87 598.91 66.56 598.87 67.03 598.82 67.94 598.57 68.2 598.52 68.54 598.43 69.04 598.16 69.45 597.93 70.06 597.66 70.35 597.52 70.81 597.31 71.74 596.87 72.14 596.65 72.45 596.44 72.74 596.21 73.09 595.89 73.42 595.52 73.7 595.19 74.02 594.72 74.21 594.36 74.36 593.94 74.44 593.59 74.64 592.71 74.75 591.99 74.8 591.59 74.81 591.52 74.85 591.14 74.91 590.86 75 590.64 75.2 590.32 75.37 590.11 75.71 589.81 76.03 589.6 76.14 589.55 76.64 589.37 76.95 589.3 77.27 589.28 77.39 589.25 77.56 589.17 77.7 589.07 77.85 588.88 78.11 588.53 78.38 587.97 78.57 587.56 78.78 586.9 78.9 586.41 78.98 586.04 79.02 585.8 79.1 585.19 79.12 584.55 79.11 583.96 79.08 583.7 79.01 583.39 78.9 583.07 78.77 582.79 78.6 582.43 78.39 582.09 78.05 581.59 77.4 580.76 77.31 580.67 76.28 579.38 75.82 578.69 75.59 578.3 75.31 577.72 75.18 577.32 75.14 577.17 75.07 576.86 75.03 576.69 74.98 576.37 74.93 576 74.93 575.53 74.97 575.09 75.11 574.62 75.3 574.13 75.66 573.26 75.85 572.87 76.14 572.3 76.34 571.98 76.46 571.8 76.59 571.66 76.78 571.5 77.07 571.23 77.29 570.98 77.49 570.67 77.63 570.36 77.65 570.19 77.63 570 77.57 569.92 77.46 569.83 77.3 569.77 77.12 569.73 76.91 569.71 76.78 569.66 76.67 569.58 76.55 569.46 76.47 569.31 76.4 569.12 76.39 568.93 76.41 568.82 76.46 568.71 76.57 568.55 76.71 568.4 76.97 568.16 77.23 567.93 77.43 567.73 77.49 567.65 77.61 567.44 77.65 567.32 77.7 567.13 77.73 566.94 77.72 566.73 77.69 566.55 77.64 566.42 77.54 566.27 77.35 566.06 77.22 565.91 77.08 565.79 76.91 565.67 76.6 565.51 75.45 565.28 75.21 565.24 75.09 565.22 74.86 565.21 74.59 565.18 74.4 565.12 74.24 564.99 74.04 564.77 73.87 564.57 73.6 564.25 73.54 564.08 73.13 563.56 72.99 563.42 72.72 563.19 72.47 562.98 72.21 562.79 72.03 562.64 71.88 562.51 71.78 562.39 71.68 562.23 71.6 562.12 71.48 561.99 71.34 561.94 71.14 561.92 70.99 561.96 70.81 562.08 70.63 562.2 70.53 562.27 70.43 562.39 70.36 562.47 70.3 562.6 70.27 562.74 70.26 563.02 70.22 563.14 70.15 563.26 70.08 563.26 69.96 563.35 69.7 563.4 69.55 563.4 69.38 563.36 69.06 563.2 68.81 563.02 68.57 562.85 68.38 562.72 67.23 562.2 67.03 562.1 67.08 561.55 67.09 561.39 67.12 561.16 67.1 560.89 67.06 560.75 66.95 560.51 66.77 560.27 66.68 560.15 66.55 559.97 66.42 559.77 66.25 559.35 66.11 559.05 66.01 558.8 65.94 558.57 65.87 558.34 65.85 558.1 65.88 557.83 65.96 557.63 66.02 557.55 66.1 557.47 66.31 557.34 66.51 557.26 66.65 557.22 66.98 557.16 67.58 557.05 67.93 556.96 68.07 556.9 68.16 556.86 68.28 556.79 68.67 556.37 68.88 556.1 69.07 555.85 69.19 555.69 69.56 555.21 69.59 555.17 69.92 554.77 70.18 554.47 70.69 553.85 71.27 553.19 71.76 552.58 72.2 552.1 72.61 551.7 73 551.33 73.47 550.92 73.95 550.57 74.21 550.38 74.83 549.98 75.38 549.63 75.87 549.38 76.09 549.26 76.38 549.13 76.97 548.85 77.56 548.64 78.27 548.43 78.75 548.28 79.17 548.16 80.16 547.76 80.61 547.62 81.71 547.2 82.44 546.92 83.16 546.61 83.99 546.34 84.96 546.07 85.43 545.98 85.75 545.95 86.11 545.94 86.45 545.97 86.69 546.03 86.96 546.12 87.48 546.22 87.72 546.23 88.1 546.21 88.45 546.13 88.97 545.99 89.21 545.95 89.47 545.93 89.67 545.94 90.01 545.99 90.42 546.03 90.79 545.99 91.22 545.91 91.61 545.79 92.46 545.46 92.91 545.34 93.22 545.27 93.64 545.17 94.05 545.05 94.27 544.97 94.38 544.88 94.42 544.82 94.5 544.67 94.54 544.42 94.52 544.12 94.5 543.99 94.36 543.49 94.28 543.18 94.13 542.82 93.88 542.36 93.73 542.13 93.49 541.84 93.34 541.61 93.14 541.23 93.07 541 92.97 540.62 92.92 540.25 92.87 539.71 92.85 539.29 92.83 538.95 92.8 538.47 92.75 538.11 92.59 537.47 92.51 537.06 92.44 536.61 92.41 536.47 92.38 536.19 92.33 535.86 92.28 535.59 92.22 535.32 92.13 535.08 92.02 534.85 91.86 534.57 91.69 534.25 91.6 534.05 91.55 533.82 91.54 533.56 91.55 533.37 91.63 533.09 91.7 532.93 92 532.53 92.13 532.33 92.36 532.04 92.9 531.31 93.33 530.87 93.43 530.8 93.57 530.68 93.7 530.58 94.02 530.43 94.34 530.31 95.28 530.02 95.82 529.85 96.01 529.76 96.57 529.45 97.13 529.1 98.15 528.45 98.7 528.09 99.05 527.83 99.43 527.48 99.61 527.25 99.67 527.17 99.77 527.02 99.86 526.83 99.87 526.78 99.92 526.65 100.09 526.64 100.2 526.64 100.36 526.62 100.53 526.61 100.65 526.53 100.8 526.42 100.97 526.23 101.08 526.07 101.17 525.9 101.2 525.78 101.23 525.64 101.26 525.47 101.3 525.43 101.34 525.4 101.39 525.39 101.47 525.39 101.53 525.42 101.57 525.44 101.62 525.47 101.76 525.58 101.9 525.69 102.02 525.72 102.13 525.73 102.25 525.73 102.46 525.68 102.67 525.62 102.86 525.52 103.08 525.38 103.4 525.16 103.67 524.93 103.86 524.78 103.99 524.66 104.05 524.62 104.12 524.59 104.2 524.58 104.25 524.58 104.53 524.6 104.6 524.61 104.78 524.7 104.86 524.71 104.94 524.7 104.98 524.68 105.22 524.49 105.34 524.36 105.44 524.23 105.67 523.92 105.8 523.75 105.9 523.54 106.01 523.34 106.08 523.16 106.13 522.78 106.14 522.66 106.18 522.35 106.2 522.23 106.2 522.11 106.25 521.95 106.43 521.43 106.54 521.22 106.65 520.95 106.73 520.75 106.78 520.61 106.82 520.37 106.83 520.17 106.86 519.78 106.91 519.22 106.95 518.9 106.93 518.77 106.9 518.68 106.83 518.59 106.71 518.36 106.68 518.23 106.67 518.12 106.66 517.9 106.68 517.6 106.69 517.45 106.73 517.35 106.82 517.25 106.94 517.09 107.06 516.95 107.19 516.78 107.29 516.69 107.5 516.56 107.56 516.5 107.75 516.38 108.51 515.86 108.64 515.74 108.72 515.62 108.76 515.51 108.1 514.02 106.55 510.51 106.14 510.21 105.27 509.57 105.14 509.21 105.02 508.88 104.97 508.75 104.81 508.31 104.68 507.97 104.79 507.49 105.36 505.04 105.35 504.93 105.34 504.75 Z"
       id="path6"
       style="fill:#6674de;fill-opacity:1;stroke:#ffffff;stroke-opacity:1" />
  </g>
</svg>
