<?xml version="1.0" encoding="UTF-8" standalone="no"?>
<svg
   version="1.2"
   width="289.83194"
   height="283.55219"
   viewBox="0 0 289.83194 283.55219"
   stroke-linecap="round"
   stroke-linejoin="round"
   id="svg3657"
   sodipodi:docname="SC-01, 2022 by county.svg"
   inkscape:version="1.2.2 (b0a8486, 2022-12-01)"
   xmlns:inkscape="http://www.inkscape.org/namespaces/inkscape"
   xmlns:sodipodi="http://sodipodi.sourceforge.net/DTD/sodipodi-0.dtd"
   xmlns="http://www.w3.org/2000/svg"
   xmlns:svg="http://www.w3.org/2000/svg">
  <defs
     id="defs3661" />
  <sodipodi:namedview
     id="namedview3659"
     pagecolor="#ffffff"
     bordercolor="#000000"
     borderopacity="0.25"
     inkscape:showpageshadow="2"
     inkscape:pageopacity="0.0"
     inkscape:pagecheckerboard="0"
     inkscape:deskcolor="#d1d1d1"
     showgrid="false"
     inkscape:zoom="1.9149915"
     inkscape:cx="144.90926"
     inkscape:cy="141.77609"
     inkscape:window-width="1440"
     inkscape:window-height="763"
     inkscape:window-x="0"
     inkscape:window-y="25"
     inkscape:window-maximized="1"
     inkscape:current-layer="SC-01 county map" />
  <g
     id="SC-01 county map"
     style="fill:#808080;fill-opacity:1;stroke:#ffffff;stroke-opacity:1"
     transform="matrix(0.36274334,0,0,0.43422998,-0.18137201,-0.21711559)">
    <path
       d="m 504.14,314.81 -1.86,-0.1 -4.15,-2.28 -0.5,-0.46 -0.47,-0.61 -0.27,-1.22 -0.01,-0.12 v -0.12 l -0.05,-0.62 -0.17,-1.72 -0.02,-0.19 0.05,-0.96 0.04,-0.6 0.29,-0.98 0.1,-0.33 0.02,-0.08 0.03,-0.09 0.22,-0.73 0.06,-0.66 -0.01,-0.07 -0.13,-0.97 -0.66,-1.19 -0.9,-0.97 -0.82,-0.59 -0.43,-0.2 -0.25,-0.11 -0.07,-0.02 -1.03,-0.33 -0.21,-0.05 -0.55,-0.13 -0.23,-0.03 -2.26,-0.38 -1.38,-0.21 -0.06,-0.02 -0.02,-0.01 -1.04,-0.33 -1.54,-0.74 -0.54,-0.48 -1.47,-1.84 -0.63,-1.12 -1.4,-4.36 -0.06,-0.28 -0.02,-0.1 -0.03,-0.16 -0.08,-0.42 -0.05,-1.67 0.88,-4.29 0.51,-1.08 0.17,-0.2 0.66,-0.75 1.33,-1.49 0.48,-0.67 0.01,-0.01 0.01,-0.02 1.36,-1.61 2.1,-1.56 -0.27,-0.34 -0.02,-0.03 -0.03,-0.03 -0.73,-0.94 -0.15,0.02 -0.11,0.01 -0.34,0.09 -0.23,0.04 v 0 l -1.07,0.18 -0.38,0.06 -0.21,0.03 -0.53,0.09 -0.15,0.02 -0.23,0.04 -0.3,0.05 -0.65,0.12 -11.71,1.97 -0.13,0.02 -1.01,0.15 -0.97,0.16 -0.21,0.05 -0.86,0.15 -0.28,0.05 -0.08,0.01 -0.34,0.07 -0.31,0.05 -0.14,0.02 -0.11,0.02 -0.38,0.06 -0.06,0.01 -0.31,0.05 -0.44,0.07 -0.07,0.01 -0.15,0.03 h -0.03 l -0.08,0.02 -0.2,0.04 -0.43,0.08 -0.66,0.11 -0.12,0.02 -0.36,0.07 -0.26,0.04 -0.11,0.03 -0.3,0.03 -0.08,0.01 -0.86,0.15 -0.08,0.02 -0.18,0.03 -0.05,0.01 -0.07,0.01 h -0.02 l -0.05,0.01 -0.2,0.03 -0.06,0.01 -0.2,0.05 -0.3,0.09 -0.93,0.06 -0.24,0.04 h -0.02 l -0.06,0.01 -0.08,0.03 -0.4,-0.76 -0.32,-0.6 -0.37,-0.68 -0.02,-0.04 -0.05,-0.09 -0.02,-0.04 -0.01,-0.01 -0.18,-0.35 -0.04,-0.07 -0.02,-0.04 -0.01,-0.01 -0.03,-0.06 -0.06,-0.11 -0.02,-0.05 -0.02,-0.04 -0.08,-0.14 -0.02,-0.05 -0.14,-0.26 -0.39,-0.72 -0.03,-0.05 -0.12,-0.23 -0.02,-0.03 -0.02,-0.04 -0.06,-0.12 -0.02,-0.04 -0.23,-0.43 -0.23,-0.42 -0.16,-0.3 -0.13,-0.23 -0.65,-1.21 -0.07,-0.14 -0.03,-0.06 -0.04,-0.05 -0.09,-0.18 -0.03,-0.06 -0.01,-0.03 -0.01,-0.01 -0.04,-0.07 -0.01,-0.03 -0.04,-0.06 -0.34,-0.62 -0.25,-0.48 -0.37,-0.67 -0.06,-0.15 -1.21,-2.17 -0.04,-0.07 -0.12,-0.21 -0.02,-0.13 -0.01,-0.05 -3.37,-6.27 -0.21,-0.38 -0.36,-0.67 -0.08,-0.16 -0.56,-1.04 -0.05,-0.07 -0.35,-0.68 -0.05,-0.08 -1.75,-3.31 -0.34,-1 -0.19,-1.48 0.2,-2.1 0.02,-0.17 0.06,-0.46 v -0.04 l 0.31,-2.59 0.01,-0.07 0.01,-0.09 0.02,-0.12 0.06,-0.51 v -0.06 l 0.03,-0.44 0.02,-0.13 0.16,-1.22 0.25,-2.08 v -0.02 l 0.08,-0.59 -0.5,-0.15 -0.02,-0.09 -0.25,-0.06 -0.07,-0.01 -0.05,-0.01 h -0.01 l -0.03,-0.01 -0.43,-0.06 -0.26,-0.39 -0.05,-0.07 -0.06,-0.09 -0.05,-0.06 -0.01,-0.02 -0.95,0.29 v -0.12 h -0.08 l -1.21,-1.67 -0.93,-0.51 -0.06,-0.09 -0.08,-0.14 -0.34,-0.57 -0.14,-0.23 -0.39,-0.64 -0.11,-0.18 -0.94,-1.53 -0.2,-0.36 -0.19,-0.28 -0.03,-0.06 -2.1,0.67 -2.96,0.61 -0.36,0.07 -6.14,1.2 -0.4,0.35 -0.48,0.43 -0.05,-0.16 -0.02,-0.1 -0.01,-0.03 -0.08,-0.1 -0.04,-0.05 -0.06,-0.06 -0.03,-0.04 -0.2,0.07 -0.29,0.12 -0.15,0.06 -0.21,0.08 -0.22,0.09 -0.15,0.06 -0.12,0.05 -0.15,0.06 -0.37,0.12 -0.59,0.2 -0.78,0.27 -0.1,0.04 -0.11,0.04 -0.02,0.01 -0.08,0.03 -0.03,0.01 -0.08,0.03 -0.47,0.17 -0.02,0.01 -0.03,0.01 -0.57,0.21 -0.06,0.03 h -0.01 l -0.1,0.04 h -0.01 l -0.26,0.1 -0.16,0.05 -0.1,0.04 -0.06,0.02 -0.04,0.02 h -0.01 l -0.03,0.01 -0.02,0.01 -0.02,0.01 -0.03,0.01 -0.54,0.21 -0.29,0.1 -0.34,-0.21 -0.14,-0.09 -0.12,-0.07 -0.11,-0.07 -0.16,-0.1 -0.09,-0.06 -0.22,-0.13 -1.95,-1.34 0.09,-0.1 0.17,-0.2 0.19,-0.21 0.02,-0.03 0.19,-0.22 0.08,-0.1 0.08,-0.08 0.05,-0.06 0.22,-0.26 -0.07,-0.01 -0.77,-0.11 0.33,-0.4 -0.29,-0.06 1.14,-1.6 -0.41,-0.45 -0.06,-0.03 -0.05,0.01 -0.12,0.03 -0.14,0.04 -0.08,0.02 -0.17,0.05 -0.08,0.03 -0.18,0.05 -0.16,0.04 -0.12,0.05 -0.05,0.01 -0.09,0.04 -1.45,-0.27 -0.02,-0.65 v -0.01 l -0.87,-0.35 0.3,0.31 -0.21,0.3 -0.01,0.01 -0.39,0.55 -0.17,-0.07 h -0.03 l -0.03,0.05 -0.44,-0.03 -0.46,1.04 -0.22,-0.14 -0.3,-0.2 -0.2,-0.13 -0.02,-0.01 -0.04,-0.03 -0.66,-0.44 -0.44,-0.29 -0.31,-0.19 -0.15,-0.1 -0.33,-0.24 -0.25,-0.17 -0.08,-0.05 -0.51,-0.31 -0.19,-0.13 -0.19,-0.12 -0.25,-0.18 -0.43,-0.31 -0.1,-0.07 -0.21,-0.13 -0.5,-0.34 -0.3,-0.19 -0.02,-0.01 -0.49,-0.32 -0.43,-0.28 -0.02,-0.01 -0.19,-0.13 -0.03,-0.02 -0.45,-0.3 -0.04,-0.03 -0.27,-0.18 -0.35,-0.22 -0.29,-0.19 -0.16,-0.12 -0.7,-0.45 -1.87,-1.23 -1.06,-0.71 -0.99,-0.65 -0.23,-0.1 -2.56,-1.66 -0.09,-0.07 h -0.01 l -0.06,-0.04 -0.06,-0.04 -3.11,-2.06 -3.73,-2.81 -8.63,-5.69 -1.24,-0.81 -0.44,-0.3 -15.83,-10.44 -6.42,-4.23 -2.15,-1.42 -1.12,-0.74 -2.43,-1.6 -0.78,-0.52 -0.32,-0.21 -0.33,-0.21 -6.63,-4.38 -0.45,-0.3 -2.38,-1.57 -0.02,-0.01 -0.33,-0.22 -0.24,-0.16 -0.1,-0.06 -1.82,-1.2 -2,-1.32 -2.28,-1.5 -1.39,-0.92 -5.46,-3.6 -1.87,-1.24 -1.92,-1.26 -0.82,-0.54 -10.82,-7.14 v 0 l 0.18,-0.1 0.37,-0.19 1.19,-0.62 0.17,-0.08 0.77,-0.4 0.06,-0.11 0.12,-0.06 0.01,-0.01 0.23,-0.13 0.03,-0.01 0.01,-0.01 0.94,-0.51 0.04,-0.02 0.13,-0.07 0.18,-0.09 0.25,-0.14 0.16,-0.08 0.15,-0.09 0.2,-0.13 0.07,-0.03 0.19,-0.08 0.15,-0.08 0.16,-0.04 0.16,-0.08 0.17,-0.08 0.26,-0.15 0.19,-0.11 0.16,-0.08 0.06,-0.05 0.29,-0.28 0.25,-0.14 0.06,-0.1 v -0.08 l 0.4,-0.4 0.21,0.35 0.13,-0.02 0.08,-0.11 0.06,-0.23 0.14,-0.15 -0.01,-0.01 -0.04,-0.14 -0.07,-0.01 0.08,-0.33 0.62,-0.03 0.31,-0.09 0.45,-0.05 0.23,-0.28 0.23,-0.13 v -0.13 l 0.26,-0.3 0.22,0.1 0.12,0.08 0.13,0.22 0.15,0.09 0.32,-0.08 0.25,-0.36 0.03,-0.2 0.25,-0.51 0.19,-0.24 0.09,-0.32 0.57,-0.4 0.1,-0.14 0.01,-0.1 -0.05,-0.05 0.13,-0.59 0.03,-0.06 0.03,-0.22 0.72,-0.4 1.1,-1.4 0.09,-0.09 0.03,-0.1 -0.12,-0.98 0.72,-1.08 1.2,-0.95 0.29,-0.16 0.54,-0.48 0.16,-0.13 0.11,-0.26 0.2,-0.17 0.03,-0.08 -0.05,-0.15 -0.46,-0.1 -0.09,-0.98 -0.28,-0.28 -0.16,-0.1 -0.49,-0.1 -0.25,-0.13 -0.22,-0.19 -0.27,-0.06 -0.01,-0.02 -0.15,-0.22 v -0.04 l -0.19,-0.22 -0.32,-0.25 -0.25,-0.07 -0.22,0.02 -0.15,0.02 -0.36,-0.37 -0.06,-0.09 -0.01,-0.02 -0.15,-0.11 -1.45,-0.51 -0.07,-0.57 0.08,-0.2 -0.11,-0.09 -0.03,-0.32 -0.81,-0.04 -0.33,-0.5 -0.19,-0.15 -0.34,-0.18 -0.48,-0.18 -0.14,-0.02 -0.97,-0.17 -0.35,-0.23 -0.21,-0.18 -0.44,-0.28 -0.3,-0.18 -0.28,-0.24 -0.09,-0.05 -0.38,-0.2 -1.21,-0.8 -0.52,-0.26 h -0.02 l -0.18,-0.03 -0.64,0.08 -0.17,0.03 -0.11,0.01 -0.42,0.09 -0.17,0.03 -0.25,0.06 -1.03,-0.26 -0.96,-2.36 -0.04,-0.2 -0.07,-0.4 -0.03,-0.02 -0.01,-0.03 -0.08,-0.53 -0.15,-0.6 -0.1,-0.43 -0.04,-0.2 -0.02,-0.14 -0.04,-0.04 -0.13,-0.43 -0.9,-2.34 0.25,-0.8 0.06,-0.16 0.01,-0.06 0.3,-0.97 0.08,-0.61 0.04,-0.35 -0.02,-0.52 -0.12,-0.35 -0.12,-0.34 -0.43,-0.91 -0.24,-0.39 -0.29,-0.45 -0.17,-0.22 -0.27,-0.22 -0.49,-0.21 -0.33,-0.1 -0.26,-0.16 -0.46,-0.43 -0.21,-0.19 -0.1,-0.04 -0.17,0.03 -0.07,0.04 -0.12,0.01 -0.01,-0.34 0.07,-0.1 -0.01,-0.27 -0.08,-0.13 -0.42,-0.36 -0.11,-0.05 -1.05,-0.79 -0.25,-0.82 -0.02,-0.07 -0.01,-0.01 -0.29,-0.95 -0.01,-0.3 -0.11,-0.24 -0.14,-0.28 0.51,-1.16 0.01,-0.01 0.15,-0.34 -0.01,-0.26 -0.19,-0.77 -0.27,-0.5 -0.07,-0.15 -1.59,-0.29 -1.39,-1.48 -0.17,-0.16 -0.15,-0.13 -0.09,-0.09 -0.15,-0.13 -0.37,-0.32 -0.58,-0.4 -0.33,-0.19 -0.3,-0.17 -0.16,-0.09 -0.03,-0.02 -0.1,-0.05 -0.03,-0.02 -0.14,-0.07 -0.1,-0.05 -0.31,-0.15 -0.14,-0.07 0.25,-2.57 1,-4.06 0.8,-1.27 1.34,-0.91 1.02,-0.33 1.48,-0.24 1.95,0.08 3.18,0.9 2.29,1.1 0.17,0.09 0.98,0.47 2.06,1.45 1.52,1.37 0.69,0.38 0.36,0.2 0.69,0.16 0.56,0.14 h 0.33 0.8 l 0.69,-0.1 0.74,-0.11 1.05,-0.31 0.56,-0.16 1.16,-0.34 0.11,-0.03 0.09,-0.03 0.44,-0.14 0.99,-0.31 0.89,-0.34 0.62,-0.25 0.14,-0.05 0.24,-0.11 0.81,-0.39 0.25,-0.2 0.31,-0.27 0.14,-0.12 1.01,-1.84 0.2,-0.26 0.01,-0.04 0.04,-0.12 0.01,-0.05 0.12,-0.06 0.1,-0.08 0.15,-0.12 0.21,-0.4 0.01,-0.02 0.17,-0.19 0.1,-0.07 0.01,-0.07 0.23,-0.26 0.37,-0.05 h 0.3 l 0.36,-0.05 0.16,-0.06 1.16,-0.62 0.72,-0.28 0.65,-0.22 0.22,-0.1 0.23,-0.1 0.72,-0.1 0.23,-0.16 0.08,-0.03 0.33,-0.25 0.79,-0.52 v -0.01 l 0.03,-0.01 0.35,-0.13 0.68,-0.15 0.22,-0.17 1.09,-2.15 2.04,-0.73 0.52,-0.02 0.25,-0.05 0.06,-0.01 0.18,-0.05 0.23,-0.24 0.26,-0.39 0.19,-0.36 0.22,-0.14 0.21,-0.04 0.25,-0.23 0.1,-0.15 0.28,-0.52 0.26,-0.2 0.35,-0.18 0.22,-0.27 1.01,-0.78 0.82,0.34 0.75,-4.13 0.06,-0.31 v -0.06 l 0.03,-0.22 v -0.11 -0.03 -0.14 -0.04 l -0.03,-0.64 -0.01,-0.11 v -0.1 l -0.04,-0.84 -0.03,-0.56 -0.03,-0.58 -0.09,-1.36 v -0.03 l 0.19,-0.78 1.8,-2.41 0.01,-0.02 0.02,-0.03 0.03,-0.04 0.01,-0.03 0.1,-0.15 0.04,-0.07 0.07,-0.19 0.08,-0.18 0.01,-0.08 0.02,-0.18 v -0.24 l -0.01,-0.17 -0.01,-0.07 -0.08,-1.15 -0.02,-0.4 -0.01,-0.03 v -0.09 -0.03 l -0.01,-0.13 -0.03,-0.41 v -0.09 l -0.01,-0.04 -0.01,-0.24 -0.05,-0.72 -0.02,-0.24 -0.01,-0.05 v -0.01 l -0.01,-0.21 0.2,-0.72 0.35,-0.46 0.29,-0.36 0.43,-0.52 0.15,-0.21 0.07,-0.15 0.08,-0.21 0.02,-0.06 0.28,-0.8 0.8,-1.28 0.35,-0.4 0.22,-0.24 0.06,-0.08 h 0.01 l 0.07,-0.09 0.08,-0.1 0.11,-0.18 0.02,-0.04 0.06,-0.11 v -0.01 l 0.02,-0.04 0.05,-0.13 v -0.01 l 0.01,-0.05 0.01,-0.01 0.01,-0.04 v -0.01 l 0.01,-0.04 0.01,-0.05 0.01,-0.08 v -0.05 l 0.01,-0.01 V 71.47 71.46 71.44 71.32 71.3 l -0.03,-0.21 -0.02,-0.15 -0.02,-0.09 -0.03,-0.55 0.21,-1.28 0.07,-0.4 0.06,-0.36 0.02,-0.15 0.01,-0.04 0.01,-0.08 0.01,-0.19 v -0.04 l -0.01,-0.21 v -0.23 -0.21 l -0.02,-0.13 v -0.02 l -0.03,-0.17 -0.03,-0.08 -0.04,-0.1 v -0.02 l -0.08,-0.17 -0.51,-1.28 0.06,-1.88 0.02,-0.12 0.03,-0.2 v -0.17 l -0.01,-0.04 v -0.01 l 0.01,-0.19 -0.01,-0.08 -0.01,-0.09 -0.01,-0.03 -0.05,-0.13 -0.05,-0.14 -0.06,-0.09 -0.5,-1.2 0.04,-1.02 0.02,-0.43 v -0.2 l 0.01,-0.08 v -0.11 l 0.01,-0.12 v -0.08 l 0.01,-0.23 0.01,-0.7 0.01,-0.23 0.16,-0.36 0.46,-1.09 0.11,-0.24 0.03,-0.1 0.01,-0.03 v 0 l 0.01,-0.02 0.01,-0.04 0.02,-0.05 0.01,-0.03 0.06,-0.18 0.18,-0.52 0.06,-0.18 0.03,-0.07 0.07,-0.22 0.02,-0.07 0.17,-0.48 v 0 l 0.22,0.26 1.67,1.93 0.56,0.65 0.03,0.04 0.11,0.13 0.04,0.04 v 0 l 0.01,0.01 v 0.01 l 0.12,0.13 0.98,0.01 0.01,-0.11 0.16,-3.29 0.51,0.02 1.27,0.06 h 0.06 0.2 0.06 0.14 l 0.39,0.02 h 0.13 l 0.13,0.01 0.38,0.01 0.06,0.01 v -0.07 l 0.01,-0.1 0.01,-0.28 0.01,-0.1 0.01,-0.15 0.02,-0.44 0.01,-0.14 v -0.09 l 0.01,-0.25 0.01,-0.08 0.01,-0.24 0.03,-0.69 0.02,-0.24 0.02,-0.36 v -0.04 l 0.06,-1.19 0.02,-0.4 v -0.1 l 0.02,-0.32 v -0.1 l 0.04,-0.67 -1.51,-2.18 0.28,-1.18 0.03,-0.05 0.13,-0.34 0.11,-0.57 0.07,-0.46 v -0.8 -0.61 l -0.03,-0.45 -0.1,-0.81 -0.23,-0.88 -0.04,-1.21 1.3,-3.38 0.12,-0.38 0.05,-0.39 0.01,-0.24 -0.01,-0.06 -0.03,-0.21 -0.27,-1.76 -0.05,-1.89 0.11,-0.05 0.07,-0.06 0.08,-0.17 0.04,-0.11 v -0.12 l -0.06,-0.17 -0.15,-0.32 -0.06,-0.12 -0.06,-0.1 -0.02,-0.62 1.55,0.01 1.09,0.5 0.25,0.29 0.34,0.38 0.27,0.23 0.25,0.16 0.13,0.06 0.31,0.13 0.13,0.04 1.34,0.39 0.45,0.13 0.48,0.13 0.61,0.18 0.81,0.1 0.02,-0.01 0.33,-0.04 0.14,-0.09 0.02,-0.02 0.1,-0.16 0.06,-0.2 v -0.14 l -0.04,-0.12 -0.14,-0.23 -1.46,-1.35 -0.17,-0.85 -0.01,-0.08 -0.06,-0.23 -0.18,-0.31 -0.17,-0.21 -0.2,-0.31 0.22,-0.45 0.37,-0.13 3.11,-0.16 1.11,0.61 0.4,0.48 -0.21,0.74 -1.12,1.4 -0.07,0.14 v 0.22 l 0.07,0.28 0.13,0.24 0.22,0.19 0.12,0.04 0.72,-0.11 0.32,-0.11 0.68,-0.35 0.44,-0.3 0.05,-0.03 0.36,-0.28 0.86,-0.69 0.45,-0.45 0.27,-0.28 1.46,-0.64 0.46,0.06 1.03,1.12 0.1,0.03 0.19,-0.02 0.17,-0.05 0.39,-0.22 0.06,-0.08 0.15,-0.19 0.05,-0.13 v -0.11 l -0.05,-0.14 -0.89,-1.19 0.26,-0.59 0.71,-0.37 1.24,0.18 0.51,0.51 0.14,0.85 0.02,0.08 0.12,0.52 0.2,0.49 0.07,0.08 0.13,0.03 0.53,0.03 0.51,-0.06 0.41,-0.09 0.33,-0.11 0.3,-0.14 0.25,-0.14 1.31,-0.95 0.45,-0.43 0.41,-0.58 0.11,-0.22 0.11,-0.19 0.04,-0.14 0.04,-0.14 0.06,-0.41 v -0.15 l 0.03,-0.3 0.06,-0.2 v -0.49 l 0.54,-0.62 0.41,-0.18 0.64,0.45 0.11,0.14 0.21,0.16 0.61,0.36 0.34,0.57 -0.07,0.86 -0.38,0.59 -0.11,0.16 -0.3,0.53 -0.01,0.03 -0.51,0.85 -0.05,0.18 -0.04,0.21 v 0 0.01 l 0.02,0.14 0.08,0.08 0.04,0.04 0.14,0.07 0.23,0.03 h 0.54 l 0.46,0.01 2.03,0.36 h 0.76 l 0.36,-0.04 0.38,-0.08 0.32,-0.13 0.14,-0.07 0.64,-0.57 0.06,-0.19 0.05,-0.12 0.01,-0.12 0.03,-0.33 0.03,-0.32 0.01,-0.08 -0.06,-0.49 -0.25,-0.69 -0.02,-0.08 -0.07,-0.07 -0.25,-0.15 -0.13,-0.08 -0.09,-0.07 -0.04,-0.03 -0.19,-0.09 -0.48,-0.18 h -0.01 l -0.23,-0.12 -0.13,-1.12 0.68,-0.41 0.79,0.18 0.11,0.05 0.22,0.07 0.19,0.01 0.13,0.01 0.79,0.29 0.17,0.08 0.24,0.09 0.29,0.09 0.03,0.01 0.65,0.64 0.06,0.16 0.04,0.3 0.13,0.36 0.13,0.21 0.12,0.1 0.09,0.06 0.07,0.04 0.07,0.04 0.02,0.01 0.14,0.06 0.14,0.05 0.06,0.02 0.14,0.01 0.2,-0.02 h 0.01 l 0.19,-0.05 0.2,-0.09 0.22,-0.23 0.09,-0.16 0.07,-0.19 -0.01,-0.2 -0.04,-0.26 -0.08,-0.46 -0.07,-0.46 -0.01,-0.11 -0.07,-0.18 -0.13,-0.22 -0.01,-0.01 -0.15,-0.17 -0.25,-0.17 -0.23,-0.11 -0.32,-0.12 -0.46,-0.05 -0.45,0.01 -0.14,-0.01 h -0.08 l -0.52,-0.85 0.15,-0.58 0.65,-0.43 0.74,-0.17 1.11,0.17 1.05,1.34 0.3,0.24 0.06,0.05 0.11,0.08 0.13,0.1 0.18,0.06 0.17,0.01 0.58,-0.03 h 0.02 l 0.02,-0.01 0.16,-0.11 0.21,-0.28 0.16,-0.37 0.03,-0.18 v -0.14 -0.01 l -0.01,-0.06 -0.1,-0.21 -0.09,-0.08 -0.1,-0.11 -0.56,-0.5 -0.12,-0.11 -0.47,-0.44 -0.2,-0.15 -0.17,-0.09 -0.1,-0.05 -0.49,-0.21 -0.62,-0.22 -1.75,-0.8 -0.26,-0.38 -0.25,-0.35 -0.14,-0.18 -0.17,-0.14 -0.17,-0.14 -0.29,-0.14 -0.04,-0.02 -0.3,-0.11 -0.29,-0.06 -0.81,-0.29 -0.2,-0.25 -0.03,-0.03 -0.8,-0.95 -0.07,-0.15 -0.09,-0.1 -0.08,-0.09 -0.22,-0.23 -0.22,-0.25 -0.03,-0.02 0.12,-0.87 0.41,-0.46 0.06,-0.19 v -0.21 l -0.02,-0.17 -0.02,-0.14 -0.57,-1.08 0.47,-0.47 0.22,-0.02 0.15,-0.03 0.15,-0.06 0.31,-0.07 0.75,0.19 0.43,0.35 0.2,0.22 0.1,0.08 0.31,0.2 0.04,0.01 0.25,0.07 h 0.26 l 0.27,-0.06 0.13,-0.04 0.37,-0.29 0.2,-0.24 0.19,-0.31 0.95,-0.23 0.09,-0.01 0.3,-0.06 0.17,-0.04 0.32,-0.11 0.25,-0.16 0.21,-0.18 0.02,-0.03 0.1,-0.17 0.08,-0.17 0.06,-0.13 V 9.13 l 0.03,-0.15 0.5,-1.17 0.52,-0.29 0.82,0.1 0.26,0.04 0.06,0.01 0.52,0.05 h 0.27 l 0.28,-0.04 0.36,-0.12 0.14,-0.05 0.19,-0.17 0.01,-0.01 0.22,-0.29 0.21,-0.29 0.01,-0.01 0.06,-0.07 0.08,-0.16 V 6.38 6.32 l -0.07,-0.4 -0.05,-0.17 -0.02,-0.04 -0.03,-0.04 -0.58,-1.48 0.08,-0.15 0.19,-0.38 0.05,-0.1 0.63,-0.4 1.29,0.05 0.77,0.52 0.3,0.14 0.55,0.27 0.04,0.01 0.12,0.03 0.04,0.01 0.07,0.01 0.21,0.03 0.07,0.01 0.04,0.01 0.04,0.01 v 0 l 0.12,0.01 0.13,0.02 0.01,0.01 h 0.03 l 0.05,0.01 0.05,0.01 0.14,0.02 0.05,0.01 1.36,0.42 0.09,0.03 0.1,0.02 0.69,-0.07 0.52,-0.17 0.04,-0.01 0.14,-0.06 0.26,-0.1 0.26,-0.11 0.46,0.02 h 0.28 l 0.28,0.01 0.15,0.09 0.28,0.16 0.1,0.2 0.18,0.36 0.02,0.03 0.15,0.22 0.01,0.01 0.14,0.21 0.8,0.15 0.44,-0.07 0.05,-0.01 0.07,-0.01 0.07,-0.02 h 0.05 l 0.02,-0.01 0.15,-0.05 0.37,-0.13 0.09,-0.09 0.12,-0.12 0.03,-0.04 0.05,-0.05 0.05,-0.05 0.03,-0.03 0.13,-0.14 0.39,-0.45 0.95,-0.04 0.16,0.81 -0.35,0.65 -0.15,0.27 -0.01,0.01 V 6.2 l 0.35,0.13 0.03,0.01 0.01,0.01 V 6.34 l 0.49,-0.14 0.29,-0.24 0.14,-0.11 0.06,-0.12 0.25,-0.57 0.04,-0.33 0.01,-0.05 -0.08,-0.25 -0.01,-0.04 -0.01,-0.04 -0.01,-0.05 -0.01,-0.03 -0.05,-0.18 -0.24,-0.47 -0.08,-0.16 0.13,-0.64 1.05,-0.1 2.01,1.37 0.01,0.01 0.13,0.06 h 0.05 l 0.14,0.02 h 0.04 l 0.05,0.01 0.11,0.01 h 0.05 l 0.05,0.01 0.06,0.01 h 0.06 0.12 l 0.05,-0.01 h 0.04 0.04 l 0.07,-0.02 0.04,-0.01 h 0.01 l 0.01,-0.01 0.08,-0.06 0.02,-0.02 0.15,-0.27 0.08,-0.13 0.2,-0.48 0.1,-0.24 0.04,-0.13 0.06,-0.16 0.06,-0.16 0.09,-0.25 0.04,-0.17 0.21,-0.54 1.04,-0.52 0.9,0.05 0.1,0.02 0.17,0.01 h 0.15 l 0.34,0.02 0.33,0.01 0.66,-0.18 0.26,-0.07 1.25,0.26 2.81,0.4 3.23,0.07 0.43,-0.01 0.61,-0.01 0.31,-0.01 0.04,-0.01 h 0.06 0.07 0.04 l 0.11,-0.01 0.18,-0.01 2.18,-0.31 1.65,1.46 0.36,0.37 0.06,0.06 0.12,0.1 0.1,0.08 0.16,0.12 0.15,0.12 0.1,0.08 0.02,0.02 0.04,0.02 0.03,0.03 0.02,0.02 h 0.04 l 0.05,0.01 h 0.05 0.03 l 0.12,0.01 0.08,0.01 0.18,-0.02 0.1,-0.03 0.11,-0.03 h 0.02 l 0.14,-0.15 0.23,-0.16 0.01,-0.03 0.18,-0.29 0.11,-0.23 0.19,-0.36 0.12,-0.19 0.05,-0.07 0.04,-0.07 0.21,-0.44 0.64,-0.64 h 0.84 l 0.66,0.51 0.17,1.84 0.24,0.21 v 0 l 0.02,0.02 h 0.01 l 0.02,0.02 0.04,0.02 0.2,0.08 0.08,-0.01 h 0.31 l 0.03,-0.02 0.66,-0.25 0.22,-0.26 0.21,-0.27 0.16,-0.2 0.04,-0.12 0.22,-0.61 1.02,-0.79 0.59,0.07 0.25,0.33 0.88,0.86 0.33,0.53 0.09,0.16 -0.26,0.91 -0.03,0.17 V 4.4 l -0.01,0.07 -0.01,0.06 -0.01,0.04 V 4.6 l -0.01,0.03 0.03,0.03 0.01,0.01 0.25,0.24 0.08,0.08 0.87,0.05 0.04,-0.02 0.31,-0.15 0.19,-0.09 0.16,-0.27 0.19,-0.32 0.37,-1.13 0.16,-0.49 0.01,-0.03 0.02,-0.09 0.64,-0.5 0.84,-0.04 0.63,0.36 0.11,0.09 0.4,0.2 1.58,0.46 0.36,0.09 0.79,1.08 -0.46,1.37 0.01,0.05 0.03,0.29 0.03,0.3 v 0.01 h 0.02 l 0.81,0.36 0.35,0.11 0.21,0.01 0.12,-0.02 0.44,-0.02 0.03,-0.02 0.73,-0.71 0.06,-0.04 0.25,-0.26 0.08,-0.16 0.08,-0.17 0.09,-0.22 0.19,-0.45 0.02,-0.3 -0.1,-0.3 -0.59,-0.83 -0.05,-0.08 -0.23,-0.32 -0.62,-0.48 -0.01,-0.59 0.7,-0.5 1.18,-0.07 0.51,0.26 0.49,0.31 0.24,0.07 0.75,0.38 0.08,0.19 0.04,0.23 0.04,0.09 0.05,0.06 0.1,0.15 0.18,0.43 -0.22,0.87 0.09,0.34 0.07,0.09 0.14,0.18 0.38,0.25 0.06,0.02 0.46,0.16 0.48,0.04 0.61,-0.05 0.57,-0.34 0.47,-0.27 0.2,-0.05 0.2,-0.04 0.12,-0.03 0.27,-0.07 0.18,0.05 h 0.02 l 0.18,0.03 0.01,0.01 H 474 l 0.02,0.01 0.31,0.05 0.46,0.07 0.4,0.27 0.16,0.11 0.11,0.06 0.27,0.15 0.46,0.11 0.17,0.05 0.28,-0.03 0.17,-0.18 0.19,-0.26 0.21,-0.37 0.16,-0.36 0.87,-0.35 2.1,0.65 0.06,0.03 0.08,0.03 0.05,0.02 0.18,0.07 h 0.01 l 0.59,0.17 0.2,0.05 0.04,0.01 0.06,0.02 0.76,0.87 0.12,0.16 0.18,0.26 0.02,0.03 0.04,0.05 0.03,0.04 0.02,0.03 0.13,0.16 0.06,0.08 0.31,0.23 0.01,0.01 0.1,0.07 0.1,0.08 0.07,0.04 0.13,0.07 0.41,0.21 0.03,0.01 0.1,0.03 0.01,0.01 0.37,0.1 0.02,0.01 0.53,0.1 0.48,0.11 0.11,0.02 0.38,0.07 0.78,0.46 0.32,1.04 -0.02,0.1 -0.02,0.16 0.03,0.1 v 0.01 l 0.08,0.26 0.03,0.11 0.2,0.26 0.32,0.24 0.22,0.16 0.07,0.05 0.14,0.07 0.03,0.02 0.76,0.32 0.2,0.08 0.05,0.04 0.1,0.09 0.17,0.02 0.07,0.01 0.31,0.07 0.71,0.39 0.33,0.18 0.04,0.02 0.02,0.01 1.21,1 0.02,1.4 -0.01,0.05 0.01,0.26 v 0.18 l 0.13,0.21 0.02,0.01 0.3,0.22 h 0.01 l 0.19,0.08 0.17,0.02 0.22,-0.09 0.2,-0.1 0.61,-0.5 0.1,-0.08 0.11,-0.08 0.07,-0.05 0.14,-0.14 0.62,0.02 0.97,0.98 0.33,0.48 0.08,0.21 0.32,0.41 0.35,0.45 0.25,0.19 0.13,0.09 0.19,0.15 0.19,0.14 0.12,0.1 0.05,0.04 0.14,0.1 1.72,0.79 1.13,0.94 0.05,0.04 0.17,0.14 0.35,0.29 0.19,0.06 0.22,0.06 0.05,0.02 0.07,0.02 0.08,0.02 0.06,0.02 0.05,0.01 0.15,0.05 h 0.01 l 0.04,0.01 0.11,0.02 1.25,0.35 1.03,1.39 1.33,2.47 0.27,0.16 0.23,0.14 0.58,0.08 0.42,-0.08 0.4,-0.14 0.16,-0.07 0.2,-0.09 0.1,-0.1 0.39,-0.14 0.93,0.4 -0.29,1.25 -0.13,0.2 -0.22,0.35 v 0 l 0.2,0.45 0.14,0.06 0.02,0.01 0.21,0.08 0.24,0.04 0.16,-0.06 0.03,-0.03 0.42,-0.37 0.21,-0.35 0.04,-0.17 0.14,-1.08 1.17,-0.15 1.3,0.55 0.05,0.06 0.03,0.03 0.06,0.09 0.09,0.12 0.1,0.12 0.06,0.09 0.02,0.02 0.02,0.03 0.03,0.03 0.01,0.02 0.28,0.36 0.11,0.14 1.01,1.21 0.83,0.43 1.66,0.56 2.02,1.62 0.26,0.45 0.06,0.1 0.43,1.71 0.09,0.15 0.12,0.19 0.05,0.09 0.14,0.19 0.24,0.22 0.16,0.15 0.02,0.02 0.08,0.07 0.1,0.09 0.25,0.09 0.12,0.04 0.07,0.02 0.03,0.02 0.11,0.03 0.05,0.02 0.06,0.02 0.46,0.03 0.45,0.02 0.89,-0.21 0.28,-0.07 h 0.01 l 0.9,0.37 0.54,0.99 -0.11,0.8 -0.57,0.58 -1.4,0.63 -1.1,-0.16 -0.35,-0.06 -0.51,-0.07 -0.78,0.03 -0.23,0.16 -0.08,0.25 -0.17,0.23 0.01,0.03 v 0.03 l 0.06,0.45 0.14,0.35 0.09,0.14 0.23,0.19 0.4,0.11 0.23,0.06 1.44,0.05 h 0.02 l 0.57,0.02 h 0.05 l 0.8,0.4 0.46,0.71 0.02,0.05 0.02,0.09 0.08,0.1 0.07,0.09 0.25,0.34 0.03,0.04 0.49,0.16 0.7,0.04 0.34,0.06 0.42,0.07 1,0.65 0.52,1.22 -0.38,2.1 v 0.46 l 0.01,0.07 0.08,0.38 0.45,0.2 0.59,0.23 0.62,0.2 0.28,0.09 0.71,0.26 0.19,0.31 -0.03,0.45 -0.04,0.2 -0.02,0.16 v 0 0.02 0 l -0.01,0.42 v 0.07 l 0.03,0.01 0.41,0.21 0.66,0.27 0.36,0.12 0.12,0.04 1.28,-0.03 1.4,0.36 1.36,0.68 0.14,0.08 0.1,0.05 0.26,0.14 0.04,0.02 0.1,0.05 0.03,0.01 0.09,0.04 0.03,0.02 0.22,0.1 0.56,0.7 0.13,0.84 0.03,0.19 0.08,0.3 0.17,0.57 0.14,0.15 0.12,0.14 0.31,0.28 0.47,0.23 0.44,0.12 0.8,0.18 0.65,0.14 1.55,0.76 0.02,0.01 0.18,0.07 0.23,0.09 0.7,0.27 0.04,0.02 0.19,0.06 0.04,0.01 0.13,0.04 0.04,0.01 0.04,0.01 2.58,0.71 2.37,1.25 0.84,1.05 1.11,2.25 0.6,0.82 0.26,0.22 0.06,0.02 0.25,0.08 0.93,0.17 0.61,0.04 0.54,-0.03 0.75,-0.2 0.5,-0.24 0.34,-0.21 0.1,-0.07 0.11,-0.06 0.23,-0.22 0.73,-1.48 0.65,-0.14 0.44,0.12 0.59,0.75 0.14,0.34 0.02,0.06 0.15,0.52 0.1,0.14 0.07,0.1 0.53,0.14 0.04,0.01 0.43,-0.28 0.55,-0.37 0.42,-0.26 0.22,-0.16 0.33,-0.24 0.89,-0.04 0.19,0.44 -0.74,0.56 -0.02,0.02 -0.12,0.09 -0.22,0.18 -0.02,0.01 -0.03,0.12 -0.02,0.05 -0.04,0.16 -0.01,0.05 -0.01,0.01 v 0.03 0.01 0.01 0.13 l 0.35,0.5 0.06,0.07 0.45,0.42 0.31,0.2 0.99,0.53 0.03,0.01 0.22,0.71 -0.23,1.24 0.05,0.06 0.26,0.46 0.17,0.12 0.07,0.04 0.98,0.24 0.31,0.47 -0.2,0.29 -0.11,0.13 -0.09,0.12 -0.02,0.26 0.25,0.21 0.3,0.17 0.39,0.22 0.56,0.04 h 0.06 l 0.15,0.01 0.13,0.01 0.13,0.01 0.12,0.01 1,0.68 0.44,1.32 0.21,0.26 0.2,0.25 0.05,0.05 0.38,0.52 0.16,0.15 0.14,0.14 0.07,0.08 0.01,0.01 0.04,0.05 0.08,0.09 -0.02,1.72 -0.04,0.21 -0.01,0.06 0.01,0.07 v 0 l 0.03,0.24 0.01,0.04 0.26,0.19 0.21,0.1 0.1,0.01 0.23,0.04 0.51,-0.01 0.82,0.05 0.84,0.7 0.02,0.29 0.05,0.59 -0.01,0.17 -0.09,0.79 -0.06,0.54 -0.01,0.16 0.04,0.51 0.11,0.09 0.05,0.05 0.07,0.06 0.07,0.07 0.05,0.04 0.04,0.03 0.13,0.04 0.05,0.01 0.16,0.05 0.16,0.05 0.11,0.03 h 0.03 l 0.28,-0.01 0.52,0.01 0.28,-0.09 0.03,-0.03 0.71,-0.26 0.37,0.36 -0.4,0.9 -0.02,0.02 -0.35,0.61 -0.06,0.22 -0.01,0.04 v 0.03 l -0.01,0.01 v 0.02 l -0.01,0.04 -0.01,0.03 -0.01,0.03 -0.01,0.04 0.01,0.01 0.09,0.16 0.01,0.01 0.03,0.01 0.31,0.11 0.42,0.02 0.68,-0.33 0.21,-0.09 0.19,-0.08 0.38,0.02 0.68,0.04 2.55,1.33 0.44,0.74 0.07,0.13 0.54,1.08 0.21,0.28 0.13,0.11 0.22,0.17 0.32,0.15 0.98,0.27 1.37,0.39 0.44,0.05 0.79,0.03 1.18,-0.39 0.4,-0.25 0.82,-0.33 1.05,0.19 1.2,1.1 0.02,0.01 0.04,0.01 0.05,0.02 0.35,0.1 0.24,0.05 0.53,0.11 0.94,-0.21 0.44,-0.14 0.63,-0.2 0.05,-0.01 0.01,-0.01 0.09,-0.03 0.04,-0.02 0.03,-0.02 0.12,-0.07 0.04,-0.02 0.42,-0.25 0.11,-0.06 1.47,-0.15 0.27,0.13 0.17,0.09 1.06,1.11 0.3,0.15 0.09,0.04 0.4,0.1 1.29,-0.26 0.17,0.03 0.26,0.04 h 0.03 l 0.13,0.02 v 0 h 0.02 l 0.45,0.18 0.04,0.02 0.09,0.08 0.07,0.07 0.02,0.02 0.26,0.27 0.05,0.04 0.04,0.04 0.08,0.08 0.21,0.21 0.27,0.27 0.64,0.52 0.04,0.03 v 0 l 0.33,0.13 0.1,0.04 0.07,0.03 0.36,0.14 0.15,0.06 0.17,0.07 0.1,0.04 0.23,0.09 1.2,0.87 0.01,0.01 0.02,0.01 v 0 l 0.04,0.03 0.03,0.02 0.11,0.08 0.18,0.13 0.37,0.2 0.19,0.1 0.01,0.01 0.06,0.03 0.1,0.06 0.13,0.06 0.03,0.02 0.04,0.02 0.16,0.09 0.48,0.25 1.66,0.86 1.06,0.36 0.06,0.02 0.14,0.05 0.11,0.04 0.2,0.06 0.12,0.05 0.36,0.12 0.26,0.08 0.43,0.15 0.24,0.08 1.01,0.46 0.42,0.18 0.12,0.06 0.19,0.09 0.2,0.08 0.12,0.06 0.14,0.06 0.2,0.09 0.2,0.1 0.14,0.06 h 0.02 l 0.02,0.01 0.03,0.02 v 0 l 0.02,0.01 0.64,0.44 0.11,0.09 0.08,0.07 0.07,0.06 0.18,0.15 0.03,0.01 0.07,0.05 0.27,0.15 0.08,0.05 0.53,0.36 2.1,0.5 0.98,0.11 1.18,0.13 1.95,0.14 1.37,0.1 3.8,0.63 0.09,0.02 0.33,0.07 0.24,0.06 0.36,0.08 0.36,0.08 0.24,0.06 0.48,0.11 1.15,0.25 0.52,0.11 2.59,0.93 0.24,0.1 0.47,0.18 0.9,0.31 0.99,0.34 3.2,1.69 2.74,2.66 0.74,0.18 1.34,0.02 2.2,-0.28 0.5,0.06 0.24,0.03 0.37,0.09 0.28,0.08 0.6,0.15 0.6,0.15 0.4,0.1 0.68,0.18 1.02,0.26 1.03,0.26 0.68,0.17 0.25,0.06 0.2,0.05 0.41,0.11 0.15,0.04 0.09,0.02 1.3,0.33 v 0 l 7.11,1.04 0.21,0.13 0.12,0.07 0.21,0.14 0.65,0.41 0.22,0.14 0.67,0.9 H 667 l -0.01,0.28 -0.01,0.18 v 0.05 l -0.03,0.56 -0.11,0.13 -0.13,0.15 -0.27,0.33 -0.2,0.23 -0.62,0.76 -0.15,0.19 -0.01,0.19 v 0.01 l -0.02,0.18 0.18,0.14 0.08,0.06 0.32,0.25 v 0 l 0.34,-0.02 0.22,-0.01 1.38,-0.36 0.46,-0.37 0.47,-0.38 0.1,-0.1 0.14,-0.14 0.2,-0.21 0.2,-0.2 0.13,-0.14 0.03,-0.04 0.03,-0.03 h 0.09 0.05 l 0.31,-0.02 0.43,-0.02 0.6,1.3 0.07,0.19 0.01,0.01 0.08,0.17 0.16,0.33 0.24,0.51 0.23,1.23 0.02,0.11 0.01,0.05 0.01,0.07 h 0.01 l 0.06,0.37 0.05,0.04 0.03,0.03 0.21,0.22 0.4,0.14 0.3,0.11 1.86,0.21 0.61,0.07 0.11,0.05 h 0.01 l 0.02,0.01 0.7,0.28 0.53,1.08 0.02,0.17 0.17,0.23 0.02,0.02 0.11,0.06 0.19,0.11 0.67,0.33 0.2,0.06 1.21,0.41 1.95,0.47 0.23,0.05 0.97,0.21 3.09,0.13 0.33,0.11 0.16,0.06 0.18,0.06 0.29,0.09 0.66,0.23 0.67,0.22 0.44,0.15 0.05,0.02 0.11,0.04 4.72,2.32 v 0.01 l 1.09,0.43 1.47,0.59 0.08,0.03 v 0 h 0.47 0.64 l 0.99,-0.32 0.16,-0.05 0.32,-0.22 0.09,-0.06 0.11,-0.08 0.03,-0.02 0.12,-0.08 0.09,-0.07 0.14,-0.09 0.11,-0.08 0.23,-0.32 0.11,-0.14 0.37,-0.51 0.02,-0.03 0.88,-1.83 0.29,-0.61 1.53,-0.06 0.02,0.01 0.29,0.25 0.05,0.04 0.06,0.05 0.06,0.39 0.01,0.12 0.02,0.1 0.04,0.31 -0.05,0.07 -0.01,0.01 -1.32,1.69 -1.05,1.12 0.24,0.68 v 0 l 0.24,0.09 0.1,0.04 0.1,0.04 0.1,0.04 0.09,0.04 0.11,0.04 0.07,0.03 0.04,0.01 0.05,0.02 0.1,0.04 0.27,-0.07 h 0.01 0.02 l 0.25,-0.07 0.18,-0.04 0.11,-0.03 0.07,-0.02 0.17,-0.13 0.59,-0.45 0.19,-0.15 0.12,-0.09 0.29,-0.17 1.26,-0.71 0.21,-0.12 0.23,-0.04 0.34,-0.06 0.26,-0.05 v 0 l 0.91,0.63 -0.01,0.02 v 0.02 l -0.16,0.65 -2.47,1.99 -0.04,0.54 0.28,0.54 0.45,0.11 0.58,-0.15 0.69,-0.48 1.99,-0.28 0.65,-0.28 0.29,-0.23 0.28,-0.22 0.28,-0.22 0.23,-0.16 1.48,-0.57 0.53,1.17 -0.44,0.63 -1.23,0.46 -0.17,0.11 -0.03,0.01 -0.1,0.19 h -0.01 l -0.05,0.09 0.11,0.14 v 0.01 l 0.03,0.03 0.01,0.03 0.01,0.01 0.03,0.04 0.02,0.02 0.02,0.01 0.04,0.04 0.02,0.02 0.03,0.03 0.17,0.16 0.1,0.01 h 0.04 l 0.11,0.01 0.1,0.01 0.16,-0.07 0.04,-0.02 0.07,-0.05 0.01,-0.01 0.08,-0.06 0.32,-0.39 0.03,-0.03 1.35,0.14 0.29,0.2 0.49,0.35 0.02,0.02 h 0.02 l 0.07,0.05 0.91,1.11 -0.16,1.25 -1.52,1.42 -0.19,0.35 0.14,0.2 0.19,0.28 0.02,0.02 0.31,0.22 0.17,0.14 0.13,0.09 0.38,0.28 0.21,0.1 0.22,0.1 0.25,0.12 0.38,0.17 0.37,0.17 0.25,0.12 0.11,0.05 0.15,0.07 0.16,0.07 0.11,0.05 0.1,0.05 0.31,0.14 0.06,0.03 0.05,-0.02 0.04,-0.01 0.05,-0.01 v 0 l 0.02,0.75 -1.1,0.75 -0.31,1.31 -1.84,-0.52 -0.49,-0.75 -0.97,0.32 -0.71,-0.62 0.13,0.62 -0.59,0.08 -0.45,0.56 -0.87,0.2 -1.65,-0.7 -0.4,0.19 -0.07,0.92 -0.31,0.04 -1.61,-1.76 -1.1,0.02 -0.05,0.57 -1.62,0.22 0.23,0.45 -0.51,0.04 -0.21,0.56 0.49,0.5 -0.37,0.95 -1.39,-0.56 -0.38,0.39 -0.69,-0.12 -0.39,0.95 0.72,1.74 -0.64,0.5 0.01,0.39 -0.74,0.27 0.19,0.4 -0.52,0.96 -1.7,-0.27 -0.21,-0.33 -0.91,0.84 -0.13,1.87 -0.5,0.02 -0.54,1.06 -0.42,0.07 0.08,1.6 -0.12,0.82 -0.38,0.05 0.12,1.08 -1.51,-0.16 -0.6,-0.23 -1.23,0.65 0.38,1.13 -0.49,0.96 -0.93,0.52 -0.26,1.18 -1.03,0.41 -0.76,-0.06 -0.47,0.73 -0.41,0.15 -0.2,0.78 0.26,1.11 -0.23,0.56 0.43,1.26 -0.53,0.22 0.1,0.63 -0.99,1.07 -1.22,2.03 -0.73,0.65 -0.81,0.41 -1.55,0.38 -1.11,-0.14 -0.25,0.25 -1.28,-0.04 -0.82,0.68 -0.76,0.08 -2.7,-1.53 -1.8,-1.18 -0.55,-1.18 -2.1,-1.38 -2.26,0.04 -2.52,-0.4 -1.66,0.47 -0.71,0.95 -1.37,0.65 -1.24,0.91 -3.96,0.68 -1.57,0.74 -1.29,-0.08 -1.5,0.99 -0.81,0.31 -1.87,0.32 -0.71,0.71 -0.23,1.01 -1.04,2.55 -4.18,0.43 -0.7,-1.4 -0.88,-1 -1.7,0.64 -2.12,0.43 -0.84,1.43 -2.42,1.81 -0.76,0.2 -2.09,-0.27 -1.86,0.98 -2.24,1.56 -0.87,1.36 -0.87,1.47 v 1.19 l -0.25,0.92 -0.68,1.27 -2.87,4.11 -2.29,4.55 -0.6,0.58 -2.36,1.44 -3.42,2.53 -2.4,3.19 -1.99,2.19 -1.07,0.96 -0.64,1.13 -1.8,1.97 -1.05,0.91 -1.49,0.91 -0.58,0.53 -0.54,1.11 -0.45,1.79 -0.99,1.23 -4.36,1.82 -0.94,0.59 -1.38,1.71 -1.78,2.69 -2.23,5.02 -1.15,2.68 -0.59,0.67 -5.8,3.3 -2.67,2.45 -2.03,1.13 -1.49,1.34 -0.92,1.17 -1.58,1.34 -2.15,4.38 -0.77,1.8 0.35,0.82 -0.7,0.99 -0.02,1.38 1.55,2 0.64,1.84 0.43,0.88 -0.03,0.84 -0.73,-0.1 -0.41,0.91 -0.73,-0.21 0.13,1.02 -0.75,0.57 -0.59,2.22 -0.62,1.28 0.36,0.91 -1.69,0.1 -1.92,-0.96 -1.02,-0.05 -0.89,0.32 -4.09,2.76 -1.89,0.9 -0.92,0.6 -1.29,1.42 -0.51,0.35 -0.44,0.34 -2.86,0.13 -2.48,0.7 -0.68,0.63 -1.78,2.31 -1.01,-0.18 -0.85,0.65 -0.71,0.54 -1.52,-0.15 -2.97,-0.23 -0.3,-0.02 -1.05,1.33 -1.06,1.91 -0.06,1.96 0.55,1.65 -0.25,1.22 -1.27,3.74 -1.06,2.09 -0.4,0.61 -0.83,1.39 -0.44,1.05 -0.19,0.46 -1.41,1.99 -1.02,1.43 -1.59,1.01 -1.3,0.53 -0.96,0.27 -1.59,0.4 -3.09,0.38 -0.98,0.03 -3.18,-0.15 -0.33,0.09 -0.73,0.35 -3.92,2.57 -1.11,0.89 -0.76,1.09 -0.24,1.08 0.63,2.78 0.89,2.7 -0.04,2.04 -0.02,0.61 -0.45,2.81 -0.2,0.31 -0.48,0.71 -0.57,0.63 -1.3,1.04 -1.94,0.91 -1.01,0.35 -1.35,1.44 -1.37,0.2 -0.11,0.01 z"
       id="path3644"
       style="fill:#e27f7f;fill-opacity:1;stroke:#ffffff;stroke-opacity:1" />
    <path
       d="m 397.47,222.35 -1.01,1.01 -0.62,0.27 h -0.02 l -0.1,-0.01 -0.15,-0.01 h -0.01 l -0.04,0.14 -0.02,0.01 -0.04,0.05 -0.2,0.05 -0.29,-0.02 -0.17,-0.29 h -0.05 v 0 l -0.55,-0.05 -0.23,-0.04 -0.82,-0.27 -0.87,-0.51 -0.06,-0.03 -0.03,0.03 -0.47,0.39 -0.03,-0.02 -0.12,0.08 h -0.01 v 0.01 l -0.04,0.02 -0.14,0.09 -0.26,0.17 h -0.01 l -0.01,0.01 0.01,0.01 0.06,0.03 0.01,0.01 0.16,0.08 0.27,0.15 0.08,0.04 0.2,0.1 0.01,0.01 0.15,0.08 0.02,0.01 0.21,0.11 h 0.01 l 0.02,0.01 0.03,0.02 0.02,0.01 0.01,0.01 0.03,0.01 -1.02,1.37 -0.21,-0.1 -0.06,0.06 -0.02,0.01 v 0.01 l -0.01,0.02 -0.02,0.02 -0.01,0.02 -0.02,0.05 -0.01,0.03 v 0.01 l -0.02,0.03 v 0.01 l -0.03,0.07 -0.06,0.13 -0.1,0.12 v 0.01 l -0.03,0.04 -0.02,0.03 -0.07,0.09 -0.02,0.03 -0.03,0.03 -0.06,0.08 -0.04,0.06 -2.15,-1.03 -0.16,-0.09 v 0 l -0.13,-0.07 -0.03,-0.02 -0.05,-0.02 -0.22,0.19 -0.06,0.04 -0.06,0.05 -0.07,0.06 -0.08,0.07 -0.08,0.07 -0.12,0.09 -0.11,0.09 -0.11,0.09 -0.18,0.16 -0.02,0.01 -0.08,0.08 -0.05,0.05 -0.05,0.04 -0.24,0.18 -0.16,0.14 -0.16,0.13 -0.19,0.15 -0.09,0.09 -0.05,0.04 -0.11,0.11 -0.08,0.07 -0.05,0.06 v 0 l -0.05,0.07 -0.21,0.19 -0.07,0.06 -0.12,0.12 0.17,0.15 0.57,0.52 0.52,0.45 0.44,0.38 1.18,1.1 0.81,-1.07 0.2,-0.27 0.14,-0.18 -0.88,-0.58 0.18,-0.1 0.04,-0.18 0.81,-1.01 0.03,0.02 0.03,-0.07 0.02,-0.04 0.02,-0.04 0.15,-0.17 v 0 l 0.08,-0.1 0.59,0.34 v 0.01 l 0.1,0.07 h 0.01 l 0.3,0.16 0.03,0.02 0.12,0.06 0.11,0.07 0.07,0.03 0.24,0.14 0.16,0.08 -0.13,0.2 -0.2,0.31 -0.12,0.18 -0.04,0.07 -0.01,0.01 -0.07,0.12 -0.02,0.04 -0.15,0.23 -0.09,0.14 -0.02,0.04 -0.13,0.19 -0.08,0.13 -0.03,0.06 -0.06,0.09 -1.16,1.84 0.02,0.02 0.55,0.44 0.49,0.41 0.91,0.74 0.15,0.12 0.54,0.44 v 0.01 l 0.42,0.34 0.02,0.02 0.45,0.36 0.21,0.17 0.11,0.09 4.39,3.63 0.16,0.14 0.02,0.02 0.05,0.05 0.95,0.8 0.35,0.31 0.11,0.09 0.09,0.08 0.11,-0.28 0.13,-0.29 0.3,0.12 0.05,-0.1 0.22,0.01 0.11,0.04 0.1,-0.03 0.02,-0.01 0.12,-0.25 0.04,-0.1 1.75,-3.33 0.04,-0.07 0.12,-0.23 1.22,-2.28 0.25,0.13 0.24,0.13 0.07,0.04 0.05,0.03 0.22,0.12 0.17,0.09 0.17,0.09 0.11,0.06 1.16,0.62 0.07,0.04 0.16,0.09 0.15,0.08 0.07,0.04 0.22,0.12 0.08,0.04 0.1,0.05 0.11,0.06 0.2,0.11 0.02,0.01 0.57,0.3 0.09,0.04 0.25,0.14 0.13,0.07 0.09,0.05 0.42,0.21 0.17,0.09 0.12,0.07 0.17,0.1 0.25,0.13 0.05,0.03 0.03,0.01 0.08,0.05 0.03,0.01 0.04,0.02 0.13,0.07 0.04,0.02 0.03,0.02 0.05,0.03 0.04,0.02 0.03,0.01 0.2,0.11 0.12,0.07 0.13,0.07 0.41,0.22 0.27,0.14 0.98,0.52 0.61,0.33 0.1,0.05 0.04,0.02 0.02,0.02 0.12,0.06 2.27,1.22 -0.18,0.04 -0.24,0.04 -0.12,0.03 -0.34,0.08 -0.04,0.01 -0.13,0.02 -0.24,0.05 -0.19,0.04 -0.54,0.11 -0.08,0.02 -0.17,0.04 -0.32,0.07 -0.69,0.15 -0.06,0.01 -0.23,0.05 -0.33,0.07 -0.07,0.01 -0.21,0.05 -0.07,0.01 -0.18,0.04 -0.13,0.03 -0.64,0.15 -0.29,0.06 -0.31,0.07 -0.04,0.01 -0.14,0.03 -0.05,0.01 -0.1,0.03 -0.31,0.07 -0.1,0.02 -0.13,0.03 -0.09,0.03 -0.1,0.04 -0.02,0.01 -0.1,0.03 -0.05,0.02 -0.15,0.07 -0.18,0.1 -0.44,0.28 h -0.01 l -0.3,0.2 -0.02,0.02 -0.04,0.02 -0.06,0.04 -0.03,0.02 -0.04,0.03 -0.13,0.08 -0.01,0.01 -0.04,0.02 -0.01,0.01 -0.04,0.03 -0.1,0.07 -0.04,0.02 -0.02,0.02 -0.08,0.05 -0.02,0.02 h -0.05 l -0.05,-0.01 h -0.01 l -0.18,-0.04 -0.12,-0.03 -0.1,-0.02 -0.12,-0.03 h -0.02 l -0.26,-0.07 -2.05,-0.48 -0.57,-0.14 h -0.01 -0.01 l -0.73,-0.18 -0.97,1.18 0.04,0.04 0.18,-0.21 0.46,0.34 1.66,1.22 0.18,0.08 0.13,0.08 0.03,0.02 0.01,0.02 0.04,0.01 3.13,2.58 0.7,0.58 0.72,0.61 5.2,4.44 0.81,0.71 1.01,0.89 0.2,0.18 0.27,0.23 1.54,1.35 0.46,0.4 1.26,1.11 0.51,0.44 0.5,0.44 0.36,0.31 0.5,0.44 0.13,0.11 0.29,0.25 -0.05,0.08 -0.01,0.08 v 0.01 l -0.05,-0.04 -1.37,1.41 -0.23,0.17 -1.05,0.24 -0.01,0.04 -0.55,0.19 -0.08,0.03 0.04,0.11 0.03,0.07 0.03,0.13 0.04,0.28 0.01,0.06 v 0.2 l 0.06,0.13 0.02,0.08 0.03,0.08 0.04,0.31 0.02,0.16 -0.13,0.03 0.15,1.89 0.02,0.33 0.01,0.08 -0.59,0.72 -0.06,0.07 -0.62,-0.36 -1.52,-0.88 -2.01,2.36 -0.08,-0.08 -0.08,-0.08 -0.08,-0.07 -0.1,-0.07 -0.12,-0.07 -0.32,-0.17 -0.03,0.02 -0.04,0.06 -0.05,0.06 -0.06,0.08 -0.04,0.05 -0.03,0.05 -0.02,0.02 -0.02,0.04 -0.03,0.05 -0.01,0.02 -0.06,0.16 -0.02,0.07 -0.01,0.06 v 0.07 0.13 l 0.01,0.04 v 0.02 l 0.01,0.06 0.01,0.06 v 0.02 l 0.01,0.05 v 0.06 l -0.01,0.02 v 0 0.04 l -0.01,0.06 h -0.01 l -0.02,0.07 -0.02,0.05 -0.03,0.06 -0.04,0.05 -0.02,0.03 -0.18,0.21 -0.2,0.22 v 0.01 l -0.06,0.07 -0.05,0.07 -0.13,0.15 -0.07,0.08 -0.05,0.07 0.11,0.06 0.07,0.05 0.31,0.2 0.19,0.12 0.15,0.09 -0.06,0.04 -0.02,0.04 -0.02,0.07 0.01,0.05 0.03,0.05 0.05,0.03 0.04,0.06 v 0.07 l -0.05,0.12 -0.01,0.02 -0.01,0.38 -0.02,0.13 -0.02,0.2 v 0.14 l -0.03,0.15 -0.03,0.12 -0.06,0.08 -0.09,0.05 -0.02,0.03 -0.08,0.03 -0.1,0.07 -0.1,0.04 -0.16,0.09 -0.25,0.17 -0.31,0.24 -0.32,0.18 -0.01,0.01 -0.18,0.13 -0.05,0.03 -0.06,0.02 -0.07,0.01 -0.13,-0.01 -0.15,-0.02 h -0.08 l -0.1,0.01 -0.06,0.02 -0.04,0.02 -0.04,0.02 -0.07,0.03 h -0.22 l -0.09,0.01 -0.06,0.03 -0.02,0.06 -0.05,0.1 -0.05,0.03 -0.05,0.01 H 409 408.97 l -0.1,0.01 -0.21,0.08 h -0.06 l -0.06,-0.02 -0.03,0.02 -0.05,0.03 -0.04,0.02 h -0.06 l -0.03,0.01 -0.03,0.02 -0.02,0.02 h -0.01 l -0.02,0.04 -0.04,0.06 -0.03,0.03 -0.03,0.01 -0.04,0.01 h -0.04 l -0.05,-0.01 -0.04,-0.01 -0.04,0.01 v 0.01 l -0.02,0.03 v 0.04 l 0.02,0.03 -0.01,0.02 h -0.03 l -0.03,-0.02 -0.05,-0.06 -0.05,-0.03 h -0.03 l -0.02,0.02 -0.01,0.03 0.01,0.04 0.03,0.05 0.04,0.06 0.02,0.04 -0.01,0.04 -0.01,0.04 -0.03,0.03 -0.04,0.02 -0.04,0.02 -0.06,0.02 -0.04,0.01 h -0.02 l -0.05,0.02 -0.02,0.01 h -0.01 l -0.01,0.02 -0.01,0.04 -0.01,0.02 v 0.01 l -0.03,0.02 h -0.07 l -0.06,0.01 -0.08,0.03 -0.02,0.02 -0.02,0.03 v 0.01 0.03 l 0.02,0.02 0.03,0.03 0.04,0.02 0.03,0.02 0.1,0.02 0.05,0.01 0.02,0.03 0.04,0.11 v 0.05 l -0.01,0.04 -0.01,0.03 -0.04,0.01 -0.05,0.02 -0.06,0.01 -0.06,-0.02 -0.09,-0.01 -0.04,-0.01 -0.07,0.01 -0.03,0.01 -0.02,0.02 0.01,0.02 0.03,0.01 0.06,0.03 0.03,0.04 0.02,0.04 v 0.06 0.05 l -0.03,0.05 -0.03,0.06 -0.05,0.06 -0.05,0.05 -0.03,0.04 -0.03,0.02 -0.02,0.04 -0.01,0.03 -0.03,0.05 0.01,0.03 0.04,0.04 0.04,0.03 0.04,0.03 0.03,0.03 0.01,0.04 v 0.05 l -0.02,0.05 0.02,0.02 0.03,0.01 0.13,-0.01 0.04,0.02 0.04,0.09 0.02,0.06 0.03,0.07 0.03,0.04 0.06,0.07 0.03,0.01 0.02,0.03 v 0.02 l -0.09,0.08 -0.1,0.06 -0.05,0.03 -0.03,0.01 h -0.05 l -0.07,-0.01 -0.06,-0.03 H 407 l -0.06,0.01 -0.03,0.02 -0.03,0.04 -0.02,0.04 -0.03,0.05 v 0.04 l 0.01,0.05 0.02,0.04 0.03,0.03 0.02,0.05 0.04,0.04 0.05,0.03 0.05,0.02 0.05,0.01 0.06,0.01 h 0.05 l 0.02,0.02 0.03,0.04 0.01,0.04 0.03,0.02 0.03,0.02 0.04,0.01 h 0.05 l 0.23,0.03 0.07,0.04 0.04,0.06 -0.01,0.05 -0.09,0.05 -0.17,-0.01 -0.16,-0.09 -0.24,-0.03 -0.18,0.01 -0.06,0.04 -0.02,0.06 0.05,0.06 0.11,0.05 0.25,0.03 0.17,0.06 0.16,0.19 0.07,0.22 0.01,0.17 0.15,0.34 0.03,0.05 -0.02,0.09 0.03,0.08 0.01,0.01 -0.1,0.01 h -0.04 l -0.04,0.01 -0.1,0.02 -0.11,0.02 -0.26,0.04 -0.41,0.08 -0.07,0.01 -0.05,0.01 -0.79,0.12 -0.2,0.03 -0.2,-0.03 -0.14,-0.02 -0.31,-0.05 -0.37,-0.1 -0.05,-0.02 -0.11,-0.09 -0.11,-0.09 -0.09,-0.15 -0.57,-0.97 -0.11,-0.23 -0.04,-0.19 -0.04,-0.17 -0.16,-0.19 -0.06,-0.12 0.01,-0.05 -0.07,-0.23 0.03,-0.18 0.08,-0.45 0.47,-0.76 0.04,-0.49 -0.02,-0.05 -0.04,-0.12 -0.04,-0.14 -0.3,-0.36 -0.14,-0.1 -0.18,-0.19 -0.11,-0.04 -0.17,-0.12 -0.16,-0.12 -0.11,-0.07 -0.1,-0.01 -0.11,-0.07 -0.19,-0.13 -0.35,-0.29 -0.35,-0.29 -0.15,-0.15 -0.3,-0.37 -0.15,-0.08 -0.45,-0.11 -0.14,-0.06 -0.06,0.02 -0.27,0.06 -0.52,0.06 -0.5,-0.15 -0.03,-0.01 -0.49,-0.54 -0.01,-0.17 0.03,-0.19 v -0.04 l 0.14,-0.1 0.14,-0.11 0.45,-0.2 h 0.06 l 0.26,0.05 0.12,-0.05 0.08,-0.04 0.08,-0.03 0.15,-0.07 0.1,-0.32 -0.03,-0.02 -0.11,-0.11 -0.12,-0.11 -0.15,-0.15 -0.03,-0.02 -0.36,-0.22 -0.04,-0.05 h -0.03 l -0.15,-0.09 -0.57,-0.61 -0.32,-0.32 -0.24,-0.06 -0.24,-0.07 h -0.11 -0.35 l -0.17,-0.03 -0.25,-0.16 -0.27,-0.27 -0.17,-0.24 -0.06,-0.09 -0.06,-0.08 -0.02,-0.03 -0.06,-0.1 -0.04,-0.07 -0.21,-0.09 -0.45,-0.13 -0.16,-0.05 -0.15,-0.2 -0.01,-0.18 0.33,-0.16 0.35,-0.34 0.01,-0.42 -0.04,-0.57 -0.06,-0.24 -0.01,-0.04 -0.13,-0.15 -0.28,-0.13 -0.18,-0.15 -0.03,-0.12 -0.03,-0.08 -0.01,-0.03 0.01,-0.04 0.11,-0.18 0.05,-0.09 0.12,-0.16 0.03,-0.03 0.03,-0.04 0.13,-0.19 -0.14,-0.1 -0.33,-0.17 -0.81,-0.19 -0.03,-0.04 -0.12,-0.16 -0.02,-0.03 v -0.05 l -0.03,-0.03 v -0.06 -0.03 l 0.01,-0.01 0.09,-0.13 0.23,-0.13 0.19,-0.1 0.07,-0.2 0.03,-0.09 v -0.05 l -0.02,-0.22 -0.14,-0.41 -0.09,-0.27 -0.26,-0.35 -0.06,-0.1 -0.15,-0.18 -0.5,-0.56 -0.27,-0.4 -0.01,-0.05 -0.06,-0.07 -0.09,-0.1 -0.16,-0.04 -0.01,-0.01 -0.09,-0.02 -0.04,-0.01 -0.15,-0.04 -0.04,0.03 -0.1,0.06 -0.25,0.14 -0.29,-0.04 -0.07,-0.03 -0.05,-0.05 -0.1,-0.12 -0.13,-0.33 -0.09,-0.23 -0.19,-0.22 -0.17,-0.04 -0.08,0.04 -0.08,0.05 -0.07,0.12 -0.18,0.11 -0.27,-0.02 -0.15,-0.07 -0.08,-0.1 -0.04,-0.1 0.01,-0.22 0.01,-0.04 0.03,-0.18 -0.01,-0.05 -0.01,-0.04 -0.08,-0.09 -0.12,-0.09 -0.31,-0.02 -0.09,0.01 -0.18,0.03 -0.03,0.01 -0.15,0.07 -0.21,0.08 -0.34,0.22 -0.08,0.26 0.07,0.17 -0.03,0.12 v 0.04 l -0.07,0.05 -0.02,0.02 -0.03,0.03 -0.03,0.01 -0.1,0.01 -0.04,0.02 -0.2,-0.02 -0.09,-0.05 -0.14,-0.03 -0.08,-0.02 -0.3,-0.22 -0.23,-0.02 -0.15,0.01 -0.17,0.06 -0.37,0.08 -0.18,0.01 -0.19,-0.02 -0.17,-0.06 h -0.14 l -0.32,-0.17 -0.12,-0.13 -0.12,-0.28 -0.21,-0.21 -0.23,-0.08 -0.26,-0.2 -0.25,-0.04 -0.14,0.05 -0.27,0.22 -0.2,0.09 -0.17,-0.02 -0.37,-0.15 -0.17,-0.03 -0.09,0.02 -0.18,0.14 -0.06,0.18 -0.05,0.06 -0.19,0.07 -0.17,-0.04 -0.38,-0.32 -0.31,-0.03 -0.19,0.06 -0.16,0.01 -0.23,-0.06 -0.07,-0.11 0.02,-0.15 0.32,-0.2 0.04,-0.28 -0.09,-0.12 -0.02,-0.02 -0.02,-0.03 -0.12,-0.06 -0.18,-0.03 -0.1,0.02 -0.21,-0.01 -0.12,-0.12 -0.01,-0.17 0.28,-0.17 0.05,-0.14 -0.15,-0.26 -0.2,-0.19 -0.04,-0.12 0.01,-0.22 -0.28,-0.61 -0.03,-0.31 -0.07,-0.07 -0.11,-0.04 -0.76,-0.1 h -0.25 l -0.05,0.02 -0.53,0.08 -0.19,0.05 -0.07,0.06 -0.07,0.12 -0.31,0.19 -0.09,0.02 h -0.27 l -0.11,-0.08 -0.15,-0.03 -0.11,0.05 -0.11,0.04 -0.08,-0.01 -0.08,-0.08 -0.12,-0.01 -0.24,0.04 -0.12,0.07 -0.08,0.01 -0.17,-0.03 -0.11,-0.15 -0.08,-0.01 -0.1,0.02 -0.21,0.15 -0.14,-0.01 -0.1,-0.17 v -0.21 l -0.05,-0.06 -0.6,-0.08 -0.03,-0.04 -0.18,-0.08 -0.08,-0.09 v -0.2 l -0.14,-0.19 -0.12,-0.21 -0.13,-0.15 -0.04,-0.02 h -0.02 v 0.08 l -0.14,0.95 -0.21,1.2 -0.09,0.32 -0.03,0.08 -0.03,0.08 -0.09,0.23 -0.03,0.08 -0.09,0.21 -0.06,0.17 -0.05,0.11 -0.04,0.11 -0.07,0.14 -0.12,0.07 -0.04,0.03 -0.05,0.03 -0.15,0.12 -0.31,0.25 -0.06,0.06 -0.13,0.1 -0.05,0.04 -0.09,0.08 -0.07,0.07 -0.02,0.02 -0.01,0.01 -0.16,0.21 -0.07,0.09 -0.04,0.05 -0.14,0.19 -0.04,0.05 -0.1,0.14 -0.05,0.06 -0.05,0.07 -0.45,0.63 -0.06,0.09 -0.25,0.34 -0.06,0.08 -0.07,0.09 -0.05,0.09 -0.07,0.08 -0.06,0.09 -0.06,0.09 -0.06,0.09 -0.05,0.07 -0.14,0.19 -0.26,0.37 -0.13,0.18 -0.08,0.08 -0.06,0.08 -0.1,0.07 -0.08,0.07 -0.08,0.07 -0.08,0.08 -0.09,0.07 -0.08,0.07 -0.17,0.14 -0.25,0.21 -0.25,0.21 -0.08,0.07 -0.09,0.07 -0.09,0.08 -0.43,0.36 -0.09,0.07 -0.09,0.07 -0.1,0.06 -0.09,0.05 -0.1,0.06 -0.05,0.02 -1.51,0.76 -0.52,0.31 -0.21,0.14 -0.13,0.1 -0.16,0.18 -0.94,1.04 -0.13,0.13 -0.07,0.08 -0.08,0.08 -0.46,0.48 -0.07,0.08 -0.32,0.32 -0.31,0.33 -0.24,0.25 -0.07,0.08 -0.24,0.25 -0.16,0.17 -0.08,0.08 -0.09,0.09 -0.12,-0.06 -2.34,-2.16 -0.27,-0.36 -0.71,-0.49 -0.42,-0.39 -0.12,-0.22 -0.03,-1.32 -2,-0.21 -3.07,1.22 -0.04,-0.09 -0.15,-0.24 -0.11,-0.19 -0.08,-0.15 h -0.01 l 0.01,-0.01 -0.02,-0.01 -0.01,-0.03 -0.49,-0.87 v -0.02 l -0.02,-0.02 v -0.07 l -0.02,-0.04 v 0 -0.04 l -0.05,-0.15 -0.01,-0.02 v -0.03 l -0.05,-0.12 -0.01,-0.04 v -0.02 l -0.03,-0.06 v -0.02 l -0.04,-0.13 -0.03,-0.05 -0.01,-0.03 v -0.02 l -0.03,-0.12 -0.01,-0.01 -0.01,-0.03 -0.01,-0.01 -0.02,-0.07 -0.15,-0.19 -0.27,-0.34 v -0.01 l -0.05,-0.07 v -0.01 l -0.02,-0.01 v -0.01 l -0.27,-0.32 0.01,-0.01 -0.04,-0.05 -0.05,-0.04 -0.06,-0.03 -0.93,-0.12 -0.12,-0.03 -0.71,-0.29 -0.19,-0.05 -0.18,-0.04 -3.1,-0.51 -0.15,-0.04 -0.09,-0.02 -0.08,-0.02 -0.1,-0.03 -2.06,-0.05 h -0.08 l -0.95,-0.02 -0.32,-0.01 -0.11,0.01 -0.3,0.1 -3.48,-1.54 -2.66,-1.18 -0.38,-0.17 -0.36,0.08 0.07,-0.22 -2.02,-0.92 -2.43,-1.09 -0.39,-0.18 -5.31,-2.68 -0.95,-0.46 -4.38,-2.18 -3.8,-1.92 -0.58,0.02 -0.21,-0.01 -0.13,0.01 -0.03,-0.35 -0.01,-0.05 -3.54,-1.86 -1.86,-0.91 -3.48,-1.75 -2.27,-1.14 -0.04,-0.02 -0.22,-0.11 -3.47,-1.75 -1.62,-0.75 -0.89,-0.44 -4.47,-2.29 -2.59,-1.31 -0.15,-0.06 -0.01,0.01 -0.04,0.08 -0.04,0.07 -0.05,0.08 -0.07,0.14 -0.34,-0.04 -0.99,-0.03 h -0.31 l -0.46,-0.02 -0.95,-0.02 -1.73,-0.06 h -0.26 l -0.38,-0.01 -0.28,-0.01 -0.2,-0.01 h -0.13 -0.07 l -0.19,-0.01 h -0.07 -0.06 -0.06 l -0.07,-0.01 -0.06,0.01 -0.12,-0.01 h -0.1 l -0.11,-0.01 h -0.28 l -0.26,-0.01 -0.02,0.01 h -0.04 l -0.14,-0.02 -0.01,-0.13 -0.87,0.1 -0.09,-0.54 0.12,-0.2 0.03,-0.17 -0.05,-0.17 -0.25,-0.3 -0.11,-0.63 0.07,-0.08 0.06,-0.08 0.75,-0.43 0.08,-0.09 0.07,-0.08 0.01,-0.01 0.01,-0.03 0.03,-0.04 0.04,-0.03 h -0.01 l -0.01,-0.02 -0.01,-0.03 -0.25,-0.38 -0.03,-0.06 1.04,-0.38 0.15,-0.22 v -0.28 l -0.06,-0.06 -0.91,0.09 -0.6,-0.42 0.06,-0.71 0.05,-0.23 0.05,-0.73 -0.03,-0.44 v -0.03 l -0.12,-0.6 -0.05,-0.35 0.24,-0.86 0.93,-0.64 2.35,-0.88 0.21,-0.1 0.12,-0.08 1.36,-0.74 0.31,-0.24 0.59,-0.54 0.19,-0.23 0.1,-0.18 0.12,-0.21 0.04,-0.06 0.1,-0.16 0.27,-0.52 0.17,-0.31 0.05,-0.11 0.94,-0.77 0.32,-0.18 0.18,-0.15 0.04,-0.05 0.11,-0.15 v -0.36 l -0.08,-0.22 0.16,-0.16 0.19,-0.09 0.17,-0.06 1.29,-0.54 4.26,-2.22 -0.02,1.21 3.13,-1.34 0.41,0.23 0.33,0.57 0.1,0.95 0.02,-0.05 0.06,-0.19 0.09,-0.23 0.14,-0.2 0.1,-0.11 0.05,-0.08 0.04,-0.12 v -0.13 l -0.03,-0.15 -0.04,-0.14 -0.06,-0.11 -0.14,-0.26 v -0.05 l 0.06,-0.04 0.24,-0.06 0.05,0.02 0.26,-0.03 0.08,0.01 0.16,0.06 h 0.06 l 0.13,-0.02 0.07,-0.02 0.08,-0.05 0.25,-0.21 0.29,-0.27 0.49,-0.48 0.13,-0.16 0.05,-0.06 0.09,-0.09 0.1,-0.06 0.1,-0.03 0.17,-0.01 0.14,0.02 h 0.11 l 0.12,0.01 h 0.15 l 0.26,-0.03 0.13,-0.01 h 0.02 l 0.11,-0.02 0.31,-0.04 h 0.15 l 0.24,0.01 0.26,-0.02 0.23,0.01 0.2,-0.02 0.25,-0.04 0.31,-0.07 0.14,-0.02 0.2,-0.02 0.38,-0.04 0.23,-0.01 0.21,-0.02 0.2,-0.04 0.19,-0.08 0.16,-0.02 0.19,-0.02 0.15,0.03 h 0.25 l 0.12,-0.01 0.17,-0.01 0.26,-0.03 0.31,-0.06 0.15,-0.01 0.09,-0.01 0.2,-0.05 -0.01,-0.13 -0.03,-0.24 -0.01,-0.08 -0.05,-0.61 -0.01,-0.08 v -0.07 l -0.01,-0.15 -0.01,-0.08 v -0.08 l -0.01,-0.08 v -0.08 l -0.01,-0.08 -0.01,-0.32 -0.01,-0.08 v -0.15 l -0.03,-0.31 -0.02,-0.08 -0.01,-0.08 -0.01,-0.08 -0.03,-0.07 -0.02,-0.08 -0.03,-0.07 -0.06,-0.09 -0.11,-0.15 -0.09,-0.13 -0.05,-0.06 -0.23,-0.32 -0.06,-0.06 -0.01,-0.02 -0.04,-0.04 -0.06,-0.06 -0.06,-0.05 -0.06,-0.06 -0.12,-0.09 -0.19,-0.15 -0.43,-0.31 -0.07,-0.05 -0.02,-0.01 -0.05,-0.04 -0.4,-0.29 -0.39,-0.29 -0.4,-0.29 -0.12,-0.1 -0.06,-0.05 -0.12,-0.11 -0.05,-0.06 -0.11,-0.11 -0.05,-0.06 -0.04,-0.06 -0.03,-0.03 -0.06,-0.09 -0.11,-0.19 -0.04,-0.07 -0.07,-0.13 -0.04,-0.06 -0.14,-0.25 -0.04,-0.06 -0.14,-0.25 -0.03,-0.06 -0.04,-0.06 -0.03,-0.05 -0.25,-0.44 -0.13,-0.21 -0.08,-0.15 -0.25,-0.41 -0.1,-0.16 -0.11,-0.16 -0.06,-0.08 -0.19,-0.24 -0.11,-0.18 -0.06,-0.12 h 0.07 l 0.14,-0.06 0.27,-0.12 0.12,-0.03 0.26,-0.03 h 0.17 l 0.15,0.01 0.05,0.01 0.12,0.07 0.31,0.27 0.1,0.05 0.21,0.06 0.32,0.09 0.1,0.05 0.13,0.08 0.05,0.02 0.2,0.03 0.11,0.03 0.07,0.15 0.04,0.05 0.09,0.06 0.24,0.1 0.32,0.08 0.06,0.02 0.13,0.08 0.16,0.16 0.04,0.02 0.12,0.03 0.05,0.02 0.14,0.02 0.09,-0.01 0.08,0.01 0.13,0.06 0.06,0.05 0.06,0.06 0.08,0.03 0.05,0.01 0.22,-0.01 0.13,0.01 h 0.15 l 0.21,0.04 0.27,0.03 h 0.23 l 0.2,-0.01 H 309 l 0.05,0.01 0.06,-0.03 0.26,-0.05 0.22,-0.06 0.24,-0.09 0.17,-0.09 0.26,-0.2 0.19,-0.16 0.19,-0.12 0.14,-0.04 0.16,-0.01 0.14,0.02 0.08,0.02 0.14,0.02 0.21,0.08 0.11,0.02 0.17,0.01 h 0.16 l 0.2,-0.02 0.21,0.01 0.1,0.03 0.2,0.08 0.13,0.06 0.14,0.03 0.27,0.05 0.23,0.07 0.25,0.16 0.22,0.13 0.2,0.11 0.23,0.09 0.1,0.03 0.22,0.15 0.11,0.1 0.21,0.23 0.11,0.12 0.06,0.05 0.08,0.03 0.13,0.02 0.07,0.01 0.38,0.11 0.1,0.01 0.19,0.01 0.19,0.03 0.22,0.01 0.22,-0.01 0.25,-0.05 0.21,-0.05 0.26,-0.11 0.21,-0.06 0.41,-0.07 h 0.14 l 0.1,0.03 0.1,0.01 h 0.12 l 0.2,-0.03 h 0.08 l 0.1,-0.03 0.25,-0.04 h 0.03 l 0.24,-0.02 0.06,-0.02 0.21,-0.02 0.14,-0.02 0.24,0.01 0.48,0.05 0.25,0.07 0.14,0.04 0.14,0.01 0.08,-0.02 0.25,-0.09 0.14,-0.03 0.06,-0.02 0.15,0.01 0.05,0.01 h 0.06 0.24 l 0.23,0.02 0.22,0.05 0.11,0.03 0.22,0.07 0.16,0.03 h 0.16 l 0.16,-0.03 0.11,-0.03 0.41,-0.16 0.36,-0.12 0.39,-0.08 0.18,-0.01 0.09,-0.01 0.22,-0.02 0.08,-0.02 0.29,-0.11 0.22,-0.07 0.19,-0.03 h 0.72 0.14 l 0.37,0.07 0.17,0.02 0.03,0.01 0.13,0.03 0.28,0.03 0.2,0.04 0.18,0.08 0.04,0.03 0.18,0.08 0.16,0.08 0.37,0.24 0.14,0.1 0.15,0.1 0.13,0.08 0.3,0.22 0.16,0.15 0.05,0.06 0.08,0.06 0.25,0.11 0.16,0.1 0.13,0.1 0.1,0.1 0.06,0.07 0.08,0.14 0.04,0.11 0.01,0.18 -0.01,0.14 -0.03,0.17 0.1,-0.18 0.1,-0.19 0.05,-0.06 0.24,-0.22 0.14,-0.1 0.09,-0.08 0.13,-0.13 0.12,-0.16 0.05,-0.08 0.09,-0.33 0.07,-0.25 0.05,-0.38 0.07,-0.18 0.05,-0.07 0.06,-0.11 0.13,-0.28 0.11,-0.1 0.09,-0.06 0.19,-0.08 0.11,-0.07 0.09,-0.05 0.06,-0.08 0.2,-0.2 0.11,-0.13 0.11,-0.16 0.09,-0.1 0.05,-0.06 0.05,-0.08 0.06,-0.08 0.13,-0.15 0.19,-0.17 0.27,-0.19 0.21,-0.14 0.12,-0.06 0.28,-0.1 0.2,-0.06 0.11,-0.05 0.2,-0.07 0.16,-0.08 0.05,-0.02 0.14,-0.08 0.14,-0.08 0.15,-0.1 0.07,-0.06 0.12,-0.11 0.2,-0.16 0.59,-0.36 0.21,-0.16 0.19,-0.13 0.04,-0.05 0.04,-0.1 0.03,-0.08 0.11,-0.13 0.14,-0.13 0.15,-0.11 0.2,-0.17 0.09,-0.1 0.1,-0.14 0.09,-0.17 0.05,-0.24 v -0.11 -0.21 l 0.01,-0.08 v -0.02 l 0.02,-0.16 0.01,-0.09 0.03,-0.07 0.01,-0.01 0.04,-0.03 0.01,-0.01 0.15,-0.09 0.02,0.01 0.14,-0.05 0.32,-0.09 0.31,-0.11 0.49,-0.25 0.17,-0.1 0.14,-0.12 0.21,-0.22 0.07,-0.09 0.14,-0.18 0.04,-0.08 0.03,-0.09 -0.01,-0.09 -0.1,-0.17 -0.04,-0.08 -0.01,-0.08 0.02,-0.06 0.07,-0.11 0.1,-0.09 0.13,-0.13 0.01,-0.07 v -0.06 -0.11 l 0.03,-0.11 0.06,-0.09 0.08,-0.07 0.08,-0.05 0.08,-0.07 0.14,-0.1 0.12,-0.12 0.06,-0.09 0.07,-0.13 -0.39,4.67 0.18,0.26 0.42,0.19 0.32,0.01 0.74,-0.42 4.31,-2.17 3.69,1.8 0.9,0.42 0.02,0.02 0.03,0.02 0.01,0.03 0.01,0.01 0.03,0.04 0.01,0.01 0.01,0.02 V 199 l 0.02,0.02 0.05,0.07 0.39,-0.18 0.02,-0.01 0.11,-0.06 0.19,-0.11 0.15,-0.09 0.21,-0.15 0.08,-0.04 0.31,-0.2 0.07,-0.05 0.45,-0.28 0.18,-0.12 0.15,-0.09 0.16,-0.09 0.08,-0.04 0.25,-0.1 0.17,-0.06 0.08,-0.03 0.18,-0.05 0.16,-0.05 0.16,-0.05 0.49,-0.2 0.17,-0.07 0.08,-0.03 0.2,-0.09 0.04,-0.01 0.08,-0.03 0.24,-0.1 0.05,-0.03 0.17,-0.09 0.07,-0.04 0.08,-0.04 0.23,-0.14 0.08,-0.04 0.07,-0.05 0.32,-0.17 0.09,-0.04 0.08,-0.04 0.06,-0.02 6.42,4.23 15.83,10.44 0.44,0.3 1.24,0.81 8.63,5.69 3.73,2.81 z"
       id="path3646"
       style="fill:#e27f7f;fill-opacity:1;stroke:#ffffff;stroke-opacity:1" />
    <path
       d="m 13.87,601.5 -0.95,1.05 -0.2,-0.15 -0.06,-0.19 0.22,-0.23 0.37,-0.24 z m -6.92,-53.18 0.02,-0.42 0.01,-0.09 0.01,-0.19 0.17,-0.51 0.57,-1 0.01,-0.3 -0.08,-0.14 -0.04,-0.3 0.43,-0.93 0.04,-0.16 -0.03,-0.28 -0.05,-0.14 -0.02,-0.5 0.09,-0.26 0.14,-0.22 0.51,-0.46 0.48,-0.68 0.56,-1.35 0.15,-0.01 0.61,-0.39 0.86,-0.3 0.17,-0.24 0.06,-0.23 -0.06,-0.21 -0.18,-0.3 0.02,-0.18 0.09,-0.21 -0.02,-0.16 -0.16,-0.11 -0.24,-0.1 -0.03,-0.06 0.11,-0.2 -0.02,-0.14 -0.36,-0.29 -0.03,-0.1 0.13,-0.22 v -0.23 l -0.11,-0.19 -0.49,-0.5 -0.34,-0.25 -0.18,-0.09 -0.35,-0.34 -0.26,-0.47 -0.01,-0.09 -0.07,-0.1 -0.13,-0.42 -0.09,-0.31 -0.26,-0.6 0.01,-0.04 -0.17,-0.29 0.01,-0.04 -0.42,-0.74 -0.09,-0.41 0.05,-0.68 0.07,-0.71 0.05,-0.5 -0.01,-1.04 -0.32,-0.87 0.01,-0.27 0.08,-0.25 v -0.42 l -0.13,-0.74 -0.03,-0.03 v -0.08 l -0.2,-0.32 -0.33,-0.39 -0.14,-0.42 -0.24,-0.37 -0.43,-0.43 -0.78,-0.56 -0.43,-0.55 -0.05,-0.06 -0.8,-0.58 -0.48,-0.41 -0.3,-0.4 -0.09,-0.34 0.01,-0.35 0.08,-0.31 -0.05,-0.3 -0.64,-0.84 -0.06,-0.11 -0.27,-0.31 -0.77,-0.68 -0.09,-0.13 -0.3,-0.71 -0.28,-0.65 -0.05,-0.2 0.03,-0.2 0.12,-0.73 -0.11,-0.82 0.08,-0.37 0.25,-0.44 0.11,-0.6 0.08,-0.56 0.02,-0.09 5.45,0.37 4.5,0.32 0.55,0.13 0.78,0.44 0.36,0.13 3.88,0.56 0.71,0.16 3.24,1.91 5.36,3.16 2.92,1.67 1.77,0.28 0.42,0.06 0.46,0.07 1.61,0.25 -0.14,0.77 -0.15,0.82 h 0.03 l 0.12,0.06 0.14,0.07 0.08,0.07 0.11,0.1 0.09,0.08 0.05,0.07 0.07,0.12 0.06,0.12 0.1,0.42 0.16,0.66 0.02,0.12 0.01,0.1 0.03,0.22 0.1,0.41 0.01,0.14 -0.05,0.21 -0.08,0.26 -0.11,0.26 -0.26,0.6 -0.14,0.32 -0.14,0.32 -0.25,0.56 -0.13,0.3 -0.28,0.67 -0.16,0.37 -0.08,0.19 -0.1,0.23 -0.14,0.31 -0.02,0.03 -0.01,0.06 0.03,0.03 0.05,0.03 0.36,0.2 -0.05,0.08 0.11,0.02 0.09,0.02 0.13,0.05 0.36,0.19 0.84,0.47 0.37,0.21 0.46,0.25 0.2,0.12 0.63,0.36 0.98,0.54 0.14,0.08 0.21,0.12 0.46,0.24 0.17,0.11 0.14,0.08 0.32,0.17 0.04,0.02 0.37,0.21 0.05,0.03 0.31,0.16 0.06,0.03 0.02,0.01 0.42,0.23 0.41,0.23 0.63,0.35 0.21,0.13 0.32,0.18 0.29,0.15 0.34,0.2 0.23,0.12 0.06,0.04 -0.1,0.28 -2.33,4.35 -0.16,1.51 -0.05,0.81 -0.05,1 -0.2,3.67 -0.01,0.2 -0.01,0.42 0.11,1.98 -0.53,-0.06 -2.7,-0.29 -1.74,-0.26 -4.49,-0.55 -3.68,-0.46 -5.9,-0.72 -2.25,-0.28 -1.54,-0.06 -3.82,-0.1 -2.08,-0.06 -1.96,-0.05 -1.85,-0.03 0.19,0.79 -0.01,-0.01 -0.06,-0.12 -0.04,-0.19 -0.01,-0.05 -0.01,-0.05 -0.03,-0.17 -0.01,-0.05 -0.02,-0.1 z"
       fill-rule="evenodd"
       id="path3648"
       style="fill:#d75d5d;fill-opacity:1;stroke:#ffffff;stroke-opacity:1" />
    <path
       d="m 719.89,134.3 0.29,-0.04 0.33,-0.04 0.83,-0.09 0.45,0.19 0.34,0.16 0.07,0.03 0.03,0.01 0.08,0.04 0.04,0.03 0.04,0.02 0.38,0.29 0.61,0.45 0.59,0.29 0.42,0.2 0.2,0.1 0.58,0.28 0.07,0.03 0.12,0.05 0.01,0.01 0.37,0.15 0.63,0.24 0.43,1.85 0.69,0.54 0.1,0.08 0.17,0.09 0.52,0.31 1.58,0.92 0.01,0.01 0.53,0.26 0.42,0.21 0.64,0.31 0.22,0.11 0.87,0.43 0.02,0.01 0.07,0.04 1.54,2.31 0.06,0.11 0.41,0.74 0.2,0.35 0.21,0.38 0.27,0.48 0.01,0.02 0.08,0.15 0.12,0.22 0.06,0.11 0.14,0.25 0.01,0.01 0.01,0.01 0.01,0.02 0.02,0.04 0.02,0.04 0.1,0.1 0.05,0.04 0.02,0.02 0.22,0.21 0.06,0.06 0.2,0.2 0.02,0.02 0.14,0.14 0.94,0.91 0.05,0.04 0.06,0.07 0.1,0.1 0.2,0.19 v 0 l 0.14,0.08 0.13,0.07 0.1,0.06 0.16,0.08 0.15,0.08 0.1,0.06 0.15,0.08 0.18,0.1 0.08,0.04 0.19,0.11 0.15,0.08 0.34,0.19 0.51,0.28 0.51,0.28 0.34,0.18 0.32,0.18 0.12,0.06 2.25,0.57 h 0.01 l 0.4,0.11 1.21,0.31 0.2,0.04 0.7,0.49 1.21,0.83 0.36,0.25 0.06,0.05 0.03,0.02 0.03,0.03 0.09,0.07 0.02,0.02 0.38,0.33 0.62,0.53 0.59,0.51 0.4,0.34 0.12,0.11 3.59,2.39 2.06,0.62 0.72,0.3 0.6,0.26 0.32,0.13 0.5,0.22 0.35,0.34 0.25,0.24 v 0.01 l 0.21,0.2 0.65,0.62 0.1,0.11 0.13,0.08 0.06,0.03 0.27,0.16 0.07,0.05 0.1,0.06 0.04,0.02 0.03,0.02 0.07,0.04 0.02,0.01 0.03,0.02 0.75,0.45 0.89,-0.03 0.44,-0.01 0.08,-0.01 h 0.14 l 0.11,-0.01 h 0.08 l 0.05,-0.01 h 0.07 l 0.07,-0.01 h 0.05 l 0.57,-0.04 1.67,-0.11 4.32,0.61 0.83,0.3 0.06,0.02 0.12,0.04 0.18,0.06 0.18,0.06 0.12,0.04 0.37,0.13 0.37,0.12 0.07,0.03 0.68,0.23 0.03,0.03 0.07,0.04 0.47,0.22 0.46,0.21 0.35,0.17 0.53,0.24 0.52,0.25 0.35,0.17 h 0.01 l 0.03,0.01 h 0.01 l 1.18,0.56 0.07,0.01 0.4,0.03 1.42,0.12 0.48,0.04 0.13,0.02 0.2,0.01 0.21,0.02 0.13,0.01 0.48,0.04 0.64,0.06 0.81,-0.01 0.48,-0.01 h 0.34 0.41 l 0.35,-0.01 h 0.27 0.2 l 1.61,-0.02 1.06,-0.4 h 0.2 l 0.26,-0.01 0.06,-0.01 1.4,-0.02 2.17,0.68 v 0 l 0.14,0.05 0.33,0.1 0.17,0.07 0.12,0.03 0.17,0.05 0.15,0.05 0.09,0.02 0.03,0.03 h 0.01 l 0.02,0.01 0.1,-0.01 1.19,0.26 0.2,0.08 0.08,0.03 v 0 l 1.05,0.37 2.57,1.33 1.06,0.88 0.87,1.47 0.1,0.52 -0.21,1.39 -0.5,1 -0.09,0.09 -0.07,0.05 -0.02,-0.01 -0.1,0.33 -0.05,0.16 -0.39,0.72 -0.02,0.04 -0.13,0.32 -0.04,0.08 -0.05,0.13 -0.06,0.13 -0.04,0.09 -0.01,0.02 -0.8,1.04 -0.39,0.46 -0.28,0.38 -0.1,0.15 -0.14,0.09 -0.51,0.38 -1.34,0.71 -0.49,0.27 -0.59,0.32 -0.32,0.19 -0.53,0.28 -0.73,0.41 -0.82,0.45 -0.56,0.31 -0.13,0.07 -0.23,0.07 -0.46,0.33 -0.11,0.09 -0.46,0.21 -6.54,3.01 -4.61,1.79 -3.34,3.03 -2.17,0.99 -0.94,1.75 -0.75,2.54 -1.84,4.9 -2.55,7.49 -4.44,8.49 -3.9,7.09 -1.14,4.81 -5.14,0.19 -2.92,-0.32 -7.64,0.54 -9,0.63 -3.02,-1.54 0.76,-0.45 4.49,0.38 4.8,-0.38 0.2,-2.88 -1.72,-0.97 -0.36,0.73 -0.95,1.63 -4.13,-0.76 -16.62,1.57 -8.07,1.18 -1.88,-0.6 -3.92,0.74 -2.76,-1.91 0.28,-0.85 -6.99,-5.28 -1.3,-2.46 -7.08,-1.16 -1.26,-0.88 -3.14,0.95 v 0.62 l -0.01,1.09 -1.29,1.36 -2.89,1.13 -1.82,-0.25 -2.78,1.17 -1.55,1.08 -1.25,0.15 -2.56,1.64 -1.37,1.09 -2.25,0.67 -2.21,2.09 -2.17,1.27 -0.27,1.7 -0.92,1.08 -0.17,1.91 -1.31,2.2 -2.81,2.79 -2.58,1.89 -0.11,0.64 -1.07,0.17 -2.55,3.21 0.5,1.77 -0.32,1.26 -0.81,1.02 -4.38,4.85 -0.05,3.58 2.18,4.58 3.07,4.04 h 0.09 l 9.16,-0.23 -0.09,-1.37 1.62,-0.69 0.39,-0.16 0.77,-0.97 0.27,-0.04 1.23,-0.21 1.19,0.68 0.31,2.11 -0.55,3.09 -1.58,4.88 -1.36,1.82 -22.82,8.12 -4.85,3.37 -2.22,2.35 -1.39,-0.18 -2.83,0.26 -5.14,2.77 -6.39,3.69 -5.53,4.05 -2.16,0.68 -0.28,0.96 -0.21,0.72 -0.05,1.7 -2.05,3.6 -2.88,1.21 -4.45,3.45 0.46,2.22 0.3,1.47 0.01,0.05 0.06,0.28 -1.2,2.65 -2.59,2.35 -4.65,2.01 -9.06,2.28 -14.17,5.53 -0.95,0.51 -0.83,0.45 -0.06,0.03 -6.12,3.28 -2.86,0.14 -0.54,-0.01 h -0.67 l -0.24,1.99 -1.7,1.87 -2.06,1.3 -0.55,0.35 -4.57,1.65 -2.9,1.04 -3.84,1.46 -2.7,-0.57 -3.64,-3.04 -1.68,-2.05 0.5,-0.84 0.07,-0.11 0.43,-0.72 0.35,-0.6 -0.92,-1.78 -2.36,-1.52 -3.38,-3.4 -3.62,-1 -0.57,0.12 -1.82,0.38 -4,0.68 -2.77,0.23 -5.04,0.89 v -0.15 l 0.01,-0.82 0.01,-0.11 0.03,-0.31 0.02,-0.47 0.04,-1.41 0.02,-0.47 0.01,-0.1 0.03,-0.37 0.12,-1.39 0.04,-0.47 0.07,-0.68 0.01,-0.13 0.09,-0.8 0.09,-0.9 0.02,-0.22 0.04,-0.34 0.01,-0.07 0.02,-0.27 0.01,-0.07 0.03,-0.23 0.01,-0.07 0.02,-0.72 0.05,-2.16 0.01,-0.72 0.03,-0.28 0.17,-1.88 0.18,-0.45 0.11,-0.36 -0.11,0.01 0.11,-0.01 1.37,-0.2 1.35,-1.44 1.01,-0.35 1.94,-0.91 1.3,-1.04 0.57,-0.63 0.48,-0.71 0.2,-0.31 0.45,-2.81 0.02,-0.61 0.04,-2.04 -0.89,-2.7 -0.63,-2.78 0.24,-1.08 0.76,-1.09 1.11,-0.89 3.92,-2.57 0.73,-0.35 0.33,-0.09 3.18,0.15 0.98,-0.03 3.09,-0.38 1.59,-0.4 0.96,-0.27 1.3,-0.53 1.59,-1.01 1.02,-1.43 1.41,-1.99 0.19,-0.46 0.44,-1.05 0.83,-1.39 0.4,-0.61 1.06,-2.09 1.27,-3.74 0.25,-1.22 -0.55,-1.65 0.06,-1.96 1.06,-1.91 1.05,-1.33 0.3,0.02 2.97,0.23 1.52,0.15 0.71,-0.54 0.85,-0.65 1.01,0.18 1.78,-2.31 0.68,-0.63 2.48,-0.7 2.86,-0.13 0.44,-0.34 0.51,-0.35 1.29,-1.42 0.92,-0.6 1.89,-0.9 4.09,-2.76 0.89,-0.32 1.02,0.05 1.92,0.96 1.69,-0.1 -0.36,-0.91 0.62,-1.28 0.59,-2.22 0.75,-0.57 -0.13,-1.02 0.73,0.21 0.41,-0.91 0.73,0.1 0.03,-0.84 -0.43,-0.88 -0.64,-1.84 -1.55,-2 0.02,-1.38 0.7,-0.99 -0.35,-0.82 0.77,-1.8 2.15,-4.38 1.58,-1.34 0.92,-1.17 1.49,-1.34 2.03,-1.13 2.67,-2.45 5.8,-3.3 0.59,-0.67 1.15,-2.68 2.23,-5.02 1.78,-2.69 1.38,-1.71 0.94,-0.59 4.36,-1.82 0.99,-1.23 0.45,-1.79 0.54,-1.11 0.58,-0.53 1.49,-0.91 1.05,-0.91 1.8,-1.97 0.64,-1.13 1.07,-0.96 1.99,-2.19 2.4,-3.19 3.42,-2.53 2.36,-1.44 0.6,-0.58 2.29,-4.55 2.87,-4.11 0.68,-1.27 0.25,-0.92 v -1.19 l 0.87,-1.47 0.87,-1.36 2.24,-1.56 1.86,-0.98 2.09,0.27 0.76,-0.2 2.42,-1.81 0.84,-1.43 2.12,-0.43 1.7,-0.64 0.88,1 0.7,1.4 4.18,-0.43 1.04,-2.55 0.23,-1.01 0.71,-0.71 1.87,-0.32 0.81,-0.31 1.5,-0.99 1.29,0.08 1.57,-0.74 3.96,-0.68 1.24,-0.91 1.37,-0.65 0.71,-0.95 1.66,-0.47 2.52,0.4 2.26,-0.04 2.1,1.38 0.55,1.18 1.8,1.18 2.7,1.53 0.76,-0.08 0.82,-0.68 1.28,0.04 0.25,-0.25 1.11,0.14 1.55,-0.38 0.81,-0.41 0.73,-0.65 1.22,-2.03 0.99,-1.07 -0.1,-0.63 0.53,-0.22 -0.43,-1.26 0.23,-0.56 -0.26,-1.11 0.2,-0.78 0.41,-0.15 0.47,-0.73 0.76,0.06 1.03,-0.41 0.26,-1.18 0.93,-0.52 0.49,-0.96 -0.38,-1.13 1.23,-0.65 0.6,0.23 1.51,0.16 -0.12,-1.08 0.38,-0.05 0.12,-0.82 -0.08,-1.6 0.42,-0.07 0.54,-1.06 0.5,-0.02 0.13,-1.87 0.91,-0.84 0.21,0.33 1.7,0.27 0.52,-0.96 -0.19,-0.4 0.74,-0.27 -0.01,-0.39 0.64,-0.5 -0.72,-1.74 0.39,-0.95 0.69,0.12 0.38,-0.39 1.39,0.56 0.37,-0.95 -0.49,-0.5 0.21,-0.56 0.51,-0.04 -0.23,-0.45 1.62,-0.22 0.05,-0.57 1.1,-0.02 1.61,1.76 0.31,-0.04 0.07,-0.92 0.4,-0.19 1.65,0.7 0.87,-0.2 0.45,-0.56 0.59,-0.08 -0.13,-0.62 0.71,0.62 0.97,-0.32 0.49,0.75 1.84,0.52 0.31,-1.31 1.1,-0.75 -0.02,-0.75 0.22,-0.06 0.34,-0.08 0.33,-0.09 0.22,-0.05 0.03,-0.01 0.05,-0.01 0.04,-0.01 0.03,-0.01 0.25,-0.06 0.75,-0.19 z m -431.84,256.16 0.13,-0.14 0.41,-0.43 0.13,-0.14 0.6,-0.67 0.91,-0.41 0.44,-0.09 0.4,0.15 0.03,0.02 0.54,0.49 0.36,0.55 0.27,0.36 0.35,0.39 0.46,0.23 0.78,0.26 0.64,-0.09 0.19,-0.35 0.12,-0.37 0.13,-0.63 0.03,-0.57 0.18,-0.41 0.13,-0.2 0.3,-0.13 0.29,-0.03 0.32,0.04 0.31,0.1 0.14,0.07 0.29,0.14 0.85,0.46 0.72,0.28 0.4,0.26 0.19,0.2 0.04,0.25 -0.13,0.33 -0.21,0.32 -0.21,0.23 -0.34,0.21 -0.43,0.27 -0.33,0.23 -0.24,0.24 -0.11,0.22 -0.02,0.3 0.09,0.23 0.51,0.52 0.39,0.23 0.29,0.07 0.32,-0.05 0.3,-0.11 0.01,-0.01 0.38,-0.23 0.39,-0.21 0.37,-0.11 h 0.27 l 0.21,0.13 0.29,0.45 0.31,0.69 0.25,0.14 h 0.29 l 0.66,-0.15 0.77,-0.3 0.56,-0.35 0.4,-0.36 0.27,-0.36 0.22,-0.18 0.26,-0.04 0.15,0.02 0.11,0.1 0.08,0.15 0.12,0.73 -0.01,0.42 -0.09,0.56 0.02,0.26 0.26,0.13 0.32,-0.08 0.16,-0.09 0.18,-0.41 0.21,-0.69 0.11,-0.24 0.15,-0.11 0.27,0.02 0.26,0.15 0.69,0.62 0.87,0.88 0.1,0.19 v 0.19 l -0.11,0.19 -0.56,0.32 -0.87,0.52 -0.26,0.22 -0.25,0.21 -0.32,0.42 -0.08,0.41 0.12,0.46 0.32,0.22 0.35,0.11 0.41,0.06 0.13,0.02 0.64,0.01 0.73,-0.1 1.34,-0.51 0.84,-0.51 0.54,-0.19 0.42,-0.06 0.89,0.17 0.1,0.04 1.01,0.44 0.41,0.16 0.54,0.21 0.62,0.18 0.15,-0.02 0.14,-0.01 0.06,-0.03 0.34,-0.19 0.6,-0.5 0.28,-0.48 0.26,-0.51 -0.09,-0.5 -0.31,-0.54 -0.39,-0.48 -0.16,-0.5 0.22,-0.38 0.38,-0.22 0.39,-0.04 0.79,0.19 0.83,0.36 0.13,0.05 0.78,0.37 0.43,0.22 0.57,0.29 0.8,0.27 0.65,0.22 0.31,0.28 0.09,0.33 -0.01,0.02 -0.09,0.4 -0.38,0.33 -0.51,0.23 -0.86,0.49 -0.53,0.38 -0.29,0.41 -0.12,0.44 0.09,0.45 0.24,0.39 0.42,0.28 0.52,0.09 h 0.68 0.07 0.69 l 0.66,0.09 0.74,0.22 1.35,0.56 1.11,0.42 0.92,0.35 0.77,0.21 0.12,0.1 0.39,0.3 0.74,0.3 0.27,0.22 0.34,0.27 0.17,0.01 0.37,0.03 0.22,0.06 1.23,0.36 0.1,0.02 2.75,0.56 0.04,-0.03 0.78,-0.09 2.3,-0.32 0.63,-0.09 1.3,-0.37 0.32,-0.09 0.67,-0.2 0.27,-0.03 0.33,-0.04 -0.05,-0.05 0.04,-0.18 0.17,-0.75 0.06,-0.24 0.23,-1.61 0.15,-0.99 0.71,-1.93 0.62,-1.7 0.33,-0.91 0.2,-0.62 0.88,-0.68 1.09,-0.76 0.7,-0.49 1.9,-0.98 1.7,-0.82 0.62,-0.27 0.39,-0.02 0.71,-0.53 0.46,-0.13 0.78,-0.22 1.24,-0.46 0.27,-0.13 0.74,-0.35 1,-0.76 0.18,-0.41 0.2,-0.44 0.15,-0.98 0.08,-1.25 0.01,-0.3 -0.65,-1.33 -0.85,-1.05 -0.49,-1.18 -0.1,-0.41 -0.07,-0.3 0.09,-0.74 0.24,-0.55 0.65,-0.49 0.06,-0.01 2.34,-0.45 0.18,-0.07 1.34,-0.56 1.75,-0.51 1.39,-0.65 0.72,-0.53 0.44,-0.6 0.02,-0.17 0.05,-0.28 -0.19,-0.61 -0.01,-0.07 -0.02,-0.15 -0.05,-0.4 -0.07,-0.64 0.04,-0.88 0.45,-0.47 0.07,-0.07 1.02,-0.69 0.01,-0.01 1.37,-0.25 1.23,0.41 1.16,0.31 0.05,-0.03 1.09,-0.52 0.07,-0.09 0.84,-1.11 0.48,-0.43 0.93,-0.46 0.15,-0.07 0.99,-0.49 1.34,-0.77 0.93,-0.79 2.18,-1.25 h 0.05 l 1.28,-0.06 0.81,-0.01 0.52,0.02 0.33,0.01 1.63,0.23 0.41,0.12 0.64,0.18 0.57,0.31 0.43,0.22 0.75,0.09 0.6,-0.13 0.08,-0.05 0.39,-0.24 0.17,-0.08 -0.01,-0.1 -0.03,-0.29 -0.01,-0.09 -0.01,-0.11 0.07,-0.31 0.02,-0.11 0.08,-0.34 0.53,-0.79 0.89,-1.04 0.77,-0.89 1.01,-1.49 0.21,-0.8 v -0.04 l -0.08,-0.33 -0.6,-0.32 -0.74,-0.35 -0.25,-0.64 -0.34,-1.61 -0.07,-0.33 -0.18,-0.62 -0.84,-0.75 -0.38,-0.41 -0.09,-0.1 -0.15,-0.26 0.12,-0.39 0.02,-0.08 0.65,-1.21 0.63,-0.9 0.47,-0.66 0.02,-0.03 0.1,-0.09 0.09,-0.08 0.03,-0.03 0.3,-0.27 0.03,-0.03 0.05,-0.04 0.05,-0.05 0.06,-0.05 0.06,-0.05 0.11,-0.11 0.03,-0.04 0.07,-0.07 0.13,-0.08 0.29,-0.26 0.11,-0.29 0.27,-0.72 0.01,-0.02 0.44,-0.56 0.43,-0.28 0.09,-0.04 0.46,-0.25 0.08,-0.04 0.08,-0.05 0.26,-0.08 0.4,-0.13 0.39,-0.03 h 0.11 l 0.08,-0.01 h 0.08 l 0.12,-0.01 0.45,0.01 0.37,0.01 0.38,0.16 0.39,0.15 0.27,0.11 0.86,0.45 0.57,0.05 0.27,0.05 0.31,0.04 0.3,0.05 0.26,0.04 0.78,0.06 h 0.7 l 0.72,0.06 0.49,0.03 h 0.11 l 0.1,0.01 0.25,0.01 0.14,-0.05 0.38,-0.15 0.79,-0.4 0.25,-0.12 0.06,-0.11 0.12,-0.22 0.04,-0.3 0.01,-0.06 0.07,-0.29 0.13,-0.36 0.08,-0.43 0.01,-0.03 0.06,-0.72 0.01,-0.04 0.01,-0.14 0.19,-0.31 0.13,-0.13 0.24,-0.26 0.6,-0.43 0.63,-0.36 0.08,-0.1 0.02,-0.06 0.03,-0.04 0.01,-0.02 0.19,-0.29 -0.06,-0.73 -0.31,-0.74 -0.25,-0.52 -0.31,-0.91 -0.09,-0.43 -0.04,-0.37 0.01,-0.1 0.06,-0.37 0.02,-0.13 0.02,-0.03 0.1,-0.15 0.09,-0.15 0.26,-0.4 0.14,-0.24 0.06,-0.09 0.05,-0.08 0.05,-0.08 0.05,-0.09 0.04,-0.07 0.05,-0.07 0.16,-0.26 0.17,-0.26 0.03,-0.06 0.01,-0.01 0.05,-0.07 0.04,-0.07 0.14,-0.22 0.13,-0.21 0.18,-0.27 0.04,-0.06 0.12,-0.2 0.04,-0.09 0.05,-0.08 0.05,-0.08 0.04,-0.08 0.01,-0.01 0.18,-0.24 0.13,-0.17 0.02,-0.03 0.17,-0.14 0.04,-0.03 0.14,-0.11 0.21,-0.11 0.32,-0.17 0.17,-0.09 0.04,-0.02 0.04,-0.01 0.13,-0.03 0.14,-0.03 v -0.03 -0.01 -0.04 -0.02 -0.02 l 0.26,-0.09 0.05,-0.01 0.92,-0.29 0.04,-0.01 0.27,-0.08 0.11,-0.03 0.14,-0.04 0.2,-0.05 0.05,-0.01 0.03,-0.01 0.03,-0.01 0.06,-0.01 0.19,-0.05 0.07,-0.01 0.44,-0.1 0.74,-0.22 0.38,-0.11 0.96,-0.36 0.09,-0.03 0.4,-0.16 0.4,-0.15 0.22,-0.08 0.82,-0.57 0.06,-0.04 0.32,-0.16 0.24,-0.13 0.24,-0.12 0.14,-0.08 0.09,-0.04 0.01,-0.01 0.05,-0.03 0.07,-0.02 0.21,-0.06 0.07,-0.03 0.31,-0.1 0.96,-0.32 0.36,-0.06 0.45,-0.08 0.89,0.25 0.3,0.27 0.06,0.06 0.24,0.22 0.2,0.18 0.43,0.41 0.25,0.23 0.25,0.23 0.03,0.03 h 0.01 l 1.44,0.82 1.44,0.83 0.36,0.2 0.13,0.01 0.62,0.11 0.73,0.08 0.66,0.04 0.67,0.02 0.28,0.05 0.22,0.04 0.5,0.12 0.06,0.01 0.5,0.12 0.41,0.21 0.09,0.05 0.26,0.16 0.23,0.19 0.38,0.25 0.18,0.14 0.04,0.02 0.04,0.04 0.28,0.26 0.29,0.32 0.22,0.24 0.08,0.08 0.21,0.2 0.41,0.35 0.31,0.22 0.2,0.16 0.36,0.2 0.4,0.07 0.1,0.02 0.25,-0.04 0.28,-0.05 0.1,-0.02 0.07,-0.03 0.39,-0.16 0.19,-0.12 0.2,-0.12 0.02,-0.01 0.02,-0.02 0.09,-0.07 0.09,-0.06 0.25,-0.17 0.34,-0.3 0.05,-0.04 0.44,-0.3 0.09,-0.09 0.37,-0.31 0.55,-0.4 0.77,-0.36 0.18,-0.08 0.49,-0.21 0.42,-0.16 0.07,-0.03 0.07,-0.02 0.22,-0.09 0.19,-0.07 0.48,-0.17 0.05,-0.02 0.08,-0.02 0.07,-0.03 0.06,-0.01 0.2,-0.07 0.16,-0.01 0.53,-0.04 h 0.02 0.1 v 0 l 0.48,0.02 0.65,0.06 0.41,0.08 0.54,0.11 0.1,0.04 0.4,0.2 1.44,0.68 0.06,0.03 0.49,0.24 0.2,0.11 0.2,0.11 v 0 l 0.8,0.45 0.2,0.12 0.2,0.11 0.4,0.22 0.1,0.06 0.03,0.01 0.13,0.07 0.13,0.07 0.03,0.01 0.11,0.06 0.14,0.07 0.14,0.07 0.02,0.01 0.22,0.12 0.25,0.12 0.2,0.11 0.19,0.1 0.03,0.01 0.13,0.07 0.17,0.09 0.21,0.11 0.21,0.1 0.06,0.04 0.12,0.02 0.44,0.09 0.06,0.01 0.38,0.08 0.88,0.18 0.89,0.18 0.73,0.14 0.55,0.11 0.18,0.04 0.28,0.06 0.3,-0.01 0.2,-0.01 h 0.19 l 0.81,-0.03 0.43,-0.01 h 0.07 0.13 l 3.79,-0.12 h 0.24 l 0.5,0.29 0.21,0.12 0.21,0.12 0.25,0.14 0.22,0.13 0.47,0.27 0.03,0.02 0.11,0.06 0.14,0.08 v 0.02 l 0.01,0.01 0.01,0.04 0.93,-0.52 0.22,-0.09 0.16,-0.02 0.11,-0.02 0.61,-0.09 1.14,-0.18 0.2,-0.03 h 0.01 l 0.31,-0.05 0.47,-0.14 0.27,-0.08 0.55,-0.31 0.27,-0.11 0.26,-0.04 0.08,-0.02 0.26,0.01 h 0.02 l 0.26,0.03 0.11,0.01 0.24,0.12 0.4,0.29 0.25,0.17 0.15,0.18 0.18,0.18 0.04,0.03 0.01,0.01 0.19,0.14 0.13,0.08 0.17,0.11 0.05,0.01 0.37,0.07 0.31,-0.01 0.27,0.11 0.08,0.03 0.08,-0.02 h 0.01 l 0.03,-0.02 0.21,-0.06 0.08,-0.03 0.16,0.01 h 0.15 l 0.51,0.02 h 0.01 l 0.5,0.03 h 0.04 l 0.22,-0.02 0.2,-0.01 0.2,-0.02 h 0.02 l 0.66,-0.04 0.64,0.01 0.83,0.02 0.05,0.03 h 0.05 l 0.33,-0.04 0.11,-0.02 1.28,-0.44 h 0.05 l 1.78,-0.2 0.08,-0.01 0.08,-0.01 0.88,-0.1 0.03,-0.01 1.27,-0.5 0.39,-0.16 0.86,-0.34 0.03,-0.01 0.02,-0.01 0.37,-0.14 0.04,-0.01 0.33,-0.13 0.3,-0.12 0.31,-0.11 0.16,-0.07 0.11,-0.04 0.06,-0.02 0.17,-0.07 0.17,-0.06 0.38,-0.15 1.13,-0.43 0.38,-0.15 0.55,0.48 1.67,1.43 0.56,0.48 0.18,0.38 0.09,0.18 0.36,0.52 0.25,0.36 0.24,0.34 0.09,0.03 0.09,0.03 0.25,0.07 0.73,0.22 0.56,0.17 0.43,0.13 h 0.05 0.06 0.75 l 0.33,0.01 1.08,0.01 h 0.54 l 0.54,0.01 h 0.07 l 0.06,4.01 0.79,0.18 1.65,0.37 2.18,-0.59 0.2,-0.05 0.5,0.16 0.64,0.2 2.98,0.92 0.17,0.01 0.42,0.03 1.17,0.09 1.81,0.14 0.92,-1.05 0.21,0.15 0.47,0.35 0.13,0.09 0.41,1.09 0.02,0.05 2.49,-0.68 h 0.2 l 5.17,0.09 2.79,2.88 0.93,0.95 0.72,4.01 -0.36,1.66 -0.37,0.51 -2.22,3.13 -1.93,2.72 -1.61,3.07 -1.59,3.36 -0.43,3.08 v 0.12 0.3 1.85 1.16 l 1.12,1.27 -0.69,0.83 -2.93,1.86 -10.1,6.41 -1.11,0.5 -8.85,3.97 -1.12,0.5 -1.71,0.76 -6.5,2.81 -5.47,2.58 -1.94,-0.23 -2.6,3.92 -3.15,2.75 -0.65,2.08 -0.05,0.16 -0.76,2.45 -0.97,2.32 -3.9,2.33 -2.38,-0.04 -2.04,-1.31 -1.28,-0.3 -1.66,-0.4 -9.26,0.07 -13.29,2.31 -4.82,0.85 -9.59,2.29 -10.61,3.54 -8.46,4.67 -2.5,0.98 -0.99,0.65 -1.59,1.06 -2.92,3.27 -2.3,2.58 -1.41,0.78 -4.06,0.27 -2.17,-0.45 h -0.37 l -4.8,0.06 -1.97,0.03 -4.67,2.04 -6,2.25 -12.67,6.58 -3.03,2.16 -1.24,-0.19 -0.39,-0.29 0.31,-1.53 -0.29,-0.44 -2.21,0.51 0.23,1.41 -1.25,-0.23 -0.87,0.59 0.35,1.45 -0.87,0.36 -2.37,0.39 -1.52,1.11 -1.21,0.36 -0.9,-0.39 -2.28,-2.63 -2.57,1.17 -0.4,0.37 -3.93,2.66 -0.59,0.48 -4.52,3.07 -0.59,-0.05 -3.07,1.13 -0.75,-0.89 0.83,-1.84 0.08,-1.38 -0.65,0.17 -0.5,-1.6 -0.84,-0.33 -1.63,-0.09 -1.73,0.48 -1.04,-0.42 -1.06,-1.08 -0.82,0.01 0.37,0.75 -0.88,0.23 -0.48,0.46 -1.29,-0.28 -0.98,0.18 -0.37,-0.61 -0.93,-0.71 -0.64,0.42 -0.19,0.54 0.45,1.09 -0.84,0.85 0.14,0.74 2.24,0.29 1.61,1.1 2.15,0.56 0.97,0.4 0.68,0.74 1.08,2.17 1.65,0.78 1,1.02 0.05,1.19 -0.58,1.97 -0.52,0.94 -3.45,0.21 -0.98,-0.1 -3.95,-1.57 -2.55,-0.77 -1.02,-0.68 -0.32,-1.19 -0.77,-1.17 -10.85,-11.66 -1.56,-0.97 -3.8,-1.55 -3.85,-1.08 -3.35,-0.77 -3,-1.17 -1.55,-1.47 -0.01,-1.62 0.61,-1.82 1.15,-1.25 2.2,-1.21 5.4,-1.08 2.15,-2.11 1.07,-2.5 0.12,-1.24 -0.68,-1.94 -2.71,-4.19 -0.72,-2.17 0.7,-1.81 1.34,-1.83 1.3,-2.13 1.18,-1.74 0.29,-1.98 -0.18,-1.38 -0.83,-0.91 -1.5,-0.35 -1.09,0.02 -1.33,0.44 -4.32,2 -4.86,4.29 -1.46,-0.14 -0.6,-0.3 -0.8,-1.08 -0.46,-1.85 -0.15,-1.26 -0.83,-3.48 0.18,-1.33 1.95,-0.66 2.63,-0.13 3.95,0.1 1.3,-1.26 1.32,-3.94 2.2,-2.35 3.63,-2.12 0.61,-1.5 -0.36,-0.74 -0.17,-0.34 z m 401.97,-167.26 0.37,-0.17 0.38,-0.19 0.39,0.16 0.61,-0.04 0.42,-0.15 0.4,0.4 0.24,0.39 v 0.3 l -0.18,0.29 -0.28,0.13 -0.51,-0.13 -0.17,-0.24 -0.3,-0.29 -0.45,-0.21 -0.59,-0.11 -0.45,0.03 -0.3,-0.1 0.05,-0.23 z m -20.14,12.7 1.19,-0.5 1.03,0.27 0.57,0.76 -0.84,0.6 h -1.14 l -0.6,-0.04 -0.59,0.32 -0.65,-0.73 z m -289.89,202.34 1.6,-0.71 -0.49,-1.44 0.24,-0.29 1.19,0.23 0.73,0.55 0.73,0.32 1.74,0.94 0.94,0.73 0.51,0.03 0.14,0.15 -0.11,0.7 -0.75,0.88 -1.52,0.74 -0.17,0.09 -2.85,0.73 -0.31,-0.04 -1.31,-0.19 -0.94,-1.4 -0.51,-1.49 z"
       fill-rule="evenodd"
       id="path3650"
       style="fill:#e27f7f;fill-opacity:1;stroke:#ffffff;stroke-opacity:1" />
    <path
       d="m 154.22,390.66 0.22,-0.08 0.08,-0.03 2.18,-0.81 0.44,-0.16 0.54,-0.19 0.7,-0.24 1.79,-0.64 1.29,-0.47 1.44,-0.51 1.53,-0.54 0.62,-0.22 0.3,-0.11 0.26,-0.1 0.32,-0.14 0.28,-0.14 0.44,-0.25 0.65,-0.45 v -0.01 l 0.09,-0.08 0.09,-0.08 0.17,-0.18 h 0.01 l 0.08,-0.09 0.04,-0.04 0.2,-0.23 0.03,-0.02 0.4,-0.43 0.36,-0.37 0.05,-0.06 0.27,-0.28 0.28,-0.31 0.08,-0.08 0.57,-0.6 0.53,-0.54 0.1,-0.1 0.27,-0.29 0.07,-0.07 0.84,-0.9 0.49,-0.51 0.34,-0.36 0.34,-0.34 0.33,-0.35 0.33,-0.35 0.35,-0.36 0.59,-0.61 0.93,-0.96 -0.1,-0.06 v 0 l -0.04,-0.03 -0.41,-0.27 -0.14,-0.1 -0.77,-0.51 -0.15,-0.1 -1.73,-1.28 -0.36,-0.27 -0.32,-0.23 -0.42,-0.29 -0.02,-0.01 -0.4,-0.26 -0.04,-0.02 -0.52,-0.37 -0.36,-0.22 -0.19,-0.14 -0.24,-0.16 -0.17,-0.1 -0.27,-0.18 -0.12,-0.08 -0.15,-0.1 -0.27,-0.19 -0.55,-0.36 v 0 l -0.17,-0.12 -0.08,-0.08 -0.05,-0.03 -0.21,-0.17 -0.12,-0.11 -0.43,-0.36 -0.38,-0.31 -0.33,-0.27 -0.05,-0.05 -0.22,-0.16 -0.13,-0.08 -0.07,-0.04 -0.27,-0.17 -0.16,-0.1 -0.34,-0.22 -0.09,-0.06 -0.21,-0.13 -0.12,-0.09 -0.08,-0.07 v -0.01 l -0.15,-0.14 -0.09,-0.12 -0.02,-0.04 -0.04,-0.06 -0.04,-0.08 -0.02,-0.05 -0.11,-0.26 -0.12,-0.32 -0.01,-0.02 -0.08,-0.2 -0.11,-0.13 -0.03,-0.03 -0.13,-0.15 -0.11,-0.09 -0.18,-0.12 -0.07,-0.04 -0.04,-0.02 -0.15,-0.06 -0.19,-0.08 -0.47,-0.19 -0.39,-0.16 -0.06,-0.02 -0.16,-0.06 -0.08,-0.03 -0.25,-0.05 h -0.27 l -0.09,0.01 -0.17,0.03 -0.19,0.06 -0.25,0.07 -0.37,0.11 -0.13,0.04 -0.52,0.16 -0.52,0.17 -0.22,0.05 h -0.04 l -0.24,0.05 -0.57,0.01 -0.28,0.01 h -0.5 l -1.24,0.01 h -0.25 l -0.2,0.01 -0.29,-0.05 h -0.04 l -0.08,-0.03 -0.09,-0.02 -0.2,-0.08 -0.08,-0.03 -0.09,-0.04 -0.03,-0.01 -0.12,-0.07 -0.21,-0.18 -0.1,-0.09 -0.09,-0.11 -0.2,-0.34 -0.13,-0.24 -0.09,-0.18 -0.31,-0.56 -0.35,-0.65 -0.08,-0.2 -0.12,-0.39 -0.21,-0.67 -0.07,-0.19 -0.08,-0.17 -0.19,-0.26 -0.13,-0.13 -0.16,-0.16 -0.13,-0.09 -0.15,-0.08 -0.13,-0.07 -0.16,-0.11 -0.13,-0.11 h -0.01 l -0.1,-0.1 -0.11,-0.12 -0.04,-0.05 -0.08,-0.1 -0.07,-0.13 -0.06,-0.11 -0.06,-0.12 -0.05,-0.14 -0.04,-0.15 -0.02,-0.19 -0.01,-0.16 0.04,-0.29 v -0.01 l 0.09,-0.31 0.1,-0.33 0.04,-0.14 0.01,-0.08 v -0.03 l 0.01,-0.13 v -0.14 -0.02 l -0.01,-0.06 v -0.02 l -0.02,-0.13 -0.01,-0.16 -0.05,-0.46 -0.05,-0.4 -0.04,-0.29 -0.05,-0.45 -0.02,-0.17 -0.02,-0.23 -0.17,-1.48 -0.02,-0.16 -0.04,-0.45 -0.02,-0.17 -0.08,-0.7 -0.01,-0.06 -0.18,-1.59 -0.03,-0.41 0.01,-0.12 0.01,-0.12 0.02,-0.05 0.03,-0.11 0.11,-0.39 0.08,-0.24 0.02,-0.14 0.01,-0.04 0.01,-0.12 -0.01,-0.24 v -0.06 -0.15 l -0.01,-0.09 v -0.15 l -0.01,-0.24 -0.02,-0.14 -0.05,-0.2 -0.05,-0.14 -0.01,-0.04 -0.07,-0.19 -0.03,-0.08 -0.09,-0.23 -0.03,-0.08 -0.03,-0.06 -0.08,-0.2 -0.02,-0.07 -0.04,-0.09 -0.06,-0.16 -0.04,-0.12 -0.04,-0.09 -0.05,-0.14 -0.02,-0.04 -0.14,-0.36 -0.01,-0.03 -0.04,-0.1 -0.13,-0.3 v -0.01 l -0.07,-0.21 -0.04,-0.15 -0.01,-0.13 -0.01,-0.11 0.01,-0.25 v -0.08 -0.32 l 0.22,0.01 0.78,0.01 h 0.22 0.24 0.15 l 0.18,-0.03 0.25,-0.04 0.29,-0.07 0.13,-0.04 0.14,-0.07 0.23,-0.11 0.46,-0.22 0.24,-0.12 0.7,-0.34 0.19,-0.09 0.2,-0.1 0.02,-0.01 0.27,-0.13 0.27,-0.13 0.37,-0.19 0.09,-0.03 0.09,-0.03 0.21,-0.08 0.28,-0.07 0.17,-0.05 0.08,-0.02 0.26,-0.07 0.49,-0.14 0.2,-0.05 0.24,-0.06 0.21,-0.06 0.19,-0.05 0.16,-0.05 0.16,-0.04 0.03,-0.01 0.15,-0.04 0.39,-0.11 0.07,-0.01 0.06,-0.02 0.21,-0.06 0.3,-0.08 0.22,-0.06 0.04,-0.01 0.23,-0.07 0.29,-0.07 0.27,-0.08 0.26,-0.07 0.26,-0.06 0.12,-0.01 0.16,-0.01 0.2,0.02 0.1,0.01 0.24,0.06 0.2,0.08 0.06,0.03 0.22,0.11 0.43,0.22 0.25,0.13 0.22,0.12 0.07,0.04 0.94,0.49 0.25,0.14 0.26,0.13 0.17,0.08 0.22,0.12 0.21,0.11 0.11,0.05 h 0.02 l 0.22,0.07 0.13,0.03 0.12,0.02 0.26,0.06 0.26,0.05 0.27,0.06 0.23,0.06 h 0.03 l 0.21,0.08 0.13,0.04 0.3,0.11 0.08,0.02 0.31,0.1 0.43,0.14 0.19,0.06 0.2,0.07 0.02,0.01 0.29,0.09 0.1,0.03 0.01,0.01 0.06,0.02 h 0.01 l 0.16,0.04 0.32,0.08 0.18,0.04 0.06,0.01 0.16,0.02 0.18,0.01 0.25,-0.01 1.43,-0.07 0.16,-0.02 h 0.05 l 0.21,-0.05 0.2,-0.06 0.14,-0.08 0.08,-0.05 0.03,-0.01 0.08,-0.07 0.26,-0.27 0.24,-0.26 0.18,-0.19 0.06,-0.07 0.66,-0.73 0.2,-0.21 0.4,-0.45 0.21,-0.23 0.73,-0.8 0.31,-0.34 0.17,-0.19 0.27,-0.3 0.17,0.05 0.34,0.07 0.61,0.12 0.47,0.09 0.46,0.1 h 0.01 l 0.48,0.1 0.02,0.01 0.41,0.08 0.05,0.01 0.46,0.09 0.73,0.15 0.42,0.09 0.27,0.06 0.83,0.17 0.23,0.04 0.05,0.01 0.03,0.01 0.1,0.02 0.03,0.01 0.22,0.04 0.15,0.03 0.63,0.13 0.34,0.07 0.04,0.01 0.11,0.03 h 0.04 l 0.16,0.04 0.54,0.1 1.14,0.24 0.43,0.09 0.5,0.1 0.26,0.05 0.3,0.06 0.14,0.01 0.09,0.01 h 0.03 0.22 0.02 0.09 l 0.06,-0.01 0.19,-0.02 h 0.01 l 0.07,-0.01 0.12,-0.03 0.52,-0.18 0.18,-0.06 2.43,-0.88 0.05,-0.02 0.52,-0.19 0.24,-0.09 0.05,-0.01 0.03,-0.02 0.11,-0.04 0.05,-0.01 0.45,-0.17 0.12,-0.04 0.51,-0.2 0.27,-0.09 0.25,-0.09 0.22,-0.07 0.05,-0.02 0.22,-0.08 0.03,-0.01 0.16,-0.01 0.1,0.01 0.11,0.04 h 0.01 l 0.16,0.08 0.08,0.04 0.31,0.17 0.13,0.07 0.06,0.03 0.19,0.09 0.25,0.13 0.12,0.06 0.37,0.19 0.23,0.12 0.44,0.22 0.21,0.11 0.35,0.18 0.07,0.03 0.13,0.06 0.21,0.11 0.21,0.1 h 0.01 l 0.22,0.12 0.23,0.11 0.06,0.03 0.17,0.08 0.7,0.34 0.23,0.13 0.23,0.11 0.21,0.11 0.42,0.21 0.09,0.05 0.16,0.08 0.22,0.11 0.22,0.12 0.04,0.02 0.17,0.09 0.22,0.11 0.21,0.1 0.2,0.1 0.21,0.1 0.53,0.27 0.4,0.21 0.04,0.02 0.16,0.07 0.17,0.09 0.28,0.15 0.05,0.02 0.15,0.08 0.04,0.02 0.02,0.01 0.16,0.09 0.49,0.23 0.02,0.02 0.17,0.08 0.31,0.17 0.06,0.03 0.42,0.21 0.47,0.24 0.32,0.16 0.07,0.04 0.21,0.11 0.07,0.03 0.48,0.24 0.38,0.2 0.55,0.28 0.47,0.23 0.01,0.01 0.47,0.24 0.13,0.07 0.39,0.2 0.13,0.07 0.09,0.05 0.27,0.15 0.09,0.05 0.06,0.03 0.2,0.12 0.06,0.03 0.04,0.03 0.1,0.05 0.03,0.02 0.03,0.02 0.08,0.04 0.02,0.01 0.05,0.03 0.15,0.08 0.05,0.03 0.1,-0.05 0.28,-0.13 0.03,-0.01 0.1,-0.05 0.04,-0.02 0.11,-0.05 0.03,-0.02 0.02,-0.01 0.05,-0.02 0.02,-0.01 0.03,-0.02 0.01,-0.01 0.1,-0.04 0.04,-0.02 0.4,0.25 0.36,0.16 0.38,0.07 0.34,0.07 0.23,0.08 0.08,0.09 0.07,0.14 -0.03,0.23 -0.05,0.16 -0.1,0.2 -0.31,0.48 -0.34,0.38 -0.88,0.6 -0.63,0.39 -0.56,0.27 -0.34,0.22 -0.09,0.1 -0.03,0.1 -0.01,0.11 -0.02,0.36 0.03,0.19 0.11,0.38 0.18,0.33 0.31,0.46 0.34,0.27 0.87,0.5 0.63,0.4 0.23,0.2 0.11,0.12 0.39,0.57 0.31,0.54 0.4,0.37 0.35,0.17 0.19,0.05 0.97,-0.26 0.66,-0.18 0.36,-0.02 0.16,0.07 0.1,0.13 0.45,0.88 0.31,0.57 0.2,0.16 0.17,0.07 0.69,0.17 1.2,0.26 0.4,0.06 0.72,0.14 1.3,0.29 0.29,0.11 0.26,0.2 0.16,0.41 0.16,0.88 0.22,0.52 0.31,0.18 0.56,0.13 0.92,0.09 h 0.52 l 0.28,0.16 0.14,0.21 -0.06,0.39 -0.38,0.93 -0.71,1.23 -0.15,0.42 -0.17,0.45 0.02,0.25 0.02,0.2 0.11,0.13 0.15,0.15 0.27,0.17 0.26,0.1 0.31,0.05 h 0.36 l 0.57,-0.09 0.68,-0.13 0.31,0.02 0.35,0.11 0.19,0.11 0.11,0.12 0.2,0.21 0.58,1.16 0.22,0.2 0.18,0.08 0.86,0.48 0.59,0.55 0.42,0.63 0.23,0.19 0.33,0.12 0.97,0.31 0.57,0.3 0.1,0.16 0.03,0.18 -0.05,0.18 -0.79,2.15 -0.38,0.87 -0.02,0.4 0.39,0.32 1.13,0.56 0.61,0.4 0.12,0.29 0.11,1.55 0.02,0.39 0.41,1.1 0.37,0.67 0.14,0.24 0.14,0.17 0.19,0.13 0.63,0.25 0.72,0.13 1.13,0.37 0.54,0.36 0.18,0.18 0.23,0.3 0.08,0.5 -0.01,0.43 -0.16,0.45 -0.29,0.4 -0.65,0.44 -0.91,0.26 -0.33,0.13 1.34,-0.2 -0.26,0.08 -0.27,0.1 -0.27,0.1 -0.25,0.07 -0.17,0.06 -0.11,0.05 -0.08,0.05 -0.09,0.07 -0.1,0.11 -0.05,0.07 -0.06,0.15 -0.01,0.08 0.02,0.13 0.01,0.12 0.03,0.08 0.07,0.12 0.34,0.4 0.57,0.75 0.11,0.1 0.16,0.11 0.15,0.06 0.2,0.04 h 0.21 l 0.09,-0.01 0.07,-0.02 0.1,-0.05 0.15,-0.11 0.16,-0.15 0.25,-0.29 1.09,-1.29 0.36,-0.34 0.14,-0.16 0.18,-0.14 0.37,-0.14 0.33,-0.05 0.45,0.05 0.2,0.08 0.28,0.29 0.39,0.65 0.08,0.16 -0.01,0.58 1.46,-0.45 11.7,-1.83 6.43,-1.04 0.92,0.19 0.5,0.06 1.57,-0.13 0.26,-0.02 0.94,-0.15 0.49,-0.12 0.21,-0.12 0.09,-0.02 0.28,-0.06 0.09,-0.02 v -0.04 l 0.2,-0.07 0.74,-0.22 0.2,-0.07 0.04,-0.01 0.09,-0.04 0.53,-0.24 0.43,-0.2 1.51,-0.44 0.12,-0.03 0.42,-0.18 0.1,-0.01 -0.02,-0.57 -0.01,-0.36 0.2,-1.05 0.01,-0.29 v -0.02 l -0.12,-0.15 -0.21,-0.02 -0.08,-0.12 0.06,-0.18 h 0.34 l 0.34,0.05 0.38,-0.08 0.16,-0.18 0.13,-0.24 0.1,-0.17 v -0.06 l 0.04,-0.03 v -0.02 l 0.36,0.09 -1.11,2.26 0.09,0.34 0.28,1.07 3.24,4.14 0.81,0.83 2.55,2.59 v 0.01 l 1.13,0.62 0.01,0.01 2.76,-1.08 1.09,-0.42 h 0.05 l 1.96,-0.02 0.3,0.63 0.17,0.34 0.36,0.74 -0.61,1.5 -3.63,2.12 -2.2,2.35 -1.32,3.94 -1.3,1.26 -3.95,-0.1 -2.63,0.13 -1.95,0.66 -0.18,1.33 0.83,3.48 0.15,1.26 0.46,1.85 0.8,1.08 0.6,0.3 1.46,0.14 4.86,-4.29 4.32,-2 1.33,-0.44 1.09,-0.02 1.5,0.35 0.83,0.91 0.18,1.38 -0.29,1.98 -1.18,1.74 -1.3,2.13 -1.34,1.83 -0.7,1.81 0.72,2.17 2.71,4.19 0.68,1.94 -0.12,1.24 -1.07,2.5 -2.15,2.11 -5.4,1.08 -2.2,1.21 -1.15,1.25 -0.61,1.82 0.01,1.62 1.55,1.47 3,1.17 3.35,0.77 3.85,1.08 3.8,1.55 1.56,0.97 10.85,11.66 0.77,1.17 0.32,1.19 1.02,0.68 2.55,0.77 3.95,1.57 0.98,0.1 3.45,-0.21 0.52,-0.94 0.58,-1.97 -0.05,-1.19 -1,-1.02 -1.65,-0.78 -1.08,-2.17 -0.68,-0.74 -0.97,-0.4 -2.15,-0.56 -1.61,-1.1 -2.24,-0.29 -0.14,-0.74 0.84,-0.85 -0.45,-1.09 0.19,-0.54 0.64,-0.42 0.93,0.71 0.37,0.61 0.98,-0.18 1.29,0.28 0.48,-0.46 0.88,-0.23 -0.37,-0.75 0.82,-0.01 1.06,1.08 1.04,0.42 1.73,-0.48 1.63,0.09 0.84,0.33 0.5,1.6 0.65,-0.17 -0.08,1.38 -0.83,1.84 0.75,0.89 3.07,-1.13 0.59,0.05 4.52,-3.07 0.59,-0.48 3.93,-2.66 0.4,-0.37 2.57,-1.17 2.28,2.63 0.9,0.39 1.21,-0.36 1.52,-1.11 2.37,-0.39 0.87,-0.36 -0.35,-1.45 0.87,-0.59 1.25,0.23 -0.23,-1.41 2.21,-0.51 0.29,0.44 -0.31,1.53 0.39,0.29 1.24,0.19 -0.76,0.53 -10.55,6.44 -1.24,0.86 -6.28,4.37 -0.9,0.62 -1.63,1.14 -0.22,0.15 -14.68,10.2 -2.69,-0.28 -1.61,-2.3 -1.28,-3.28 -0.22,-0.37 -0.72,-1.24 -0.09,-0.03 -3.43,-1.34 -2.7,-1.05 -0.97,1.91 -2.97,1.75 -0.72,1.91 -1.35,0.17 -1.09,-0.35 -2.15,0.74 -3.21,1.55 -0.75,1.69 -0.11,0.98 -1.33,0.81 -9.54,2.12 -1.11,-0.64 -0.89,-1.82 -0.56,-1.32 0.34,-1.57 -0.1,-3.23 -0.87,-1.56 -0.48,-0.87 -1.98,-0.85 -2.29,-1.92 -3.86,-1.17 -2.13,-0.66 -1.73,0.64 h -0.34 -2.75 l -0.07,0.09 -1.28,1.74 -2.49,0.77 -4.1,0.39 -2.26,5.25 -1.66,-0.64 -2.62,-0.48 -1.32,-0.76 -1.79,-0.75 -4.41,-2.02 -0.76,-0.59 -0.71,-1.48 0.07,-1.02 -0.9,-1.27 -2.78,-3.96 -1.67,-2.39 -5.45,-1.65 -3.08,-2.95 -1.85,-6.32 -0.25,-1.09 -3,-5.11 -1.75,-4.14 -1.18,-0.37 -1.5,0.18 -0.7,2.25 -0.01,2.76 -0.72,1.16 -0.87,0.77 -1.63,0.01 -1.11,-0.92 0.01,-1.64 1.75,-3.32 -0.29,-0.75 -0.95,-0.43 -4.21,0.62 -2.86,-0.51 -0.63,-0.7 0.28,-1.37 3.39,-3.2 0.09,-1.51 -1.77,-1.46 -1.22,-0.6 -1.75,-0.27 -2.18,0.55 -2.12,1.18 -1.82,0.61 -1.56,-0.33 -1.83,-3.37 -1.22,-0.4 -0.8,0.08 -3.19,3.47 -1.01,0.48 -2.04,-0.52 -0.92,-0.8 -1.02,-3.01 -0.55,-0.47 -1.34,-0.42 -4.78,-0.81 -1.62,-0.89 -1.61,-2.03 -3.83,-5.4 -0.41,-1.12 0.55,-1.31 1.96,-1.9 0.6,-1.37 -0.26,-0.77 -1.31,-0.75 -1.12,0.18 -0.98,0.43 -1.25,0.91 -1.75,1.07 -0.68,0.17 -1.38,-0.25 -0.98,-0.99 -0.33,-1.8 0.25,-1.06 0.62,-0.66 1.1,-0.48 4.96,0.04 0.92,-0.57 0.24,-1.14 -0.17,-0.81 -1.01,-1.77 -1.52,-1.09 -1.1,-0.02 -4.48,1.47 -0.89,-0.08 -0.83,-0.57 -0.71,-1.44 -0.69,-2.42 -0.62,-1.02 0.61,0.98 z"
       id="path3652"
       style="fill:#e27f7f;fill-opacity:1;stroke:#ffffff;stroke-opacity:1" />
    <path
       d="m 57.04,651.76 -1.29,0.86 -2.07,0.38 -1.96,-0.58 -1.11,-0.8 -0.69,-1.32 0.11,-0.83 0.05,-0.35 0.67,-1.15 1.41,-1.63 0.38,-0.46 0.28,-0.34 2.44,-2.49 0.86,-0.77 0.84,-0.98 0.43,-0.87 0.11,-0.86 -0.03,-0.17 -0.08,-0.45 -0.56,-0.67 -0.27,-0.22 -0.5,-0.41 -0.48,-0.26 -0.43,-0.22 -0.56,-0.18 -0.29,-0.09 -0.95,-0.27 -0.96,-0.28 -0.87,-0.27 -1.95,-0.55 -1.01,-0.27 -1,-0.27 -1,-0.28 -3.42,-1.11 -0.63,-0.9 0.01,-0.07 0.01,-0.3 0.69,-0.82 1.63,-0.54 3.07,-0.69 1.74,-0.39 1.94,-1.29 -0.62,-1.95 v -0.01 l -1.19,-0.4 -1.31,0.3 -1.85,1.66 -0.94,0.19 -0.74,0.15 -0.98,-0.31 -0.37,-1.23 -0.38,-1.3 -0.84,-0.78 -0.29,0.02 -0.66,0.06 -1.79,1.52 -1.7,-0.7 -0.65,-0.27 -0.36,-0.01 -0.32,-0.02 -0.44,0.37 -0.66,0.54 -0.74,1.1 -0.11,0.22 -0.82,1.29 -0.53,0.06 -1.43,-0.59 -1.12,-0.38 -0.84,0.32 -0.35,0.33 -1.17,1.38 -0.99,0.29 -0.07,-0.33 -0.04,-0.22 0.14,-1.96 -0.05,-0.54 0.3,-0.71 0.72,-0.67 0.32,-0.59 -0.17,-0.48 -0.86,-0.12 -1.05,0.09 -1.09,-0.4 -0.78,-0.62 -0.63,-1 -0.19,-1.01 0.46,-2.01 0.49,-0.21 0.2,-0.24 0.79,-0.5 h 0.77 0.63 l 0.58,0.16 0.59,0.82 -0.22,1 -0.01,0.33 0.17,0.32 0.06,0.04 1.16,0.67 0.58,0.72 0.68,0.46 0.21,-0.01 0.29,-0.01 0.03,-0.02 0.5,-0.51 0.16,-0.52 0.15,-0.45 -1.48,-1.51 0.08,-0.57 0.26,-0.15 0.46,-0.28 0.27,-0.76 v -0.45 l 0.22,-0.99 0.51,-0.41 0.02,-0.01 -0.04,-0.9 -0.08,-1 -0.03,-0.06 -0.35,-0.69 -1.28,-0.49 -0.9,-0.26 -0.52,-0.74 1.53,-0.64 1.24,-0.14 0.7,0.01 0.51,-0.14 0.07,-0.15 0.15,-0.3 -0.45,-0.41 -1.05,-0.7 -0.21,-0.14 -0.39,-0.76 -0.17,-0.52 -0.37,-0.52 -0.62,-0.16 -0.63,0.15 -1.07,0.62 -0.63,-0.48 -0.07,-1.04 -0.05,-0.53 -0.19,-0.37 -0.26,-0.15 h -0.2 l -0.4,0.01 -1.81,1.44 -1.12,0.08 -0.07,-0.94 0.64,-1.13 0.59,-0.29 0.63,-0.14 1.16,-0.29 0.38,-0.13 0.15,-0.07 0.02,-0.21 -0.02,-0.3 -0.06,-0.22 -0.29,-0.28 -0.18,-0.09 -0.05,-0.03 -0.46,-0.1 -0.67,0.21 -0.59,0.25 -0.69,0.47 -0.91,-0.54 -0.04,-0.04 -0.27,-0.26 -0.57,-0.22 -0.91,0.06 -0.75,0.08 -1.01,-0.32 -0.4,-0.51 -0.16,-1.01 -0.18,-0.31 -0.59,-0.16 -0.4,0.09 -0.44,0.28 -0.35,0.27 -0.19,0.19 -0.73,-0.37 -0.07,-0.65 0.03,-0.39 -0.02,-0.21 -0.1,-0.36 -0.04,-0.01 -0.23,-0.09 -0.55,0.15 -0.05,0.13 -0.21,0.41 -0.03,0.35 -0.19,0.54 -2.09,0.92 0.95,-1.05 0.07,-0.03 0.18,-0.24 -0.08,-0.17 -0.52,-0.23 -0.16,-0.03 -1.37,-0.79 -0.74,-0.31 -0.55,-0.31 -0.7,-0.21 -0.07,-0.73 v 0 l 0.03,-0.01 0.06,-0.01 0.9,-0.19 1.53,0.29 0.06,-0.08 v -0.14 l -0.04,-0.2 -0.29,-0.16 -0.19,-0.06 -0.23,-0.05 -0.06,-0.01 h -0.02 l -0.83,-0.29 0.16,-0.16 0.3,-0.19 0.23,-0.17 0.15,-0.27 -0.17,-0.42 -0.2,-0.24 -0.43,-0.88 -0.25,-0.34 -0.26,-0.39 -0.47,-0.41 -0.1,-0.11 -0.27,-0.2 H 9.21 l -0.61,0.3 -0.95,-0.71 -0.33,-1.54 -0.45,-0.18 -0.91,-0.28 -0.51,-0.59 0.5,-0.34 0.9,0.45 0.21,-0.33 0.04,-0.41 -0.04,-0.41 -0.01,-0.07 -0.17,-0.2 -0.07,0.01 -0.58,0.08 -0.29,0.33 -0.2,0.26 -0.27,-0.85 0.54,-0.66 0.7,0.06 0.12,-0.22 v -0.18 l -0.01,-0.07 -0.41,-0.03 -1.56,0.58 -0.62,-0.29 -0.1,-0.95 0.24,-0.56 0.05,-0.11 -0.12,-0.37 -0.03,-0.04 -0.35,-0.98 -0.04,-0.44 -0.04,-0.45 -0.1,-0.24 -0.34,-2.13 0.24,-0.56 0.21,-0.22 0.09,-0.44 v -0.05 l 0.12,-0.28 0.04,-0.05 0.08,-0.23 -0.23,-0.11 H 3.66 l -0.08,-0.53 -0.12,-0.24 -0.22,-0.04 -0.11,-0.21 v -0.06 l -0.12,-0.34 -0.15,-0.12 -0.31,-0.6 -0.02,-0.87 0.01,-0.01 0.02,-0.01 0.05,-0.02 0.04,-0.02 0.01,-0.02 0.02,-0.01 0.03,-0.04 0.01,-0.02 0.03,-0.05 0.02,-0.05 0.02,-0.05 v -0.02 -0.02 L 2.78,576.88 2.77,576.85 2.75,576.82 2.72,576.78 2.7,576.77 2.67,576.74 2.64,576.73 H 2.63 L 2.59,576.72 H 2.57 L 2.54,576.7 H 2.52 l -0.01,-0.01 v 0 l 0.09,-0.11 v -0.01 h 0.02 v -0.01 h 0.02 l 0.06,-0.01 h 0.02 l 0.11,-0.04 0.05,-0.01 0.02,-0.01 0.01,-0.02 0.01,-0.01 0.01,-0.02 0.01,-0.02 v -0.03 l 0.01,-0.06 v -0.04 -0.02 l -0.01,-0.02 v -0.02 l -0.01,-0.02 -0.01,-0.01 -0.01,-0.01 -0.01,-0.01 0.15,-0.19 0.03,-0.03 0.05,-0.04 0.01,-0.01 0.01,-0.02 0.02,-0.03 0.01,-0.02 0.02,-0.05 0.16,-0.21 0.12,-0.06 0.32,-0.19 0.1,-0.09 0.39,-0.35 0.62,-0.49 0.21,-0.24 0.27,0.06 0.13,0.13 0.34,-0.09 0.25,-0.1 0.41,-0.03 0.24,-0.02 L 6.98,574 H 6.8 l 0.46,-0.16 0.14,-0.03 0.21,-0.04 0.08,-0.07 0.15,-0.12 0.17,-0.15 0.06,-0.05 0.13,-0.12 0.11,-0.12 0.07,-0.13 0.02,-0.11 0.65,-0.71 -0.11,-0.08 -0.09,-0.06 0.39,-0.31 0.07,-0.01 0.1,-0.01 0.06,-0.01 0.09,-0.04 0.05,-0.01 0.02,-0.01 0.02,-0.02 -0.01,-0.03 -0.02,-0.08 v -0.04 l 0.05,-0.05 0.04,-0.04 0.04,-0.03 0.03,-0.01 0.07,-0.02 h 0.01 l 0.03,-0.02 0.12,-0.1 0.12,-0.11 0.14,-0.11 0.06,-0.05 0.04,-0.06 0.02,-0.04 0.01,-0.02 v -0.02 l 1.01,-1.54 0.08,-0.09 0.06,-0.06 0.06,-0.05 0.03,-0.05 0.03,-0.09 0.01,-0.08 0.07,-0.1 h 0.01 l 0.04,-0.07 0.03,-0.05 v -0.04 -0.01 l -0.01,-0.39 0.02,-0.01 0.07,-0.08 -0.03,-0.04 -0.03,-0.04 -0.03,-0.05 v -0.02 -0.02 h 0.03 0.03 l 0.05,-0.05 -0.01,-0.03 -0.04,-0.01 -0.06,-0.01 h -0.01 v -0.08 h 0.04 l 0.03,-0.01 0.02,-0.03 0.01,-0.02 -0.03,-0.02 -0.03,-0.02 -0.02,-0.02 -0.02,-0.01 0.02,-0.04 0.04,-0.01 0.03,-0.03 0.03,-0.02 0.02,-0.03 0.02,-0.04 0.01,-0.05 0.02,-0.08 -0.01,-0.04 -0.01,-0.03 0.06,-0.12 v -0.01 l 0.04,-0.03 0.03,-0.02 0.01,-0.04 0.01,-0.07 -0.01,-0.01 v -0.01 l 0.34,-0.73 0.07,-0.1 0.03,-0.1 1.08,0.09 0.05,-0.23 0.02,-1.1 -0.23,-0.56 -0.19,-0.47 -0.53,-0.46 -0.51,-0.44 -0.89,-1.14 -0.39,-1.89 0.34,-1.57 0.41,-0.68 0.13,-0.27 0.36,-0.79 0.27,-0.86 0.01,-0.03 -0.29,-0.53 -0.84,-1.01 -0.35,-1.12 -0.55,-0.75 -0.17,-0.08 h -0.01 l -1.81,-0.77 -0.64,-0.41 -0.46,-0.86 -0.04,-0.23 -0.05,-0.28 -0.04,-0.27 -0.1,-0.18 -0.19,-0.79 1.85,0.03 1.96,0.05 2.08,0.06 3.82,0.1 1.54,0.06 2.25,0.28 5.9,0.72 3.68,0.46 4.49,0.55 1.74,0.26 2.7,0.29 0.53,0.06 -0.11,-1.98 0.01,-0.42 0.01,-0.2 0.2,-3.67 0.05,-1 0.05,-0.81 0.16,-1.51 2.33,-4.35 0.1,-0.28 h 0.01 l 0.05,-0.15 0.04,-0.17 0.04,-0.14 0.01,-0.09 0.03,-0.13 0.01,-0.1 0.01,-0.09 0.01,-0.13 v -0.26 -0.07 -0.12 l -0.01,-0.2 -0.04,-1.22 -0.01,-0.64 0.04,-0.63 0.21,-1.23 0.28,-0.9 0.53,-1.09 0.77,-1.29 1.17,-0.7 0.41,-0.08 1.94,-0.41 1.22,-0.28 1.58,-0.33 0.47,-0.05 0.73,0.03 0.1,0.01 0.57,0.02 h 0.06 l 0.32,0.02 4.82,0.2 h 0.11 l 0.12,0.01 h 0.13 l 0.18,0.01 h 0.12 0.2 0.04 l 0.17,-0.01 h 0.05 0.05 0.15 l 0.05,-0.01 0.02,0.09 0.03,0.07 0.07,0.1 0.09,0.11 0.36,0.66 -0.02,0.39 -0.04,0.79 -0.03,0.42 v 0.04 0.03 l 0.01,0.05 0.02,0.04 0.03,0.03 0.05,0.03 h 0.03 l 0.06,0.02 0.07,0.01 h 0.03 l 0.24,0.04 0.12,0.01 0.63,0.08 0.42,0.06 0.08,0.01 h 0.01 l 0.02,0.01 0.18,0.02 v 0 h 0.04 l 0.21,0.03 0.14,0.02 0.76,0.1 0.06,0.01 0.05,0.01 h 0.03 l 0.04,0.01 h 0.03 l 0.56,0.07 0.13,0.02 v 0 l 0.06,0.01 0.15,0.02 0.25,0.03 1.31,0.11 0.04,0.01 0.25,0.01 0.06,-0.25 -0.01,-0.06 0.12,-0.64 v -0.01 l 0.01,-0.09 0.58,-3.3 0.28,-1.06 0.36,-0.54 0.06,-0.07 0.03,-0.03 -0.01,-0.02 0.07,-0.05 0.09,-0.06 0.31,-0.24 0.13,-0.11 2.07,-1.6 -0.18,-0.2 -0.3,-0.32 -0.05,-0.05 -0.03,-0.04 -0.13,-0.16 -0.2,-0.23 -0.05,-0.05 -0.22,-0.24 -0.05,-0.04 -0.26,-0.25 -0.24,-0.22 -0.11,-0.09 -0.05,-0.03 -0.1,-0.12 -0.37,-0.35 -0.04,-0.04 5.25,-1.91 0.31,-0.12 -0.27,-0.41 0.34,-0.92 0.58,-0.25 h 0.01 l 0.2,-0.08 0.05,-0.03 0.05,-0.02 0.09,-0.11 0.08,-0.18 v -0.07 l -0.02,-0.04 0.01,-0.04 0.05,-0.3 0.04,-0.26 0.02,-0.11 0.94,0.26 0.18,0.1 0.77,0.16 0.86,-0.06 1.01,-0.3 0.53,-0.49 0.18,-0.42 0.26,-0.54 0.26,-0.64 1.58,-0.44 h 1.12 l 0.21,-0.07 0.14,-0.67 0.09,-0.42 -0.19,-0.95 -0.13,-0.6 -0.39,-0.87 -0.17,-0.29 0.05,-0.11 0.21,-0.48 3.23,-3.69 0.38,-1.01 0.43,-0.57 0.47,-0.83 0.86,-0.81 0.32,-0.28 0.27,-0.46 -0.11,-0.17 -0.24,-0.22 -0.94,-0.64 -0.69,-0.33 -0.58,-0.21 -0.73,-0.07 -0.54,0.01 -0.94,0.31 -0.24,0.08 -0.59,0.46 -0.64,0.5 -1,0.42 -1.29,-0.22 -1.02,-2.12 0.22,-3.01 0.91,-2.78 0.54,-1.14 0.05,-0.09 0.17,-0.35 0.06,-0.11 0.1,-0.2 0.13,-0.25 0.1,-0.22 0.12,-0.24 0.05,-0.15 1.63,-3.35 0.65,-1.01 0.01,-0.02 0.42,-0.85 0.04,-0.08 0.07,-0.13 0.23,-0.47 0.06,-0.14 0.17,-0.39 0.02,-0.04 v -0.01 l 1.25,-2.61 0.03,-0.04 0.05,-0.11 0.34,-0.71 1.4,-1.69 0.31,-0.69 0.45,-0.12 0.58,-0.17 2.04,-0.12 0.82,-0.13 0.59,-0.09 0.27,-0.05 0.41,-0.14 0.07,-0.02 0.21,-0.07 0.09,-0.22 0.14,-0.51 0.09,-0.91 0.09,-0.95 -0.05,-1.28 -0.36,-3.97 -0.43,-2.12 -0.12,-0.57 -0.07,-0.27 -0.29,-1.37 -0.46,-1.05 -0.36,-0.72 -0.18,-0.33 -0.41,-0.81 -0.87,-1.19 -1.39,-1.34 -3.52,-7.04 -1.25,-1.26 -1.62,-1.65 -0.03,-0.03 -2.44,-2.48 4.5,-4.2 0.85,-2.17 -0.02,-1.07 -0.01,-0.28 -1.44,-4.79 0.85,-1.36 0.09,-0.16 0.94,-1.53 0.03,-0.46 0.01,-0.24 0.02,-0.31 0.01,-0.2 0.02,-0.23 0.01,-0.23 0.01,-0.25 0.06,-0.91 0.01,-0.18 0.04,-0.67 -0.07,-0.34 -0.04,-0.16 -0.01,-0.06 -0.14,-0.64 -0.02,-0.1 -0.04,-0.19 -0.03,-0.12 -0.05,-0.24 -0.06,-0.28 -0.09,-0.43 -0.09,-0.4 0.03,-0.13 0.54,-2.75 0.23,-0.53 0.04,-0.09 0.63,-1.47 0.04,-0.08 0.08,-0.2 0.44,-1.42 -0.12,-0.54 -0.16,-0.69 -0.04,-0.12 -1.52,-1.33 -0.08,-0.25 -0.1,-0.33 0.2,-0.79 0.08,-0.3 -0.05,-1.31 v -0.18 l -0.27,-0.65 v -0.01 l -0.02,-0.06 -0.2,-0.48 -1.59,-0.96 -0.02,-0.01 -0.02,-0.01 -1.19,-0.71 -0.21,-0.1 -0.46,-0.19 -0.46,-0.2 -0.28,-0.12 -1.19,-0.44 -0.68,-0.76 -0.05,-0.77 1.02,-1.15 v -0.01 l 0.02,-0.01 0.28,-0.43 0.01,-0.03 0.5,-0.78 0.03,-0.27 0.02,-0.16 0.03,-0.28 0.01,-0.04 -0.11,-0.1 -0.13,-0.14 -0.47,-0.22 -0.13,-0.81 -0.03,-0.22 0.05,-0.24 v -0.08 -0.07 -0.01 l -0.03,-0.06 -0.02,-0.05 -0.01,-0.01 -0.05,-0.05 -0.04,-0.04 -0.06,-0.04 -0.04,-0.01 -0.09,-0.01 -0.48,-0.15 -0.02,-0.17 0.33,-0.56 0.12,-0.08 0.06,-0.04 0.01,-0.01 0.01,-0.02 0.02,-0.08 v -0.02 l -0.01,-0.09 -0.01,-0.02 -0.03,-0.02 -0.1,-0.04 -0.06,-0.01 -0.06,-0.01 -0.02,0.01 -0.07,0.01 -0.02,0.01 -0.02,0.01 -0.04,0.03 -0.05,0.07 -0.02,0.03 -0.09,0.18 -0.02,0.03 -0.02,0.02 -0.02,0.02 -0.13,0.07 -0.63,-0.14 -0.08,-0.03 -0.06,-0.01 -0.16,-0.03 -0.14,-0.03 -0.3,-1.07 v -0.01 -0.03 l -0.01,-0.03 -0.01,-0.02 -0.01,-0.02 -0.02,-0.02 -0.03,-0.02 -0.06,-0.04 -0.1,-0.06 -0.05,-0.02 -0.11,-0.03 -0.02,-0.01 -0.06,0.01 -0.01,0.01 h -0.02 l -0.01,0.02 -0.05,0.04 v 0.03 l -0.01,0.03 -0.03,0.16 -0.01,0.05 v 0.07 l -0.24,0.45 -0.24,-0.29 -0.01,-0.03 -0.03,-0.05 -0.04,-0.07 -0.02,-0.01 -0.2,-0.2 v -0.09 l 0.16,-0.14 0.31,-0.06 0.05,-0.01 0.05,-0.03 0.01,-0.01 0.05,-0.06 0.02,-0.05 0.01,-0.04 v -0.08 -0.01 l -0.01,-0.03 -0.03,-0.01 -0.02,-0.01 H 76 l -0.09,-0.01 h -0.04 l -0.06,0.01 -0.3,-0.03 v -0.18 l 0.05,-0.13 0.02,-0.06 0.01,-0.07 0.01,-0.03 v -0.06 -0.05 l -0.01,-0.04 -0.01,-0.04 -0.01,-0.02 -0.01,-0.01 -0.02,-0.01 -0.02,-0.03 -0.02,-0.01 -0.04,-0.01 h -0.01 -0.1 l -0.06,0.01 -0.19,0.04 -0.09,0.03 -0.14,0.02 -0.14,-0.71 v -0.01 l 0.01,-0.01 v -0.02 l -0.03,-0.06 -0.01,-0.04 -0.02,-0.05 -0.01,-0.02 -0.07,-0.12 -0.03,-0.05 -0.02,-0.06 -0.01,-0.02 -0.02,-0.02 -0.4,-0.5 -0.2,-0.25 -0.66,-0.8 -0.68,-0.45 -0.49,-0.72 -1.31,-3.85 -0.47,-0.88 -0.08,-0.15 -0.01,-0.02 -1,-1.81 1.42,-1.7 1.28,-1.52 1.26,-1.53 0.23,-0.28 0.78,-0.94 0.72,-0.88 0.64,-0.77 2.97,-3.43 0.88,-1.11 0.09,-0.11 0.18,-0.21 0.37,-0.44 0.55,-0.64 0.41,-0.53 0.38,-0.49 1.86,-2.21 0.19,-0.23 0.59,-0.71 1.57,-1.07 1.65,-0.67 1.75,-0.31 0.1,0.17 0.27,0.4 0.23,0.07 0.22,0.07 -0.01,0.4 v 0.05 l -0.16,0.16 0.18,0.19 0.04,0.04 0.04,0.04 0.05,0.06 -0.13,0.09 -0.05,0.02 -0.04,0.03 -0.28,0.17 0.06,0.16 0.12,0.07 0.22,0.11 1.3,0.16 -0.19,0.33 -0.03,0.02 -0.4,0.25 0.09,0.33 0.24,0.18 0.15,0.08 0.06,0.03 h 0.02 0.16 l 0.16,0.01 h 0.02 l 0.09,-0.53 1.17,-0.5 0.69,1.02 0.27,0.27 0.15,0.04 0.14,0.03 0.21,-0.08 0.46,0.15 0.25,0.22 0.19,-0.07 0.04,-0.43 0.03,-0.25 0.02,-0.28 0.66,-0.13 0.33,0.26 0.09,0.56 0.06,0.35 0.14,0.24 1.03,-0.14 0.17,0.31 -0.03,0.02 -0.13,0.08 -0.13,0.08 -0.22,0.14 -0.34,0.26 -0.09,0.23 0.02,0.07 0.04,0.13 0.05,0.14 0.01,0.05 0.17,0.25 0.41,0.61 0.43,0.21 0.4,-0.13 0.07,-0.02 0.77,-0.93 0.78,0.2 0.28,0.67 0.27,0.44 0.07,0.09 0.51,0.64 0.44,0.08 0.74,-0.78 0.33,0.01 h 0.07 l 0.19,0.34 0.32,0.55 0.34,0.12 0.46,-0.27 0.56,-0.55 0.81,0.49 -0.7,0.58 0.1,0.2 0.33,0.12 0.16,0.05 0.31,-0.05 0.47,-0.38 0.07,-0.37 0.11,-0.55 0.29,-0.1 0.32,-0.11 0.42,0.29 0.08,0.06 -0.21,1.29 -0.91,0.47 0.1,0.35 0.16,0.04 0.43,0.11 0.03,0.01 0.01,-0.01 1.06,-0.73 0.06,0.01 0.44,0.02 0.55,1.04 0.61,-0.01 0.25,-0.17 0.13,-0.24 -0.17,-1.2 -0.03,-0.15 0.34,-0.52 0.83,-0.06 0.26,0.16 0.38,0.23 0.32,0.67 -0.02,0.13 -0.11,0.5 -0.23,0.18 -0.55,0.46 0.17,0.49 1.62,0.95 0.14,0.27 0.12,0.23 0.13,0.4 0.34,0.19 0.07,0.02 0.06,0.01 0.06,0.01 0.46,-0.35 0.74,-1.71 0.08,-0.07 0.37,-0.29 0.65,0.15 0.57,0.78 -0.84,0.77 v 0.54 l 0.31,0.35 0.68,0.24 1.08,-0.05 0.47,-0.36 0.24,-0.19 0.37,-0.9 0.52,-0.46 0.61,0.07 h 0.05 l 1.52,1.76 0.81,0.53 0.32,0.05 0.05,0.01 0.06,0.01 0.21,0.03 0.7,0.01 1.42,-0.23 0.53,0.13 0.07,0.02 0.19,0.02 0.22,0.02 0.4,-0.34 0.13,-0.18 0.04,-0.07 0.05,-0.07 0.23,-0.34 1.11,-0.83 0.62,-1.85 1.39,0.09 1.26,0.59 0.65,0.56 0.64,2.19 0.45,0.33 0.48,0.18 0.76,-0.27 0.32,-0.31 0.15,-0.79 0.01,-0.1 0.46,-0.65 1.46,-0.88 1.48,0.34 0.65,1.01 v 0.58 0.07 0.06 0.19 l 0.06,0.52 0.56,0.46 0.65,0.07 0.69,0.07 1.88,-0.34 0.91,0.16 0.59,1.64 -0.24,0.81 0.08,0.8 0.2,0.35 0.82,0.35 1.63,-0.38 0.11,-0.03 3.19,-0.48 1.12,-0.34 0.22,-0.35 0.69,-1.13 0.99,-1.04 2.64,0.01 2.6,0.17 0.86,0.21 0.61,0.14 0.77,0.74 0.6,1.15 0.18,0.89 -0.5,0.9 -0.86,0.75 -0.15,0.13 -1.77,-0.09 h -0.18 l -2.36,-0.46 -0.81,0.48 -0.28,0.16 -0.65,1.11 -0.23,1.33 0.05,0.21 0.11,0.46 0.62,1.02 0.69,2.42 0.71,1.44 0.83,0.57 0.89,0.08 4.48,-1.47 1.1,0.02 1.52,1.09 1.01,1.77 0.17,0.81 -0.24,1.14 -0.92,0.57 -4.96,-0.04 -1.1,0.48 -0.62,0.66 -0.25,1.06 0.33,1.8 0.98,0.99 1.38,0.25 0.68,-0.17 1.75,-1.07 1.25,-0.91 0.98,-0.43 1.12,-0.18 1.31,0.75 0.26,0.77 -0.6,1.37 -1.96,1.9 -0.55,1.31 0.41,1.12 3.83,5.4 1.61,2.03 1.62,0.89 4.78,0.81 1.34,0.42 0.55,0.47 1.02,3.01 0.92,0.8 2.04,0.52 1.01,-0.48 3.19,-3.47 0.8,-0.08 1.22,0.4 1.83,3.37 1.56,0.33 1.82,-0.61 2.12,-1.18 2.18,-0.55 1.75,0.27 1.22,0.6 1.77,1.46 -0.09,1.51 -3.39,3.2 -0.28,1.37 0.63,0.7 2.86,0.51 4.21,-0.62 0.95,0.43 0.29,0.75 -1.75,3.32 -0.01,1.64 1.11,0.92 1.63,-0.01 0.87,-0.77 0.72,-1.16 0.01,-2.76 0.7,-2.25 1.5,-0.18 1.18,0.37 1.75,4.14 3,5.11 0.25,1.09 1.85,6.32 3.08,2.95 5.45,1.65 1.67,2.39 2.78,3.96 0.9,1.27 -0.07,1.02 0.71,1.48 0.76,0.59 4.41,2.02 1.79,0.75 1.32,0.76 2.62,0.48 1.66,0.64 -1.94,4.49 1.58,1.64 0.43,1.86 -1.37,1.79 -1.12,0.99 -1.03,0.38 1.22,3.59 0.83,2.43 0.32,0.92 1.81,1.61 2.64,3.86 0.94,3.87 2.75,5.64 1.84,1.2 5.74,-0.4 0.87,-0.06 1.03,-0.96 2.36,0.42 1.18,0.82 1.71,2.33 2.47,0.86 0.02,0.01 0.65,0.96 -0.76,0.41 -1.97,0.6 -0.45,4.4 -3.05,6.67 -2,4.25 -1.74,4.91 -4.84,7.16 -0.1,3.41 -0.07,2.41 1.02,1.81 -0.52,0.21 -1.64,0.66 -2.35,0.94 -2.97,1.06 -4.86,1.08 -8.81,3.5 -1.46,0.4 -1.2,0.33 -1.65,0.45 -5.09,1.88 -9.31,4.81 -2.68,2.05 -3.71,1.34 -6.61,2.29 -5.41,1.05 -2.38,-0.55 -0.11,-0.77 -0.98,-2.57 -2.98,1.33 -1.67,1.28 -3.52,2.02 -1.19,2.1 -2.12,1.19 -2.81,1.38 -1.76,1.91 -4.22,0.52 -3.17,-0.78 -2.49,-1.01 -0.49,-1.92 1.1,-1.65 0.47,-1.88 -0.4,-2.75 -0.62,-4.21 0.21,-1.56 -4.34,-1.17 -6.35,-1.72 -2.52,0.65 -2.55,-1.29 -1.28,-0.5 -2.89,-1.14 -4.53,-3.56 -0.54,-2.09 -3.87,-3.88 -0.24,-0.07 -2.7,-0.8 -3.47,0.43 -2.78,1.28 -2.42,1.11 -2.36,2.6 0.37,1.53 0.4,2 -1.17,0.38 -0.6,0.64 -0.75,0.17 -1.9,-0.96 -3.02,-0.6 -3.13,3.55 -2.6,2.93 0.28,3.03 1.9,2.7 2.65,1.87 2.27,2.44 2.06,1.69 0.98,0.37 0.64,1.05 0.74,-0.07 0.1,-0.01 1.11,-0.1 0.95,-1.24 1.91,-0.86 0.12,-0.05 0.65,-0.74 1.39,-0.02 2.02,1.4 0.81,-0.24 1.4,0.47 5.42,4.93 3.41,2.5 0.3,0.21 2.04,1.47 3.08,1.28 1.92,1.67 1.71,1.58 0.32,0.29 2.56,3.15 1.11,2.77 0.87,1.25 -0.59,1.78 -0.51,0.7 -0.62,0.84 -2.81,1.96 -0.52,0.36 -3.33,2.32 -0.98,1.12 -2.16,2.47 -3.2,3.66 -3.46,5.2 -2.71,3.66 -1.46,1.62 -2.07,2.29 -3.37,2.82 -0.54,0.46 -0.67,0.56 -3.32,1.97 -3.63,2.16 -0.51,0.21 -10.11,4.2 -0.11,0.05 -0.25,0.12 -8.71,4.23 -7.15,4.05 -3.1,1.76 -4.12,0.53 -3.12,-2.11 -1.43,-0.47 -4.97,-1.64 -0.81,1.06 -1.73,3.02 -4.89,4.25 -0.51,0.6 -2.18,2.55 -3.41,4.46 -0.76,0.26 -1.07,0.23 -1.44,0.35 -0.31,-0.35 -1.25,-0.01 -1.86,0.06 -0.12,-0.05 -1.85,0.18 -0.59,0.18 -0.55,0.18 -0.63,0.23 z"
       id="path3654"
       style="fill:#e27f7f;fill-opacity:1;stroke:#ffffff;stroke-opacity:1" />
  </g>
</svg>
